<svg xmlns="http://www.w3.org/2000/svg" xmlns:xlink="http://www.w3.org/1999/xlink" width="406" height="100" viewBox="0 0 406 100">
  <defs>
    <clipPath id="clip-path">
      <rect width="406" height="100" fill="none"/>
    </clipPath>
  </defs>
  <g id="Component" clip-path="url(#clip-path)">
    <g id="Bootstrap">
      <path id="bg" d="M100,83.333A16.716,16.716,0,0,1,83.333,100H16.667A16.716,16.716,0,0,1,0,83.333V16.667A16.716,16.716,0,0,1,16.667,0H83.333A16.716,16.716,0,0,1,100,16.667Z" fill="#563d7c"/>
      <g id="B" transform="translate(27.215 21.782)">
        <path id="Path_26" data-name="Path 26" d="M166.3,133h28.3q7.83,0,12.561,3.589c3.148,2.4,4.731,6,4.731,10.848a12.977,12.977,0,0,1-2.153,7.537,13.871,13.871,0,0,1-6.166,4.861V160a12.768,12.768,0,0,1,8.157,5.09,16.9,16.9,0,0,1,2.773,9.918,16.6,16.6,0,0,1-1.223,6.395,12.922,12.922,0,0,1-3.834,5.139,19.54,19.54,0,0,1-6.688,3.426,32.8,32.8,0,0,1-9.706,1.272H166.3V133Zm10.2,24.388h16.639a9.04,9.04,0,0,0,6.117-2.088,7.472,7.472,0,0,0,2.447-6c0-2.936-.734-5.008-2.2-6.2a9.887,9.887,0,0,0-6.362-1.794H176.5v16.085Zm0,25.53h18.026c3.1,0,5.514-.8,7.21-2.414a8.891,8.891,0,0,0,2.577-6.819,8.488,8.488,0,0,0-2.577-6.656c-1.729-1.566-4.111-2.316-7.21-2.316H176.5Z" transform="translate(-166.3 -133)" fill="#fff"/>
      </g>
    </g>
    <text id="Bootstrap-2" data-name="Bootstrap" transform="translate(121 72.823)" fill="#563d7c" font-size="60" font-family="HelveticaNeue-Bold, Helvetica Neue" font-weight="700"><tspan x="0" y="0">Bootstrap</tspan></text>
  </g>
</svg>
