<?xml version="1.0" encoding="utf-8"?>
<!-- Generator: Adobe Illustrator 16.0.0, SVG Export Plug-In . SVG Version: 6.00 Build 0)  -->
<!DOCTYPE svg PUBLIC "-//W3C//DTD SVG 1.1//EN" "http://www.w3.org/Graphics/SVG/1.1/DTD/svg11.dtd">
<svg version="1.1" xmlns="http://www.w3.org/2000/svg" xmlns:xlink="http://www.w3.org/1999/xlink" x="0px" y="0px" width="360px"
	 height="324px" viewBox="0 0 360 324" enable-background="new 0 0 360 324" xml:space="preserve">
<g id="Web_Tech_Icons">
</g>
<g id="Email" display="none">
	
		<rect x="111.667" y="117.333" display="inline" fill="#FFFFFF" stroke="#000000" stroke-width="6" stroke-miterlimit="10" width="133.333" height="71.667"/>
	<polyline display="inline" fill="none" stroke="#000000" stroke-width="6" stroke-miterlimit="10" points="245,189 
		178.333,143.167 111.667,189 	"/>
	<polyline display="inline" fill="#F1F2F2" stroke="#000000" stroke-width="6" stroke-miterlimit="10" points="245,117.333 
		178.333,163.167 111.667,117.333 	"/>
	
		<line display="inline" fill="none" stroke="#000000" stroke-width="6" stroke-miterlimit="10" x1="111.667" y1="117.333" x2="245" y2="117.333"/>
</g>
<g id="Resume" display="none">
	<path display="inline" fill="none" stroke="#000000" stroke-width="6" stroke-miterlimit="10" d="M197.75,159.25"/>
	<polyline display="inline" fill="none" stroke="#000000" stroke-width="6" stroke-miterlimit="10" points="221.25,135.5 
		221.25,62.5 156.25,62.5 156.25,159.25 197.75,159.25 	"/>
	<path display="inline" fill="none" stroke="#000000" stroke-width="6" stroke-miterlimit="10" d="M221.25,135.5"/>
	<circle display="inline" fill="none" stroke="#000000" stroke-width="6" stroke-miterlimit="10" cx="188.75" cy="86.25" r="15"/>
	<path display="inline" fill="none" stroke="#000000" stroke-width="6" stroke-miterlimit="10" d="M188.75,105.375
		c-6.63,0-20,5.371-20,20h40C208.75,110.746,195.375,105.375,188.75,105.375z"/>
	
		<line display="inline" fill="none" stroke="#000000" stroke-width="6" stroke-miterlimit="10" x1="203.5" y1="143" x2="238.5" y2="143"/>
	
		<line display="inline" fill="none" stroke="#000000" stroke-width="6" stroke-miterlimit="10" x1="203.5" y1="155" x2="238.5" y2="155"/>
	
		<line display="inline" fill="none" stroke="#000000" stroke-width="6" stroke-miterlimit="10" x1="203.5" y1="167" x2="238.5" y2="167"/>
</g>
<g id="Linkedin">
	<g>
		<circle fill="#0177B5" cx="186.25" cy="147.25" r="25"/>
		<text transform="matrix(1 0 0 1 171.5 157.75)" fill="#F1F2F2" font-family="'MyriadPro-Bold'" font-size="36">in</text>
	</g>
</g>
<g id="External_Link" display="none">
	<polyline display="inline" fill="none" stroke="#000000" stroke-width="10" stroke-miterlimit="10" points="204.079,128.011 
		204.079,87.055 163.123,87.055 	"/>
	<polyline display="inline" fill="none" stroke="#000000" stroke-width="10" stroke-miterlimit="10" points="148.788,101.389 
		107.833,101.389 107.833,183.301 189.744,183.301 189.744,142.346 	"/>
	
		<line display="inline" fill="none" stroke="#000000" stroke-width="10" stroke-miterlimit="10" x1="148.788" y1="142.345" x2="202.856" y2="88.277"/>
</g>
<g id="HTML5" display="none">
	<g id="HTML5_1_" display="inline">
		<g>
			<polygon fill="#DA5230" points="113,170.25 7,170.25 20.5,270.25 60.5,283.75 100.5,270.25 			"/>
			<polygon fill="#F47A5B" points="60,179.75 60,271.75 93,263.25 103.5,179.75 			"/>
			<polygon fill="#D2D3D4" points="59.167,249.332 45.833,245.498 44.667,233.498 32.5,233.498 35,256.166 59.667,262.166 
				59.667,249.199 			"/>
			<polygon fill="#D2D3D4" points="41.333,199.834 59.667,199.834 59.667,187.834 27.667,187.834 31.667,227.498 59.667,227.498 
				59.667,214.834 42.667,214.834 			"/>
			<polygon fill="#F2F2F2" points="90.167,199.834 91.667,187.834 59.667,187.834 59.667,199.834 			"/>
			<polygon fill="#F2F2F2" points="75.167,227.498 73,245.666 59.667,249.199 59.667,262.166 84.167,255.666 88.667,214.834 
				59.667,214.834 59.667,227.498 			"/>
		</g>
	</g>
</g>
<g id="CSS3_1_" display="none">
	<g id="CSS3" display="inline">
		<g>
			<polygon fill="#349ED8" points="233,170.25 127,170.25 140.5,270.25 180.5,283.75 220.5,270.25 			"/>
			<polygon fill="#6ABFEB" points="180,179.75 180,271.75 213,263.25 223.5,179.75 			"/>
			<polygon fill="#D2D3D4" points="163,214.916 164.5,226.916 180,226.916 180,214.916 			"/>
			<polygon fill="#D2D3D4" points="166.5,245.75 165.5,233.25 153.167,233.25 155.5,255.582 180,262.25 180,249.416 			"/>
			<polygon fill="#F2F2F2" points="180,187.75 180,199.916 198.333,199.916 196.667,214.916 180,214.916 180,226.916 
				195.667,226.916 193.5,245.582 180,249.416 180,262.25 204.333,255.582 212.167,187.75 			"/>
			<polygon fill="#D2D3D4" points="147.833,187.75 149.333,199.916 180,199.916 180,187.75 			"/>
		</g>
	</g>
</g>
<g id="JavaScript" display="none">
	<g id="JS" display="inline">
		<g>
			<polygon fill="#D9A72B" points="353.001,170.75 247.001,170.75 260.501,270.75 300.501,283.25 340.501,270.75 			"/>
			<polygon fill="#FBCD5B" points="300.001,180.25 300.001,272.25 333.001,263.75 343.501,180.25 			"/>
			<polygon fill="#FFFFFF" points="331.995,188.916 302.995,188.916 302.995,226.916 315.495,226.916 313.161,246.084 
				302.995,249.25 302.995,261.416 324.995,255.75 329.495,215.584 313.661,215.584 313.661,200.584 330.495,200.584 			"/>
			<polygon fill="#D2D3D4" points="297.328,188.916 286.661,188.916 286.661,246.416 274.328,243.25 275.995,256.084 
				297.328,262.084 			"/>
		</g>
	</g>
</g>
<g id="Python" display="none">
	<g id="g2303" display="inline">
		
			<linearGradient id="path1948_1_" gradientUnits="userSpaceOnUse" x1="423.417" y1="-291.543" x2="532.439" y2="-385.3419" gradientTransform="matrix(0.5625 0 0 -0.568 -146.4795 -68.5953)">
			<stop  offset="0" style="stop-color:#5C9FD3"/>
			<stop  offset="1" style="stop-color:#316A99"/>
		</linearGradient>
		<path id="path1948" fill="url(#path1948_1_)" d="M149.338,93.806c-4.584,0.021-8.961,0.412-12.813,1.094
			c-11.346,2.005-13.406,6.2-13.406,13.938v10.219h26.813v3.406h-26.813h-10.063c-7.792,0-14.616,4.684-16.75,13.594
			c-2.462,10.213-2.571,16.586,0,27.25c1.906,7.938,6.458,13.594,14.25,13.594h9.219v-12.25c0-8.85,7.657-16.657,16.75-16.657
			h26.781c7.455,0,13.406-6.138,13.406-13.625v-25.531c0-7.266-6.13-12.725-13.406-13.938
			C158.701,94.133,153.921,93.785,149.338,93.806z M134.838,102.025c2.77,0,5.031,2.299,5.031,5.125
			c0,2.816-2.262,5.094-5.031,5.094c-2.78,0-5.031-2.277-5.031-5.094C129.807,104.324,132.058,102.025,134.838,102.025z"/>
		
			<linearGradient id="path1950_1_" gradientUnits="userSpaceOnUse" x1="574.5869" y1="-442.106" x2="535.6565" y2="-387.0262" gradientTransform="matrix(0.5625 0 0 -0.568 -146.4795 -68.5953)">
			<stop  offset="0" style="stop-color:#FFD43D"/>
			<stop  offset="1" style="stop-color:#FEE875"/>
		</linearGradient>
		<path id="path1950" fill="url(#path1950_1_)" d="M180.057,122.462v11.906c0,9.231-7.826,17-16.75,17h-26.781
			c-7.336,0-13.406,6.278-13.406,13.625v25.531c0,7.267,6.318,11.541,13.406,13.625c8.487,2.496,16.626,2.947,26.781,0
			c6.75-1.954,13.406-5.888,13.406-13.625v-10.219h-26.781V176.9h26.781h13.406c7.792,0,10.696-5.436,13.406-13.594
			c2.8-8.399,2.681-16.476,0-27.25c-1.926-7.757-5.604-13.594-13.406-13.594H180.057z M164.994,187.119
			c2.779,0,5.031,2.277,5.031,5.094c0,2.826-2.252,5.125-5.031,5.125c-2.77,0-5.031-2.299-5.031-5.125
			C159.963,189.396,162.225,187.119,164.994,187.119z"/>
	</g>
</g>
<g id="PostgreSQL" display="none">
	<g id="Layer_x0020_3" display="inline">
		<path fill="#010101" stroke="#010101" stroke-width="37.3953" d="M254.205,275.227c2.832-23.601,1.984-27.062,19.563-23.238
			l4.463,0.392c13.518,0.615,31.199-2.174,41.588-7c22.361-10.376,35.621-27.7,13.57-23.147
			c-50.297,10.375-53.754-6.655-53.754-6.655c53.111-78.803,75.313-178.836,56.148-203.322
			c-52.27-66.789-142.748-35.206-144.261-34.386l-0.482,0.089c-9.938-2.062-21.06-3.294-33.554-3.496
			c-22.761-0.374-40.032,5.967-53.133,15.904c0,0-161.408-66.498-153.899,83.628c1.597,31.936,45.777,241.654,98.47,178.311
			c19.259-23.164,37.871-42.748,37.871-42.748c9.242,6.14,20.307,9.271,31.912,8.146l0.897-0.766
			c-0.281,2.877-0.157,5.689,0.359,9.02c-13.572,15.167-9.584,17.83-36.723,23.416c-27.457,5.659-11.326,15.734-0.797,18.367
			c12.768,3.193,42.305,7.716,62.268-20.225l-0.795,3.188c5.325,4.26,4.965,30.619,5.72,49.452
			c0.756,18.834,2.017,36.408,5.856,46.771c3.838,10.359,8.368,37.049,44.035,29.405
			C229.336,369.945,252.127,360.751,254.205,275.227"/>
		<path fill="#356891" d="M333.395,222.23c-50.303,10.375-53.76-6.655-53.76-6.655c53.111-78.808,75.313-178.843,56.152-203.326
			c-52.27-66.785-142.751-35.2-144.261-34.38l-0.486,0.087c-9.938-2.063-21.06-3.292-33.56-3.496
			c-22.761-0.373-40.026,5.967-53.127,15.902c0,0-161.411-66.495-153.904,83.63c1.597,31.938,45.776,241.656,98.471,178.313
			c19.26-23.164,37.869-42.748,37.869-42.748c9.243,6.14,20.308,9.271,31.908,8.146l0.901-0.766c-0.28,2.877-0.152,5.689,0.361,9.02
			c-13.575,15.167-9.586,17.83-36.723,23.416c-27.459,5.659-11.328,15.734-0.796,18.367c12.768,3.193,42.307,7.716,62.266-20.225
			l-0.796,3.188c5.319,4.26,9.053,27.711,8.428,48.969c-0.627,21.259-1.045,35.854,3.146,47.255
			c4.191,11.399,8.368,37.049,44.042,29.405c29.809-6.388,45.256-22.942,47.404-50.556c1.525-19.631,4.977-16.729,5.193-34.279
			l2.768-8.309c3.193-26.611,0.508-35.196,18.873-31.203l4.463,0.392c13.518,0.615,31.207-2.174,41.592-7
			c22.357-10.376,35.617-27.7,13.572-23.147H333.395z"/>
		<path fill="none" stroke="#FFFFFF" stroke-width="12.4651" stroke-linecap="round" stroke-linejoin="round" d="M146.866,237.484
			c-1.385,49.516,0.348,99.377,5.193,111.494c4.848,12.118,15.223,35.688,50.9,28.046c29.807-6.391,40.65-18.757,45.357-46.052
			c3.465-20.082,10.146-75.854,11.004-87.281"/>
		<path fill="none" stroke="#FFFFFF" stroke-width="12.4651" stroke-linecap="round" stroke-linejoin="round" d="M104.104-10.744
			c0,0-161.521-66.016-154.012,84.109c1.597,31.938,45.779,241.664,98.473,178.316c19.256-23.166,36.671-41.336,36.671-41.336"/>
		<path fill="none" stroke="#FFFFFF" stroke-width="12.4651" stroke-linecap="round" stroke-linejoin="round" d="M191.349-22.793
			c-5.591,1.753,89.848-34.889,144.086,34.417c19.158,24.484-3.043,124.519-56.152,203.329"/>
		<path fill="none" stroke="#FFFFFF" stroke-width="12.4651" stroke-linecap="round" stroke-linejoin="bevel" d="M279.281,214.953
			c0,0,3.461,17.036,53.764,6.652c22.041-4.551,8.777,12.774-13.576,23.156c-18.346,8.514-59.475,10.695-60.146-1.07
			c-1.729-30.354,21.646-21.133,19.961-28.738c-1.525-6.85-11.98-13.573-18.895-30.338c-6.037-14.633-82.796-126.849,21.287-110.183
			c3.813-0.789-27.146-99.002-124.552-100.599c-97.386-1.597-94.19,119.762-94.19,119.762"/>
		<path fill="none" stroke="#FFFFFF" stroke-width="12.4651" stroke-linecap="round" stroke-linejoin="round" d="M119.604,225.334
			c-13.577,15.166-9.584,17.829-36.723,23.417c-27.459,5.66-11.326,15.733-0.797,18.365c12.768,3.194,42.307,7.718,62.266-20.229
			c6.078-8.509-0.036-22.086-8.385-25.547C131.931,219.669,126.537,217.575,119.604,225.334L119.604,225.334z"/>
		<path fill="none" stroke="#FFFFFF" stroke-width="12.4651" stroke-linecap="round" stroke-linejoin="round" d="M118.715,225.068
			c-1.368-8.916,2.93-19.527,7.536-31.941c6.922-18.626,22.893-37.255,10.117-96.339c-9.523-44.029-73.396-9.163-73.436-3.193
			c-0.039,5.968,2.889,30.26-1.067,58.548c-5.162,36.914,23.488,68.132,56.479,64.938"/>
		<path fill="#FFFFFF" stroke="#FFFFFF" stroke-width="4.155" d="M103.517,92.7c-0.288,2.039,3.733,7.48,8.976,8.207
			c5.234,0.73,9.714-3.522,9.998-5.559c0.284-2.039-3.732-4.285-8.977-5.015C108.277,89.602,103.795,90.666,103.517,92.7
			L103.517,92.7z"/>
		<path fill="#FFFFFF" stroke="#FFFFFF" stroke-width="2.0775" d="M262.941,88.543c0.283,2.039-3.732,7.48-8.977,8.207
			c-5.238,0.73-9.719-3.522-10.006-5.559c-0.277-2.039,3.74-4.285,8.98-5.015C258.178,85.446,262.656,86.509,262.941,88.543
			L262.941,88.543z"/>
		<path fill="none" stroke="#FFFFFF" stroke-width="12.4651" stroke-linecap="round" stroke-linejoin="round" d="M281.676,74.432
			c0.863,15.994-3.445,26.888-3.988,43.914c-0.805,24.748,11.799,53.074-7.191,81.435"/>
		<path fill="none" stroke="#FFFFFF" stroke-width="3" stroke-linecap="round" stroke-linejoin="round" d="M-69,11.232"/>
	</g>
</g>
</svg>
