<svg xmlns="http://www.w3.org/2000/svg" width="77.612" height="100" viewBox="0 0 77.612 100">
  <path id="djangoproject-icon" d="M40.413,0H56.782V75.688a107.682,107.682,0,0,1-21.25,2.23c-19.963,0-30.367-9.025-30.367-26.333,0-16.672,11.044-27.5,28.138-27.5a26.033,26.033,0,0,1,7.114.848Zm0,38.1a16.249,16.249,0,0,0-5.52-.848c-8.281,0-13.062,5.1-13.062,14.016,0,8.708,4.566,13.484,12.969,13.484a38.4,38.4,0,0,0,5.625-.422ZM82.778,25.25V63.156c0,13.063-.956,19.325-3.822,24.739C76.3,93.1,72.8,96.389,65.578,100L50.393,92.781c7.219-3.4,10.723-6.369,12.969-10.937C65.7,77.156,66.44,71.756,66.44,57.531V25.25ZM66.426.087H82.778V16.864H66.426Z" transform="translate(-5.165)" fill="#092e20"/>
</svg>
