<svg xmlns="http://www.w3.org/2000/svg" width="100" height="100" viewBox="0 0 100 100">
  <g id="Group_23" data-name="Group 23" transform="translate(286 -1236.177)">
    <g id="Bootstrap" transform="translate(-286 1236.177)">
      <path id="bg" d="M100,83.333A16.716,16.716,0,0,1,83.333,100H16.667A16.716,16.716,0,0,1,0,83.333V16.667A16.716,16.716,0,0,1,16.667,0H83.333A16.716,16.716,0,0,1,100,16.667Z" fill="#092e20"/>
    </g>
    <path id="djangoproject-icon" d="M29.839,0H41.3V52.981a75.377,75.377,0,0,1-14.875,1.561c-13.974,0-21.257-6.318-21.257-18.433,0-11.67,7.731-19.25,19.7-19.25a18.223,18.223,0,0,1,4.98.594Zm0,26.669a11.374,11.374,0,0,0-3.864-.594c-5.8,0-9.144,3.568-9.144,9.811,0,6.1,3.2,9.439,9.078,9.439a26.876,26.876,0,0,0,3.938-.3Zm29.655-8.994V44.209c0,9.144-.669,13.528-2.675,17.317-1.859,3.642-4.312,5.946-9.365,8.473L36.825,64.947c5.053-2.378,7.506-4.458,9.078-7.656,1.635-3.281,2.155-7.061,2.155-17.019v-22.6ZM48.048.061H59.494V11.8H48.048Z" transform="translate(-268.165 1251)" fill="#fff"/>
  </g>
</svg>
