<svg xmlns="http://www.w3.org/2000/svg" width="112.098" height="100" viewBox="0 0 112.098 100">
  <path id="path2900" d="M73.319,119.232c-4.27-3.359-8.826-6.58-11.939-11.114A90.2,90.2,0,0,1,46.34,81.133c-2.084-6.326-2.8-13.109-5.484-19.192-2.81-4.417.482-9.247,5.32-10.651,2.154-.413,5.942-2.445,1.37-.993-4.1,3.008-4.5-2.73-.293-3.093,2.869-.381,3.925-2.73,2.944-4.844-3.079-2.008,7.467-4.215,2.161-7.212-5.528-5.964,7.733-7.112,4.461-.339-.783,5.209,9.266-.955,6.934,5.06,2.37,2.888,8.875.657,8.713,4.71,3.452.237,4.637,3.142,7.878,3.365,3.359,1.517,9.448,2.712,10.591,6.5C87.6,57.08,79.886,48.993,79.516,56.3c1.007,10.788.75,21.9,4.7,32.174,1.867,6.22,6.393,11.117,10.48,15.962,3.911,4.745,9.208,8.085,14.607,10.9a60.209,60.209,0,0,0,15,4.645c2.094-1.6,5.79-7.555,9.056-5.044.155,2.821-6.482,5.9-.312,5.585,3.623-1.093,6.136,2.8,9.119-.711,2.749,3.256,11.424-2.08,9.469,4.575-2.645,1.706-6.5.675-9.15,3.022-4.367-2.181-7.844,1.952-12.679,1.429a93.168,93.168,0,0,1-16.276,1.358c-8.931-.706-18.051-1-26.547-4.112-4.786-1.391-9.457-4.116-13.663-6.842Zm7.542,3.268c4.673,2.021,9.243,4.151,14.365,4.794,8.126,1.13,16.517,2.869,24.672,1.283-3.691-1.667-7.507.649-11.183-1.192-4.41.949-9.142-.242-13.626-.828-5.1-2.271-10.6-3.833-15.374-6.78-5.966-2.179,3.085,2.794,4.7,3.2,3.729,2.117-4.1-1.085-5.2-1.965-3.124-1.752-3.522-1.386-.309.393.647.379,1.286.775,1.964,1.1Zm-8.893-6.285c4.529,1.677-.02-3.185-2.1-2.9-.919-1.6-3.513-2.6-1.683-3.46-3.291,1.142-3.447-4.344-4.994-3.56-3.481-1.1-1.355-4.993-5.5-7.385-.379-2.52-4.12-4.705-5.313-8.506-.527-1.946-4.227-7.534-1.954-2.333,1.935,5.006,5.34,9.294,8.174,13.577,2.2,4.077,4.8,8.339,8.805,10.883,1.351,1.3,2.655,3.281,4.562,3.687ZM58.923,101.892C59.081,101.208,59.751,103.372,58.923,101.892Zm18.47,16.335C78.4,117.778,75.95,117.661,77.392,118.227Zm2.458.9C79.6,117.885,78.729,119.816,79.851,119.123Zm3.077,1.284C84.393,119.012,80.67,119.527,82.928,120.407Zm5.274,2.94C89.092,122.031,85.353,122.85,88.2,123.346Zm-10.128-7.06C80.35,114.814,75.135,116.266,78.074,116.286Zm2.308,1.151C80.318,116.659,79.56,117.786,80.383,117.438Zm11.538,7.2c1.855,1.17,10.831,2.565,5.21.48C96.19,125.317,86.708,122.437,91.92,124.639ZM73.6,110.373C73.424,109.593,70.725,109.511,73.6,110.373Zm5.371,3.13C80.373,112.529,76.074,112.752,78.975,113.5Zm4.518,2.77C85.5,115.517,80.239,115.514,83.493,116.274Zm-12.075-8.281c2.176,1.669,8.777.214,3.333-1-2.478-1.321-8.063-2.225-4.256.8l.923.2Zm15.135,9.237C87.46,115.686,82.751,116.348,86.553,117.23Zm-4.6-3.655c5.322,1.505-4.475-3.365-1.313-.554l.7.317.612.237Zm9.22,5.329c5.04.048-4.552-.695,0,0Zm-21.7-13.828C69.283,104.138,68.236,105.155,69.479,105.077ZM99.7,123.686C99.835,121.991,98.056,124.948,99.7,123.686ZM78.08,110.344C77.776,109.451,76.506,110.307,78.08,110.344Zm-8.123-5.856C72.851,104.314,66,103.213,69.957,104.488Zm-9.623-6.22C59.974,96.881,57.186,95.774,60.334,98.268ZM85.6,114.3C85.067,113.7,85.347,114.432,85.6,114.3Zm15.724,9.649C101.27,123.026,100.465,124.3,101.321,123.949ZM84.205,112.863C84.488,111.673,81.738,112.5,84.205,112.863Zm-11.714-7.424C74.644,105.209,69.043,103.984,72.491,105.439Zm19.816,12.313C95.661,116.423,89.037,117.1,92.307,117.752Zm-10.307-7c3.866.5-4.6-2.63-.848-.28l.848.28Zm13.436,8.262c3.609-2.158,2.419,5.053,6.124.609,3.654-2.668-3.155,3.3,1.348.476,3.257-2.178,8.067,1.033,11.106,2.08,2.185-.107,4.31,1.89,6.55.675,4.313-1.162-8.433-1.723-5.092-3.784-3.946,1.148-6.862-1.369-8.8-3.9-4.426-1.022-9.544-3.285-11.753-7.2-.9-1.471,1.3.207-.778-2.2-2.667-2.372-4-5.065-5.79-7.949-2.139-1.141-2.388-4.5-2.6-.113.017-2.769-2.583-4.632-3.217-3.858-.011-2.667,2.782-1.33.827-3.3-.421-2.764-1.807-5.644-2.223-8.764-.647-1.5-.091-4.726-2.209-1.321-.772,3.6-.256-4.422.944-1.777,1.575-2.7-.565-2.382-.653-2.007,1.026-2.277.649-5.507-.268-4.275.547-2.414.864-8.883-.818-7.736,1.019-2.524,1.933-11.549-2.492-8.108a18.805,18.805,0,0,0-6.367,1.381c4.6,2.537-.463.916-2.337.513-.244,2.348-2.1,1.332-4.419,1.355,3.7.458-1.8,3.788-3.928,2.494-2.759,1.319,2.381,4.61.055,5.628.286,1.534-4.227-.554-3.873,2.989-2.679-1.127-.369,4.2.971,2.4,4.556,1.233,3.207,4.044,3.323,6.714-.742,1.556-3.665-3.657-.651-3.416-2.378-3.863-2.63-1.4-4.606.4-.46.13,5.04,2.553,1.589,3.751,3.036.469,3.123,3.126,3.741,4.807,1.825,1.9,1.452-2.1,3.635.185-1.382-2.035-7.319-5.734-2.539-4.548-.026-2.048-.865-3.7.6-3.66,1.45-2.627-1.519,6.476,1.75,3.138.905-.4,1.129-2.63,2.756.211,2.363,2.324.853,4.009-2.479,1.88.6,2.023,4.459,2.746,3.733,5.909.769,2.782,1.846,1.757,2.784,1.6.736,2.7,1.154.715,1.189-.571,3.37.721,2.581,2.714,3.635,4.106,2.322,1.048-3.324-7.106.663-2.452,4.195,3.787,1.573,5.368-2.191,4.762,2.383-.192,3.151,3.221,6.131,3.1,2.718,1.293,4.558,6.259-.127,4.192-1.625-1.465-7.375-3.272-2.678-.486,4.337,2.009,7.782,3.21,11.966,5.732,2.994,2.137,4.287,4.585,5.422,5.07-2.516,1.2-7.583-.96-3.821-1.622-2.347-.427-4.986-1.614-2.738,1.31,1.911,1.6,6.771,1.427,7.643,1.608-.738,1.627-2.006,1.757.03,1.883-2.272,1.211.728,1.4.939,2.09ZM90.791,105.9c-1.382-1.445-1.739-4.153-.245-1.8.766.308,2.454,4.424.245,1.8Zm15.128,9.61C106.781,115.453,105.944,116.163,105.919,115.508Zm-17.31-13.153C88.555,100.17,89.108,104.04,88.608,102.355Zm-1.5-2.023C85.366,96.973,89.3,101.283,87.1,100.332ZM68.885,87.756C69.906,87.484,69.387,89.5,68.885,87.756Zm14.5,7.86C84.013,93.261,84.123,97.593,83.386,95.616ZM73.141,88.493C72.419,87.193,74.652,89.712,73.141,88.493Zm8.792,2.818c-1.647-3.69,1.166-2.016.364.6l-.364-.6ZM66.771,81.2c-.736-1.211-1.954-4.762-1.562-5.847.355,1.766,3.755,7.6,1.668,2.417-2.307-4.345,2.757,1.41,3.278,2.494.243,1.078-1.423-.295-.294,2.233C67.8,79.619,68.646,84.087,66.771,81.2Zm-4.686-3.229C62.278,75.157,63.158,79.9,62.085,77.971Zm2.108.726C65.2,76.572,65.9,81.659,64.193,78.7Zm-5.07-3.922c-1.745-1.734-3.007-3.332.082-1.076,1.19.046-2.644-3.634.287-1.169C62.573,73.092,61.013,77.583,59.123,74.775Zm2.663-.07C62.8,73.7,62.324,75.693,61.786,74.705Zm1.639.525C61.889,72.352,65.289,76.437,63.425,75.23Zm-3.258-3.113c-5.072-4.513,6.373,2.36.829.837l-.829-.837ZM74.7,80.56c-2.195-1.316-.582-9.264.167-3.828,2.134-.69-.118,2.807,1.474,2.775-.251,2.207-.963,3-1.64,1.053Zm5.375,3.177C80.288,81.341,80.526,85.374,80.073,83.736Zm-.934-.922C79.381,81.791,79.164,84.019,79.139,82.814ZM61.162,70.634c-3.258-4.5,9.469,4.547,2.087,1.14C62.477,71.572,61.549,71.5,61.162,70.634Zm10.35,5.487c-.308-3.785.689.627,0,0Zm7.858,5.041C79.978,79.006,79.415,82.588,79.37,81.162ZM61.661,68.918c1.936-.414,8.025,3.4,2.434,1.09C63.474,69.32,62.149,69.633,61.661,68.918ZM78.29,77.206c.207-3.87,1.156-2.312.007.554l-.007-.554h0ZM63.1,67.571c.789-1.157-2.094-5.233.416-1.462,1.085.862,3.14,1.444,1.325,1.806C67.7,70.434,64.147,68.6,63.1,67.571ZM77.467,76C78.013,71.588,77.948,78.58,77.467,76ZM61.455,63.5C62.057,63.242,61.773,64.3,61.455,63.5Zm3.747,2.23C66.166,63.706,66.981,67.986,65.2,65.729Zm10.569,5.88C75.761,70.832,75.97,72.739,75.771,71.609Zm-.612-1.355C73.692,66.634,76.523,72.17,75.159,70.254Zm-.9-2.373c-.246-1.5.837,1.879,0,0ZM75.724,65.5C74.717,63.724,77,57.68,77.249,61.428c-1.062,2.92-.307,4.554.435.637,1.369-3.083-.3,6.084-1.96,3.432h0ZM77.23,56.51C77.669,55.971,77.328,57.159,77.23,56.51Zm-2.516,49.572C74.118,105.561,74.79,106.413,74.715,106.082ZM79.9,108.7c2.883.74,2.868-.449.263-.8-1.4-1.3-5.823-2.687-1.865-.162.262.664,1.09.649,1.6.963Zm-10.235-6.8c1.588,1.184,5.982,3.356,2.262.451,1.254-1.457-2.4-2.233-1.188-3.207-3.083-1.887-2.432-1.719-.272-1.66-3.706-1.656.535-1.532.335-2.381-1.429-.282-7.1-2.52-3.763.184-3.39-1.728-.808.644-1.832.393-3.466-.945,3.087,2.64-.551,1.75,1.989,1.576,5.353,4.037.841,1.668-.595.856,3.229,2.153,4.167,2.8Zm5.42,3.114C81.673,107.143,71.851,102.425,75.082,105.019Zm27.747,16.809C102.914,120.521,101.928,122.944,102.829,121.828Zm2.852,1.2c1.521-1.473.062,2.347,2.52-.361.027-1.938-.076-3.083-2.824-.729-.758.42-1.1,2.207.3,1.089ZM60.411,94.6C59.944,92.762,57.137,92.772,60.411,94.6Zm3.045,2C62.325,94.719,59.421,94.9,63.456,96.594Zm17.325,10.448c1.691,1.5,7.769,1.1,2.054.185C81.989,105.975,77.461,106.276,80.781,107.042ZM104.6,121.75C107.2,119.565,102.074,122.724,104.6,121.75Zm5.414,3.721C110.027,124.769,108.888,125.777,110.011,125.47Zm.008-.981c2.883-3.054-2.793.181,0,0Zm-57.1-36.162c-2.457-3.506-1.527-5.082-3.9-7.944-.449-2.189-4.065-7.156-1.87-1.894,2.01,3.078,2.607,7.843,5.767,9.838Zm56.194,35.191C114.418,120.09,106.937,122.025,109.115,123.518Zm4.049,1.586C115.819,122.824,111.483,124.627,113.163,125.1ZM59.508,90.723C60.268,89.592,57.545,90.578,59.508,90.723Zm52.81,33.3c2.572-1.658-.592-1.4-.466.152l.466-.152Zm-34.9-22C77.33,100.9,76.06,102.119,77.418,102.024Zm2.157,1.241C78.889,101.879,78.521,103.482,79.575,103.265Zm36.869,21.877c3.295-2.377-2-.455-.692.45l.692-.45Zm-1.262-.61C117.866,122.283,112.349,125.529,115.183,124.532Zm6.446,4.292C123.43,127.617,119.439,128.434,121.628,128.824ZM61.161,89.908c2.415.541,9.653,5.949,5.383.374-2.187-.647-.875-5.993-3.106-5.047,1.5,2.5,1.232,3.566-1.911,1.989-3.951-1.928-2.22.956-1.448,1.751-1.052.239,1.392.913,1.082.933Zm-11-8.691c.432-1.789-3.982-9.839-2.084-4.034C48.757,78.4,48.687,80.7,50.156,81.217Zm20.2,12.453C69.11,92.629,70.3,93.522,70.354,93.67Zm3.063.713C73.415,92.488,70.032,93.613,73.417,94.382Zm26.542,16.732c-.506-1.294-2-.03,0,0Zm1.275.931C101.045,111.321,100.5,112.186,101.234,112.046Zm10.52,6.627C112.766,117.925,110.491,118.577,111.754,118.672Zm-56.1-36.052C58.547,81.5,52.552,81.822,55.653,82.621Zm41.969,26.441C97.59,107.188,95.777,109.526,97.622,109.062ZM54.509,79.956C56.368,79.328,52.79,79.542,54.509,79.956Zm5.4,2.614C59.872,81.954,59.335,82.8,59.905,82.57Zm65.814,40.358c2.391-.485,7.838,1.217,8.718-.634-2.9-.07-10.044-2.048-10.382.472l.635.1,1.028.062h0ZM61.62,83C61.662,81.1,60.14,82.931,61.62,83ZM47.433,73.161C46.789,69.543,44.983,72.613,47.433,73.161Zm3.383.85C50.858,72.849,47.72,72.966,50.816,74.011Zm1.933.95C52.191,74.508,52.312,75.532,52.75,74.96Zm12.165,7.8C65.487,82.238,63.559,82.375,64.915,82.764ZM51.462,72.819C51.135,70.087,47.544,72.409,51.462,72.819Zm-6.936-4.5C44.427,67.057,43.85,68.794,44.526,68.318Zm1.032-.779C45.389,66.044,44.672,67.729,45.558,67.539Zm5.7,3.4c2.41-.947-4.391-1.959-.493-.179Zm76.291,47.124C129.092,116.651,125.588,117.628,127.549,118.065Zm9.216,4.777C137.384,121.014,135.209,123.084,136.766,122.843ZM51.841,67.954C52.095,66.185,49.93,68.305,51.841,67.954ZM43.73,62.52c-.436-2.5-.376-6.882,3.791-5.4-5.563,1.1,3.85,6.914,2.661,2.327,2.339.115,4.576-1.382,3.348.889,4.608-.509,7.8-4.505,12.255-3.945,3.467-.459,7.259-.807,11-2.2,3.072-.221,6.03-3.529,4.346-5.49a47.606,47.606,0,0,0-13.206,1.09c-5.131,1.067-9.793,3.094-14.97,3.963-5.047.678,1.015,1.868-.43,2.133-2.633.914,3.141,1.53-.341,2.493-2.15-.409-4.389-1.148-3.47-3.414-4.834.627-9.082,2.634-5.263,7.553l.284,0h0Zm11.649-5.933c1.133-4.176,6.072,3.436,1.858.555A2.635,2.635,0,0,0,55.379,56.588Zm.221-2.024C57.235,53.344,56.469,55.246,55.6,54.563Zm2.077.033c.148-1.921,4.755,1.017.76.692l-.76-.692Zm2.841-1.142C61.556,52.241,60.816,54.532,60.518,53.454Zm.727-.487c1.728-2.076,9.785-1.325,3.887-.2C63.552,51.574,62.34,53.466,61.245,52.967Zm10.514-1.621C71.5,45.675,76.983,53.361,71.759,51.346Zm2.983-.016c1.091-2.858,4.233-1.147.5-.574C75.329,51.06,75.138,52.231,74.743,51.33ZM50.664,66.487c3.259-2-3.46-1.731,0,0Zm2.41.67C54.217,65.942,50.591,66.664,53.074,67.157Zm-7.1-5.039C47.836,60.687,43.77,61.574,45.974,62.118Zm96.232,60.2C142.26,120.66,140.782,123.068,142.206,122.32Zm-9.778-6.673C132.705,113.736,131.171,115.814,132.427,115.647Zm12.467,7.317c2.6.009,7.889-.809,2.224-.806-.889.139-5.18.109-2.224.806Zm-89.7-56.978c2.107-.145,3.3-2.324-.408-2.2-5.741-.594,5.065,1.966-.736,1.234C53.27,65.536,55.148,66.128,55.194,65.985Zm1.856.939C56.829,65.572,56.4,67.643,57.049,66.925Zm2.2-5.87C60.165,59.921,57.985,60.752,59.251,61.055ZM52.243,49.341c3.761-1.279,8.9-2.717,10.679.63-1.807-2.175-.729-4.316.978-1.136,2.413,3.217,3.622-1.463,2.052-2.543,1.789,2.223,3.823,3.273,1.2.14,2.853-3.432-5.713.449-7.66.41-.937.42-9.672,2.228-7.246,2.5Zm2.2-4.221c2.145-1.619,7.418.963,4.034-1.609C58.15,43.219,51.071,45.461,54.447,45.12Zm7.819.323c2.51.064-1.083-3.372,1.908-1.815-.491-1.6-3.482-1.905-4.945-2.546-.827,1.467,1.684,4.381,3.036,4.361Zm-6.448-7.1C56.686,37.168,54.3,38.942,55.818,38.345Zm3.2.765c4.045-.537-1.031-1.742-.815-.043l.815.043h0Zm-5.967-4.669c-2.848-3.718,5.356.625,2.463-3.268-2.436-1.939-4.776,2.183-2.463,3.268ZM89.6,54.129c1.306-2.316-5.393-3.121-.88-.821C89.133,53.447,89.039,54.289,89.6,54.129Z" transform="translate(-39.821 -30.187)"/>
</svg>
