<svg xmlns="http://www.w3.org/2000/svg" width="600.001" height="600.001" viewBox="0 0 600.001 600.001">
  <path id="Subtraction_10" data-name="Subtraction 10" d="M600,600H0V0H600V600h0ZM475.082,271.993h0l-1.113,5.136h7.988L477.133,300h6.348l4.844-22.871h7.89l1.113-5.136H475.082ZM451.04,293.77h10.039l.8,6.23h6.446l-4-28.007H456.8L440.649,300h7.109l3.281-6.229Zm-22.676-21.777L422.407,300h16.8l1.094-5.116H429.848l1.367-6.289H440.3l1.113-5.156h-9.121l1.328-6.309H443.4l1.094-5.136Zm-28.168,7.069a9.874,9.874,0,0,0-10.644,10.7,10.169,10.169,0,0,0,2.764,7.431,9.955,9.955,0,0,0,7.393,2.8,10.182,10.182,0,0,0,7.588-2.881,10.529,10.529,0,0,0,2.822-7.665,10.686,10.686,0,0,0-2.617-7.637A9.639,9.639,0,0,0,400.195,279.062Zm-51.445,0A9.081,9.081,0,0,0,341.885,282a10.705,10.705,0,0,0-2.764,7.608c0,3.279.845,5.858,2.51,7.666A8.983,8.983,0,0,0,348.555,300a13.49,13.49,0,0,0,7.226-1.718v-3.653a9.926,9.926,0,0,1-5.879,1.914,6.384,6.384,0,0,1-4.482-1.5,5.791,5.791,0,0,1-1.709-4.277h13.633v-1.739A11,11,0,0,0,355.1,281.7,7.919,7.919,0,0,0,348.75,279.062Zm-35.7,0A9.081,9.081,0,0,0,306.182,282a10.705,10.705,0,0,0-2.764,7.608c0,3.279.844,5.858,2.51,7.666A8.983,8.983,0,0,0,312.852,300a13.49,13.49,0,0,0,7.226-1.718v-3.653a9.927,9.927,0,0,1-5.879,1.914,6.384,6.384,0,0,1-4.482-1.5,5.791,5.791,0,0,1-1.709-4.277H321.64v-1.739a10.993,10.993,0,0,0-2.246-7.324A7.918,7.918,0,0,0,313.047,279.062Zm-94.161,0A9.083,9.083,0,0,0,212.021,282a10.705,10.705,0,0,0-2.763,7.608c0,3.28.844,5.859,2.509,7.666A8.983,8.983,0,0,0,218.691,300a13.492,13.492,0,0,0,7.227-1.718v-3.653a9.926,9.926,0,0,1-5.879,1.914,6.385,6.385,0,0,1-4.483-1.5,5.784,5.784,0,0,1-1.708-4.277H227.48v-1.739a11,11,0,0,0-2.246-7.324A7.914,7.914,0,0,0,218.886,279.062Zm-90.117,0A9.08,9.08,0,0,0,121.9,282a10.7,10.7,0,0,0-2.764,7.608c0,3.279.845,5.858,2.51,7.666A8.983,8.983,0,0,0,128.574,300a13.5,13.5,0,0,0,7.227-1.718v-3.653a9.926,9.926,0,0,1-5.879,1.914,6.385,6.385,0,0,1-4.483-1.5,5.791,5.791,0,0,1-1.709-4.277h13.633v-1.739a11,11,0,0,0-2.246-7.324A7.916,7.916,0,0,0,128.769,279.062Zm241.641-7.538v3.945h8.027v24.062h4.649V275.468h8.047v-3.945Zm-44.454,8.007v20h4.531v-9.57a8.157,8.157,0,0,1,1.348-4.942A4.063,4.063,0,0,1,335.2,283.2a3.779,3.779,0,0,1,2.363.644v-4.3a3.838,3.838,0,0,0-1.875-.371,4.627,4.627,0,0,0-3.076,1.182,7,7,0,0,0-2.041,3.29h-.078v-4.121ZM290.7,282.656a3.35,3.35,0,0,1,2.974,1.485,8.119,8.119,0,0,1,.992,4.453v10.937H299.2V287.207c0-2.7-.56-4.758-1.665-6.108a6.1,6.1,0,0,0-5-2.037,7.183,7.183,0,0,0-6.484,3.79h-.078v-12.93h-4.551v29.609h4.551V288.77a6.871,6.871,0,0,1,1.367-4.395A4.164,4.164,0,0,1,290.7,282.656ZM259.3,277.207h.077a13.494,13.494,0,0,0,.41,2.734l5.332,19.589h5.253l7.676-28.007h-4.805l-4.98,20.586a15.405,15.405,0,0,0-.45,2.579h-.077a16.276,16.276,0,0,0-.41-2.5l-5.313-20.664h-4.785l-5.742,20.507a15.451,15.451,0,0,0-.547,2.7h-.1a15.074,15.074,0,0,0-.391-2.7l-5.078-20.507h-5.1l7.833,28.007h5.371l5.351-19.628a13.4,13.4,0,0,0,.469-2.695Zm-59.551-1.25h.078c-.181,2.135-.274,3.968-.274,5.45v18.124h4.61V271.524h-6.309l-7.5,18.574c-.3.708-.691,1.812-1.172,3.281h-.1a27.6,27.6,0,0,0-1.094-3.2l-7.364-18.653h-6.543v28.007h4.3V281.445c0-2.523-.053-4.369-.157-5.488h.078a19.479,19.479,0,0,0,.742,2.793l8.379,20.781h3.2l8.359-20.937a18.932,18.932,0,0,0,.761-2.636Zm-47.617-6.035v29.609h4.551V269.922Zm-10.449,0v29.609h4.55V269.922Zm-41.68,1.6v3.945h8.027v24.062h4.649V275.468h8.047v-3.945Zm299.922,24.882a5.27,5.27,0,0,1-4.18-1.806,7.345,7.345,0,0,1-1.563-4.951,7.8,7.8,0,0,1,1.544-5.117,5.193,5.193,0,0,1,4.2-1.856,4.977,4.977,0,0,1,4.111,1.8,8.025,8.025,0,0,1,1.436,5.1,7.9,7.9,0,0,1-1.436,5.058A5,5,0,0,1,399.922,296.406Zm60.687-7.48H453.4l5.116-9.532c.113-.212.225-.436.342-.683s.211-.465.293-.674c.089-.225.162-.42.224-.6a3.831,3.831,0,0,0,.137-.449h.117c-.013.095-.026.236-.039.42s-.022.4-.03.635-.006.48,0,.733.017.485.03.693l1.015,9.453Zm-107.641-1.367h-9.257a6.537,6.537,0,0,1,1.67-3.73,4.412,4.412,0,0,1,3.31-1.427,3.866,3.866,0,0,1,3.125,1.358,5.863,5.863,0,0,1,1.152,3.8Zm-35.7,0h-9.257a6.538,6.538,0,0,1,1.669-3.73,4.416,4.416,0,0,1,3.311-1.427,3.866,3.866,0,0,1,3.125,1.358,5.864,5.864,0,0,1,1.152,3.8Zm-94.16,0h-9.257a6.532,6.532,0,0,1,1.67-3.73,4.412,4.412,0,0,1,3.31-1.427,3.869,3.869,0,0,1,3.126,1.358,5.867,5.867,0,0,1,1.152,3.8Zm-90.117,0H123.73a6.543,6.543,0,0,1,1.67-3.73,4.412,4.412,0,0,1,3.31-1.427,3.866,3.866,0,0,1,3.125,1.358,5.866,5.866,0,0,1,1.153,3.8Z" fill="#a33"/>
</svg>
