<svg xmlns="http://www.w3.org/2000/svg" width="600.058" height="646.148" viewBox="0 0 600.058 646.148">
  <g id="Group_121" data-name="Group 121" transform="translate(179 -2467)">
    <g id="Group_113" data-name="Group 113" transform="translate(-178.973 2467)">
      <path id="Path_254" data-name="Path 254" d="M191.046,415.389l27.289,46.156h0Z" fill="#5d5e5e"/>
      <path id="Path_255" data-name="Path 255" d="M573.131,323.076l-27.283-46.151,0,0Z" fill="#5d5e5e"/>
      <path id="Path_256" data-name="Path 256" d="M300.217,415.389l27.289,46.156v0Z" fill="#5d5e5e"/>
      <path id="Path_257" data-name="Path 257" d="M109.172,184.617l-27.3-46.151Z" fill="#5d5e5e"/>
      <path id="Path_258" data-name="Path 258" d="M327.505,184.615l-27.29-46.149L327.5,184.617Z" fill="#5d5e5e"/>
      <path id="Path_259" data-name="Path 259" d="M573.133,507.693,545.85,461.545l0,0Z" fill="#5d5e5e"/>
      <path id="Path_260" data-name="Path 260" d="M354.806,415.391l27.285,46.154-27.285-46.156Z" fill="#5d5e5e"/>
      <path id="Path_261" data-name="Path 261" d="M218.333,184.617l-27.29-46.151Z" fill="#5d5e5e"/>
      <path id="Path_262" data-name="Path 262" d="M463.971,415.389l-27.3-46.16h0Z" fill="#5d5e5e"/>
      <path id="Path_263" data-name="Path 263" d="M573.131,415.389l-27.281-46.16h0Z" fill="#5d5e5e"/>
      <path id="Path_264" data-name="Path 264" d="M382.087,184.617,354.8,138.466v0Z" fill="#5d5e5e"/>
      <path id="Path_265" data-name="Path 265" d="M463.969,230.77l-27.3-46.153,0,0Z" fill="#5d5e5e"/>
      <path id="Path_266" data-name="Path 266" d="M463.969,323.076l-27.3-46.151,0,0Z" fill="#5d5e5e"/>
      <path id="Path_267" data-name="Path 267" d="M163.753,184.617l-27.291-46.151,27.29,46.151Z" fill="#5d5e5e"/>
      <path id="Path_268" data-name="Path 268" d="M573.129,138.466,545.846,92.308l0,0Z" fill="#5d5e5e"/>
      <path id="Path_269" data-name="Path 269" d="M354.8,230.77l-27.3-46.153v0Z" fill="#5d5e5e"/>
      <path id="Path_270" data-name="Path 270" d="M354.8,230.771l27.285,46.154L354.8,230.77Z" fill="#5d5e5e"/>
      <path id="Path_271" data-name="Path 271" d="M491.244,92.308,463.967,46.157v0Z" fill="#5d5e5e"/>
      <path id="Path_272" data-name="Path 272" d="M354.8,323.078l27.285,46.151L354.8,323.076Z" fill="#5d5e5e"/>
      <path id="Path_273" data-name="Path 273" d="M327.507,369.23l27.3,46.159-27.3-46.16Z" fill="#5d5e5e"/>
      <path id="Path_274" data-name="Path 274" d="M327.5,92.306l-27.29-46.149L327.5,92.308Z" fill="#5d5e5e"/>
      <path id="Path_275" data-name="Path 275" d="M382.087,92.308,354.8,46.157v0Z" fill="#5d5e5e"/>
      <path id="Path_276" data-name="Path 276" d="M272.926,369.229l27.291,46.16v0Z" fill="#5d5e5e"/>
      <path id="Path_277" data-name="Path 277" d="M300.215,230.768l-27.291-46.151,27.291,46.153Z" fill="#5d5e5e"/>
      <path id="Path_278" data-name="Path 278" d="M163.755,369.229l-27.291-46.153,27.29,46.153Z" fill="#5d5e5e"/>
      <path id="Path_279" data-name="Path 279" d="M136.465,323.076l-27.291-46.151Z" fill="#5d5e5e"/>
      <path id="Path_280" data-name="Path 280" d="M136.466,415.389l-27.291-46.16Z" fill="#5d5e5e"/>
      <path id="Path_281" data-name="Path 281" d="M136.465,415.389l27.29,46.156h0Z" fill="#5d5e5e"/>
      <path id="Path_282" data-name="Path 282" d="M573.129,230.77l-27.281-46.153,0,0Z" fill="#5d5e5e"/>
      <path id="Path_283" data-name="Path 283" d="M136.464,230.769l-27.291-46.152,27.291,46.153Z" fill="#5d5e5e"/>
      <path id="Path_284" data-name="Path 284" d="M191.045,230.769l-27.291-46.152,27.291,46.153Z" fill="#5d5e5e"/>
      <path id="Path_285" data-name="Path 285" d="M81.875,230.769,54.584,184.617,81.875,230.77Z" fill="#5d5e5e"/>
      <path id="Path_286" data-name="Path 286" d="M163.754,276.925,136.463,230.77l27.29,46.155Z" fill="#5d5e5e"/>
      <path id="Path_287" data-name="Path 287" d="M300.219,507.693l27.289,46.154v0Z" fill="#5d5e5e"/>
      <path id="Path_288" data-name="Path 288" d="M136.466,507.693l27.29,46.154h0Z" fill="#5d5e5e"/>
      <path id="Path_289" data-name="Path 289" d="M54.582,184.617l-27.29-46.151Z" fill="#5d5e5e"/>
      <path id="Path_290" data-name="Path 290" d="M0,92.308l27.291,46.158h0Z" fill="#5d5e5e"/>
      <path id="Path_291" data-name="Path 291" d="M136.463,138.466,109.172,92.308Z" fill="#5d5e5e"/>
      <path id="Path_292" data-name="Path 292" d="M81.874,138.466,54.583,92.308Z" fill="#5d5e5e"/>
      <path id="Path_293" data-name="Path 293" d="M191.047,507.693l27.29,46.154h0Z" fill="#5d5e5e"/>
      <path id="Path_294" data-name="Path 294" d="M191.044,138.466,163.753,92.308Z" fill="#5d5e5e"/>
      <path id="Path_295" data-name="Path 295" d="M300.215,138.464,272.923,92.308l27.292,46.158Z" fill="#5d5e5e"/>
      <path id="Path_296" data-name="Path 296" d="M54.584,369.229l-27.29-46.153Z" fill="#5d5e5e"/>
      <path id="Path_297" data-name="Path 297" d="M27.3,507.693l27.29,46.154h0Z" fill="#5d5e5e"/>
      <path id="Path_298" data-name="Path 298" d="M463.966,138.468l27.28,46.149-27.279-46.151Z" fill="#5d5e5e"/>
      <path id="Path_299" data-name="Path 299" d="M.006,461.545,27.3,507.693h0Z" fill="#5d5e5e"/>
      <path id="Path_300" data-name="Path 300" d="M0,369.229,27.3,415.389h0Z" fill="#5d5e5e"/>
      <path id="Path_301" data-name="Path 301" d="M0,276.925,27.3,323.076h0Z" fill="#5d5e5e"/>
      <path id="Path_302" data-name="Path 302" d="M0,184.617,27.294,230.77h0Z" fill="#5d5e5e"/>
      <path id="Path_303" data-name="Path 303" d="M81.88,507.693l27.3,46.154h0Z" fill="#5d5e5e"/>
      <path id="Path_304" data-name="Path 304" d="M54.583,276.925,27.293,230.77Z" fill="#5d5e5e"/>
      <path id="Path_305" data-name="Path 305" d="M109.176,461.545l27.291,46.148h0Z" fill="#5d5e5e"/>
      <path id="Path_306" data-name="Path 306" d="M54.587,461.545l27.294,46.148h0Z" fill="#5d5e5e"/>
      <path id="Path_307" data-name="Path 307" d="M109.175,461.545l-27.3-46.156Z" fill="#5d5e5e"/>
      <path id="Path_308" data-name="Path 308" d="M354.806,507.7l27.285,46.152-27.285-46.154Z" fill="#5d5e5e"/>
      <path id="Path_309" data-name="Path 309" d="M109.173,276.925l-27.3-46.155Z" fill="#5d5e5e"/>
      <path id="Path_310" data-name="Path 310" d="M81.88,415.387,54.586,369.229l27.292,46.16Z" fill="#5d5e5e"/>
      <path id="Path_311" data-name="Path 311" d="M81.877,323.076,54.585,276.925Z" fill="#5d5e5e"/>
      <path id="Path_312" data-name="Path 312" d="M109.174,369.229l-27.3-46.153Z" fill="#5d5e5e"/>
      <path id="Path_313" data-name="Path 313" d="M463.968,230.771l27.278,46.154L463.969,230.77Z" fill="#5d5e5e"/>
      <path id="Path_314" data-name="Path 314" d="M463.97,507.7l27.28,46.152-27.279-46.154Z" fill="#5d5e5e"/>
      <path id="Path_315" data-name="Path 315" d="M463.97,415.391l27.278,46.154-27.277-46.156Z" fill="#5d5e5e"/>
      <path id="Path_316" data-name="Path 316" d="M436.668,461.547l27.3,46.146-27.3-46.148Z" fill="#5d5e5e"/>
      <path id="Path_317" data-name="Path 317" d="M463.968,323.078l27.28,46.151-27.279-46.153Z" fill="#5d5e5e"/>
      <path id="Path_318" data-name="Path 318" d="M163.756,369.229l27.291,46.16h0Z" fill="#5d5e5e"/>
      <path id="Path_319" data-name="Path 319" d="M272.927,461.545l27.292,46.148v0Z" fill="#5d5e5e"/>
      <path id="Path_320" data-name="Path 320" d="M163.757,461.545l27.291,46.148h0Z" fill="#5d5e5e"/>
      <path id="Path_321" data-name="Path 321" d="M327.509,461.547l27.3,46.146-27.3-46.148Z" fill="#5d5e5e"/>
      <rect id="Rectangle_31" data-name="Rectangle 31" width="52.775" transform="translate(600.031 460.822) rotate(-120.604)" fill="#5d5e5e"/>
      <path id="Path_322" data-name="Path 322" d="M163.758,553.847,191.049,600h0Z" fill="#5d5e5e"/>
      <path id="Path_323" data-name="Path 323" d="M191.043,46.157,163.752,0Z" fill="#5d5e5e"/>
      <path id="Path_324" data-name="Path 324" d="M.007,553.847,27.3,600h0Z" fill="#5d5e5e"/>
      <path id="Path_325" data-name="Path 325" d="M109.177,553.847,136.468,600h0Z" fill="#5d5e5e"/>
      <path id="Path_326" data-name="Path 326" d="M300.213,46.155,272.922,0l27.291,46.157Z" fill="#5d5e5e"/>
      <path id="Path_327" data-name="Path 327" d="M54.585,461.545,27.3,415.389Z" fill="#5d5e5e"/>
      <path id="Path_328" data-name="Path 328" d="M54.588,553.847,81.882,600h0Z" fill="#5d5e5e"/>
      <path id="Path_329" data-name="Path 329" d="M27.292,46.157,0,0Z" fill="#5d5e5e"/>
      <rect id="Rectangle_32" data-name="Rectangle 32" width="0.011" height="0.001" transform="translate(-0.027 553.838) rotate(56.312)" fill="#5d5e5e"/>
      <rect id="Rectangle_33" data-name="Rectangle 33" width="0.006" height="0.001" transform="translate(-0.001 369.226)" fill="#5d5e5e"/>
      <path id="Path_330" data-name="Path 330" d="M136.462,46.157,109.171,0Z" fill="#5d5e5e"/>
      <rect id="Rectangle_34" data-name="Rectangle 34" width="0.001" height="0.008" transform="translate(0.002 461.538)" fill="#5d5e5e"/>
      <path id="Path_331" data-name="Path 331" d="M81.872,46.157,54.582,0Z" fill="#5d5e5e"/>
      <rect id="Rectangle_35" data-name="Rectangle 35" width="52.791" transform="translate(599.979 91.611) rotate(-120.604)" fill="#5d5e5e"/>
      <rect id="Rectangle_36" data-name="Rectangle 36" width="52.78" transform="translate(599.958 553.121) rotate(-120.604)" fill="#5d5e5e"/>
      <path id="Path_332" data-name="Path 332" d="M354.8,46.157,327.5,0V0Z" fill="#5d5e5e"/>
      <rect id="Rectangle_37" data-name="Rectangle 37" width="52.782" transform="translate(600.006 183.9) rotate(-120.604)" fill="#5d5e5e"/>
      <rect id="Rectangle_38" data-name="Rectangle 38" width="52.785" transform="translate(599.961 368.515) rotate(-120.604)" fill="#5d5e5e"/>
      <rect id="Rectangle_39" data-name="Rectangle 39" width="52.787" transform="translate(599.975 276.213) rotate(-120.604)" fill="#5d5e5e"/>
      <path id="Path_333" data-name="Path 333" d="M545.85,553.849,573.133,600l-27.281-46.153Z" fill="#5d5e5e"/>
      <path id="Path_334" data-name="Path 334" d="M272.928,553.847,300.219,600v0Z" fill="#5d5e5e"/>
      <path id="Path_335" data-name="Path 335" d="M463.967,46.157,436.666,0l0,0Z" fill="#5d5e5e"/>
      <path id="Path_336" data-name="Path 336" d="M573.126,46.157,545.846,0l0,0Z" fill="#5d5e5e"/>
      <path id="Path_337" data-name="Path 337" d="M327.509,553.849,354.81,600l-27.3-46.153Z" fill="#5d5e5e"/>
      <path id="Path_338" data-name="Path 338" d="M218.334,369.229l-27.289-46.153Z" fill="#5d5e5e"/>
      <path id="Path_339" data-name="Path 339" d="M436.67,553.849,463.973,600l-27.3-46.153Z" fill="#5d5e5e"/>
      <path id="Path_340" data-name="Path 340" d="M300.217,323.076l27.289,46.153v0Z" fill="#5d5e5e"/>
      <path id="Path_341" data-name="Path 341" d="M109.171,92.308l-27.3-46.151Z" fill="#5d5e5e"/>
      <path id="Path_342" data-name="Path 342" d="M436.666,92.308l0,0,27.3,46.156Z" fill="#5d5e5e"/>
      <path id="Path_343" data-name="Path 343" d="M300.217,323.074l-27.292-46.149,27.292,46.151Z" fill="#5d5e5e"/>
      <path id="Path_344" data-name="Path 344" d="M327.506,92.308v0l27.3,46.156Z" fill="#5d5e5e"/>
      <rect id="Rectangle_40" data-name="Rectangle 40" width="0.002" height="0.001" transform="translate(0 184.616)" fill="#5d5e5e"/>
      <path id="Path_345" data-name="Path 345" d="M54.581,92.308,27.291,46.157Z" fill="#5d5e5e"/>
      <path id="Path_346" data-name="Path 346" d="M354.8,323.076l-27.3-46.151v0Z" fill="#5d5e5e"/>
      <path id="Path_347" data-name="Path 347" d="M218.332,92.308l-27.29-46.151Z" fill="#5d5e5e"/>
      <path id="Path_348" data-name="Path 348" d="M191.046,323.076l-27.291-46.151Z" fill="#5d5e5e"/>
      <path id="Path_349" data-name="Path 349" d="M327.505,276.923l-27.29-46.153L327.5,276.925Z" fill="#5d5e5e"/>
      <path id="Path_350" data-name="Path 350" d="M163.752,92.308,136.461,46.157l27.29,46.151Z" fill="#5d5e5e"/>
      <path id="Path_351" data-name="Path 351" d="M218.333,276.925,191.044,230.77Z" fill="#5d5e5e"/>
      <rect id="Rectangle_41" data-name="Rectangle 41" width="0.004" height="0.001" transform="translate(-0.001 276.923)" fill="#5d5e5e"/>
      <path id="Path_352" data-name="Path 352" d="M27.291,46.157h0L0,0V46.157Z" fill="#262718"/>
      <path id="Path_353" data-name="Path 353" d="M81.871,46.157h0L54.582,0,27.292,46.157Z" fill="#dedd99"/>
      <path id="Path_354" data-name="Path 354" d="M27.292,46.157Z" fill="#5d5e5e"/>
      <path id="Path_355" data-name="Path 355" d="M81.872,46.157Z" fill="#5d5e5e"/>
      <path id="Path_356" data-name="Path 356" d="M136.461,46.157h0L109.171,0l-27.3,46.157Z" fill="#15353d"/>
      <path id="Path_357" data-name="Path 357" d="M136.462,46.157Z" fill="#5d5e5e"/>
      <path id="Path_358" data-name="Path 358" d="M191.042,46.157h0L163.752,0l-27.29,46.157Z" fill="#15353d"/>
      <path id="Path_359" data-name="Path 359" d="M245.624,46.157,218.332,0,191.043,46.157Z" fill="#b39e42"/>
      <path id="Path_360" data-name="Path 360" d="M191.043,46.157Z" fill="#5d5e5e"/>
      <path id="Path_361" data-name="Path 361" d="M300.213,46.157,272.922,0l-27.3,46.157Z" fill="#dedd99"/>
      <path id="Path_362" data-name="Path 362" d="M300.213,46.155v0h0Z" fill="#5d5e5e"/>
      <path id="Path_363" data-name="Path 363" d="M354.8,46.157,327.5,0,300.215,46.157Z" fill="#15353d"/>
      <path id="Path_364" data-name="Path 364" d="M409.383,46.157,382.087,0,354.8,46.157Z" fill="#b39e42"/>
      <path id="Path_365" data-name="Path 365" d="M463.967,46.157,436.664,0,409.383,46.157Z" fill="#dedd99"/>
      <path id="Path_366" data-name="Path 366" d="M518.544,46.157,491.244,0,463.967,46.157Z" fill="#dedd99"/>
      <path id="Path_367" data-name="Path 367" d="M573.126,46.157,545.843,0l-27.3,46.155Z" fill="#b39e42"/>
      <path id="Path_368" data-name="Path 368" d="M600,46.157V.717l-26.874,45.44Z" fill="#262718"/>
      <path id="Path_369" data-name="Path 369" d="M600,.717V0H545.846l27.28,46.157Z" fill="#301f25"/>
      <path id="Path_370" data-name="Path 370" d="M545.843,0l0,0h-54.6l27.3,46.157Z" fill="#262718"/>
      <path id="Path_371" data-name="Path 371" d="M491.244,0H436.666l27.3,46.157Z" fill="#301f25"/>
      <path id="Path_372" data-name="Path 372" d="M436.664,0l0,0H382.087l27.3,46.157Z" fill="#262718"/>
      <path id="Path_373" data-name="Path 373" d="M382.087,0H327.5l27.3,46.157Z" fill="#b39e42"/>
      <path id="Path_374" data-name="Path 374" d="M300.215,46.157,327.5,0V0H272.922l27.291,46.155Z" fill="#262718"/>
      <path id="Path_375" data-name="Path 375" d="M272.922,0h-54.59l27.292,46.157Z" fill="#301f25"/>
      <path id="Path_376" data-name="Path 376" d="M191.043,46.157,218.332,0h-54.58Z" fill="#262718"/>
      <path id="Path_377" data-name="Path 377" d="M136.462,46.157,163.752,0H109.171Z" fill="#b39e42"/>
      <path id="Path_378" data-name="Path 378" d="M81.874,46.157,109.171,0H54.582l27.29,46.157Z" fill="#262718"/>
      <path id="Path_379" data-name="Path 379" d="M27.292,46.157,54.582,0H0Z" fill="#262718"/>
      <path id="Path_380" data-name="Path 380" d="M54.581,92.308,27.291,46.157,0,92.308H54.581Z" fill="#b39e42"/>
      <path id="Path_381" data-name="Path 381" d="M54.581,92.308Z" fill="#5d5e5e"/>
      <path id="Path_382" data-name="Path 382" d="M54.583,92.308h54.588l-27.3-46.151L54.582,92.308Z" fill="#301f25"/>
      <path id="Path_383" data-name="Path 383" d="M109.171,92.308Z" fill="#5d5e5e"/>
      <path id="Path_384" data-name="Path 384" d="M109.172,92.308h54.579l-27.29-46.151-27.29,46.151Z" fill="#301f25"/>
      <path id="Path_385" data-name="Path 385" d="M163.753,92.308h54.579l-27.29-46.151-27.29,46.151Z" fill="#262718"/>
      <path id="Path_386" data-name="Path 386" d="M163.752,92.308h0Z" fill="#5d5e5e"/>
      <path id="Path_387" data-name="Path 387" d="M218.333,92.308h54.589l-27.3-46.151L218.332,92.308Z" fill="#b39e42"/>
      <path id="Path_388" data-name="Path 388" d="M218.332,92.308Z" fill="#5d5e5e"/>
      <path id="Path_389" data-name="Path 389" d="M272.923,92.308H327.5L300.213,46.157,272.922,92.308Z" fill="#301f25"/>
      <path id="Path_390" data-name="Path 390" d="M382.087,92.308,354.8,46.159,327.5,92.308h54.583Z" fill="#15353d"/>
      <path id="Path_391" data-name="Path 391" d="M327.5,92.306v0h0Z" fill="#5d5e5e"/>
      <path id="Path_392" data-name="Path 392" d="M436.664,92.308,409.383,46.157l-27.3,46.151Z" fill="#262718"/>
      <path id="Path_393" data-name="Path 393" d="M491.244,92.308,463.966,46.159l-27.3,46.149h54.58Z" fill="#b39e42"/>
      <path id="Path_394" data-name="Path 394" d="M491.246,92.308h54.6l-27.3-46.151-27.3,46.151Z" fill="#15353d"/>
      <path id="Path_395" data-name="Path 395" d="M545.843,92.308H600V91.6L573.126,46.159Z" fill="#b39e42"/>
      <path id="Path_396" data-name="Path 396" d="M600,91.6V46.157H573.126Z" fill="#15353d"/>
      <path id="Path_397" data-name="Path 397" d="M573.126,46.159v0H518.544l27.3,46.151Z" fill="#301f25"/>
      <path id="Path_398" data-name="Path 398" d="M518.544,46.157H463.967l27.277,46.151Z" fill="#262718"/>
      <path id="Path_399" data-name="Path 399" d="M463.966,46.159v0H409.383l27.281,46.151Z" fill="#262718"/>
      <path id="Path_400" data-name="Path 400" d="M409.383,46.157H354.8l27.285,46.151Z" fill="#301f25"/>
      <path id="Path_401" data-name="Path 401" d="M327.5,92.308l27.3-46.149v0H300.213L327.5,92.306Z" fill="#dedd99"/>
      <path id="Path_402" data-name="Path 402" d="M300.213,46.157H245.624l27.3,46.151Z" fill="#262718"/>
      <path id="Path_403" data-name="Path 403" d="M218.332,92.308l27.292-46.151H191.042Z" fill="#262718"/>
      <path id="Path_404" data-name="Path 404" d="M163.752,92.308l27.29-46.151H136.461Z" fill="#15353d"/>
      <path id="Path_405" data-name="Path 405" d="M109.171,92.308l27.29-46.151H81.871Z" fill="#262718"/>
      <path id="Path_406" data-name="Path 406" d="M54.582,92.308,81.871,46.157H27.291l27.29,46.151Z" fill="#dedd99"/>
      <path id="Path_407" data-name="Path 407" d="M0,46.157V92.308L27.291,46.157Z" fill="#15353d"/>
      <path id="Path_408" data-name="Path 408" d="M27.293,138.466,0,92.308l0,0v46.156H27.292Z" fill="#301f25"/>
      <path id="Path_409" data-name="Path 409" d="M27.293,138.466Z" fill="#5d5e5e"/>
      <path id="Path_410" data-name="Path 410" d="M81.874,138.466h0L54.583,92.308l-27.29,46.158Z" fill="#301f25"/>
      <path id="Path_411" data-name="Path 411" d="M81.874,138.466Z" fill="#5d5e5e"/>
      <path id="Path_412" data-name="Path 412" d="M136.462,138.466h0L109.172,92.308l-27.3,46.158Z" fill="#b39e42"/>
      <path id="Path_413" data-name="Path 413" d="M136.463,138.466Z" fill="#5d5e5e"/>
      <path id="Path_414" data-name="Path 414" d="M191.043,138.466h0L163.753,92.308l-27.29,46.158Z" fill="#15353d"/>
      <path id="Path_415" data-name="Path 415" d="M191.044,138.466Z" fill="#5d5e5e"/>
      <path id="Path_416" data-name="Path 416" d="M245.625,138.466,218.333,92.308l-27.289,46.158Z" fill="#301f25"/>
      <path id="Path_417" data-name="Path 417" d="M300.215,138.466,272.923,92.308l-27.3,46.158Z" fill="#15353d"/>
      <path id="Path_418" data-name="Path 418" d="M300.215,138.464v0h0Z" fill="#5d5e5e"/>
      <path id="Path_419" data-name="Path 419" d="M354.8,138.466l-27.3-46.156-27.288,46.156Z" fill="#301f25"/>
      <path id="Path_420" data-name="Path 420" d="M409.385,138.466l-27.3-46.158L354.8,138.466Z" fill="#15353d"/>
      <path id="Path_421" data-name="Path 421" d="M463.967,138.466l-27.3-46.156-27.279,46.156Z" fill="#15353d"/>
      <path id="Path_422" data-name="Path 422" d="M518.546,138.466l-27.3-46.158-27.279,46.158Z" fill="#dedd99"/>
      <path id="Path_423" data-name="Path 423" d="M518.546,138.466h54.583L545.843,92.31Z" fill="#dedd99"/>
      <path id="Path_424" data-name="Path 424" d="M600,138.466V93.029l-26.871,45.437Z" fill="#301f25"/>
      <path id="Path_425" data-name="Path 425" d="M573.129,138.466,600,93.029v-.721H545.846Z" fill="#262718"/>
      <path id="Path_426" data-name="Path 426" d="M518.546,138.466l27.3-46.156,0,0h-54.6Z" fill="#262718"/>
      <path id="Path_427" data-name="Path 427" d="M463.967,138.466l27.279-46.158h-54.58Z" fill="#301f25"/>
      <path id="Path_428" data-name="Path 428" d="M436.664,92.31l0,0H382.087l27.3,46.158Z" fill="#dedd99"/>
      <path id="Path_429" data-name="Path 429" d="M354.8,138.466l27.285-46.158H327.506Z" fill="#dedd99"/>
      <path id="Path_430" data-name="Path 430" d="M300.217,138.466,327.505,92.31v0H272.923l27.292,46.156Z" fill="#b39e42"/>
      <path id="Path_431" data-name="Path 431" d="M272.923,92.308h-54.59l27.292,46.158Z" fill="#301f25"/>
      <path id="Path_432" data-name="Path 432" d="M191.044,138.466l27.289-46.158h-54.58Z" fill="#dedd99"/>
      <path id="Path_433" data-name="Path 433" d="M136.463,138.466l27.29-46.158H109.172Z" fill="#15353d"/>
      <path id="Path_434" data-name="Path 434" d="M81.875,138.466l27.3-46.158H54.583l27.291,46.158Z" fill="#15353d"/>
      <path id="Path_435" data-name="Path 435" d="M27.293,138.466l27.29-46.158H0Z" fill="#dedd99"/>
      <path id="Path_436" data-name="Path 436" d="M0,92.308v0l0,0Z" fill="#5d5e5e"/>
      <path id="Path_437" data-name="Path 437" d="M0,184.616H0Z" fill="#5d5e5e"/>
      <path id="Path_438" data-name="Path 438" d="M0,184.617H0Z" fill="#5d5e5e"/>
      <path id="Path_439" data-name="Path 439" d="M27.292,138.466,0,184.617h54.58Z" fill="#262718"/>
      <path id="Path_440" data-name="Path 440" d="M81.874,138.466,54.583,184.617h54.589Z" fill="#b39e42"/>
      <path id="Path_441" data-name="Path 441" d="M54.582,184.617h0Z" fill="#5d5e5e"/>
      <path id="Path_442" data-name="Path 442" d="M109.173,184.617h54.579l-27.29-46.151-27.29,46.151Z" fill="#b39e42"/>
      <path id="Path_443" data-name="Path 443" d="M109.172,184.617Z" fill="#5d5e5e"/>
      <path id="Path_444" data-name="Path 444" d="M163.753,184.617h0Z" fill="#5d5e5e"/>
      <path id="Path_445" data-name="Path 445" d="M163.754,184.617h54.579l-27.29-46.151-27.29,46.151Z" fill="#262718"/>
      <path id="Path_446" data-name="Path 446" d="M218.334,184.617h54.589l-27.3-46.151-27.292,46.151Z" fill="#15353d"/>
      <path id="Path_447" data-name="Path 447" d="M218.333,184.617Z" fill="#5d5e5e"/>
      <path id="Path_448" data-name="Path 448" d="M272.924,184.617H327.5l-27.289-46.151-27.292,46.151Z" fill="#301f25"/>
      <path id="Path_449" data-name="Path 449" d="M327.505,184.615v0h0Z" fill="#5d5e5e"/>
      <path id="Path_450" data-name="Path 450" d="M354.8,138.468l-27.3,46.149h54.581Z" fill="#15353d"/>
      <path id="Path_451" data-name="Path 451" d="M382.089,184.617h54.575l-27.279-46.151-27.3,46.151Z" fill="#15353d"/>
      <path id="Path_452" data-name="Path 452" d="M436.664,184.617h54.582l-27.28-46.149Z" fill="#301f25"/>
      <path id="Path_453" data-name="Path 453" d="M491.246,184.617h54.6l-27.3-46.151Z" fill="#262718"/>
      <path id="Path_454" data-name="Path 454" d="M545.843,184.617H600V183.9l-26.872-45.43Z" fill="#b39e42"/>
      <path id="Path_455" data-name="Path 455" d="M600,183.9V138.466H573.129Z" fill="#262718"/>
      <path id="Path_456" data-name="Path 456" d="M518.546,138.466l27.3,46.151,27.285-46.149v0Z" fill="#b39e42"/>
      <path id="Path_457" data-name="Path 457" d="M491.246,184.617l27.3-46.151H463.967Z" fill="#262718"/>
      <path id="Path_458" data-name="Path 458" d="M463.966,138.468v0H409.385l27.279,46.151Z" fill="#301f25"/>
      <path id="Path_459" data-name="Path 459" d="M409.385,138.466H354.8l27.285,46.151Z" fill="#262718"/>
      <path id="Path_460" data-name="Path 460" d="M327.506,184.617l27.3-46.149v0H300.215l27.29,46.149Z" fill="#b39e42"/>
      <path id="Path_461" data-name="Path 461" d="M300.215,138.466h-54.59l27.3,46.151Z" fill="#262718"/>
      <path id="Path_462" data-name="Path 462" d="M218.333,184.617l27.292-46.151H191.043Z" fill="#dedd99"/>
      <path id="Path_463" data-name="Path 463" d="M163.753,184.617l27.29-46.151H136.462Z" fill="#301f25"/>
      <path id="Path_464" data-name="Path 464" d="M109.172,184.617l27.29-46.151H81.874Z" fill="#262718"/>
      <path id="Path_465" data-name="Path 465" d="M54.583,184.617l27.291-46.151H27.292l27.29,46.151Z" fill="#dedd99"/>
      <path id="Path_466" data-name="Path 466" d="M0,184.617l27.29-46.151H0v46.151Z" fill="#262718"/>
      <path id="Path_467" data-name="Path 467" d="M27.294,230.77,0,184.617l0,0V230.77H27.293Z" fill="#262718"/>
      <path id="Path_468" data-name="Path 468" d="M54.584,184.617,27.294,230.77H81.875Z" fill="#15353d"/>
      <path id="Path_469" data-name="Path 469" d="M27.294,230.769h0Z" fill="#5d5e5e"/>
      <path id="Path_470" data-name="Path 470" d="M81.875,230.77h0Z" fill="#5d5e5e"/>
      <path id="Path_471" data-name="Path 471" d="M109.173,184.617l-27.3,46.153h54.587Z" fill="#dedd99"/>
      <path id="Path_472" data-name="Path 472" d="M191.044,230.77h0l-27.291-46.153-27.29,46.153Z" fill="#15353d"/>
      <path id="Path_473" data-name="Path 473" d="M136.464,230.77Z" fill="#5d5e5e"/>
      <path id="Path_474" data-name="Path 474" d="M191.045,230.769h0Z" fill="#5d5e5e"/>
      <path id="Path_475" data-name="Path 475" d="M245.626,230.77l-27.292-46.153L191.045,230.77Z" fill="#262718"/>
      <path id="Path_476" data-name="Path 476" d="M300.215,230.77l-27.291-46.153-27.3,46.153Z" fill="#15353d"/>
      <path id="Path_477" data-name="Path 477" d="M354.8,230.77l-27.3-46.151L300.217,230.77Z" fill="#301f25"/>
      <path id="Path_478" data-name="Path 478" d="M300.215,230.768v0h0Z" fill="#5d5e5e"/>
      <path id="Path_479" data-name="Path 479" d="M409.385,230.77l-27.3-46.153L354.8,230.77Z" fill="#262718"/>
      <path id="Path_480" data-name="Path 480" d="M409.385,230.77h54.584l-27.3-46.151Z" fill="#15353d"/>
      <path id="Path_481" data-name="Path 481" d="M518.546,230.77l-27.3-46.153L463.969,230.77Z" fill="#b39e42"/>
      <path id="Path_482" data-name="Path 482" d="M518.546,230.77h54.583l-27.283-46.151Z" fill="#dedd99"/>
      <path id="Path_483" data-name="Path 483" d="M600,230.77V185.334L573.129,230.77Z" fill="#262718"/>
      <path id="Path_484" data-name="Path 484" d="M573.129,230.77,600,185.334v-.717H545.848Z" fill="#dedd99"/>
      <path id="Path_485" data-name="Path 485" d="M518.546,230.77l27.3-46.151,0,0h-54.6Z" fill="#15353d"/>
      <path id="Path_486" data-name="Path 486" d="M463.969,230.77l27.277-46.153H436.668Z" fill="#262718"/>
      <path id="Path_487" data-name="Path 487" d="M409.385,230.77l27.281-46.151,0,0H382.089Z" fill="#dedd99"/>
      <path id="Path_488" data-name="Path 488" d="M382.089,184.617H327.506l27.3,46.153Z" fill="#b39e42"/>
      <path id="Path_489" data-name="Path 489" d="M300.217,230.77l27.288-46.151v0H272.924l27.291,46.151Z" fill="#dedd99"/>
      <path id="Path_490" data-name="Path 490" d="M272.924,184.617h-54.59l27.292,46.153Z" fill="#301f25"/>
      <path id="Path_491" data-name="Path 491" d="M191.045,230.77l27.289-46.153h-54.58l27.291,46.152Z" fill="#dedd99"/>
      <path id="Path_492" data-name="Path 492" d="M136.464,230.77l27.29-46.153H109.173l27.291,46.152Z" fill="#b39e42"/>
      <path id="Path_493" data-name="Path 493" d="M81.877,230.77l27.3-46.153H54.584l27.291,46.152Z" fill="#262718"/>
      <path id="Path_494" data-name="Path 494" d="M27.294,230.77l27.29-46.153H0l27.291,46.152Z" fill="#262718"/>
      <path id="Path_495" data-name="Path 495" d="M0,184.617H0v0l0,0Z" fill="#5d5e5e"/>
      <path id="Path_496" data-name="Path 496" d="M0,276.923v0H0Z" fill="#5d5e5e"/>
      <path id="Path_497" data-name="Path 497" d="M0,276.925H0Z" fill="#5d5e5e"/>
      <path id="Path_498" data-name="Path 498" d="M27.293,230.77,0,276.925h54.58Z" fill="#dedd99"/>
      <path id="Path_499" data-name="Path 499" d="M81.875,230.77,54.584,276.925h54.589Z" fill="#b39e42"/>
      <path id="Path_500" data-name="Path 500" d="M54.583,276.925h0Z" fill="#5d5e5e"/>
      <path id="Path_501" data-name="Path 501" d="M109.173,276.925Z" fill="#5d5e5e"/>
      <path id="Path_502" data-name="Path 502" d="M136.463,230.77l-27.29,46.155h54.58Z" fill="#15353d"/>
      <path id="Path_503" data-name="Path 503" d="M191.044,230.77l-27.29,46.155h54.579Z" fill="#301f25"/>
      <path id="Path_504" data-name="Path 504" d="M163.753,276.925h0Z" fill="#5d5e5e"/>
      <path id="Path_505" data-name="Path 505" d="M218.335,276.925h54.589l-27.3-46.155-27.292,46.155Z" fill="#dedd99"/>
      <path id="Path_506" data-name="Path 506" d="M218.333,276.925h0Z" fill="#5d5e5e"/>
      <path id="Path_507" data-name="Path 507" d="M272.925,276.925H327.5L300.215,230.77l-27.291,46.155Z" fill="#dedd99"/>
      <path id="Path_508" data-name="Path 508" d="M327.5,276.925h0v0Z" fill="#5d5e5e"/>
      <path id="Path_509" data-name="Path 509" d="M327.506,276.925h54.583L354.8,230.771Z" fill="#dedd99"/>
      <path id="Path_510" data-name="Path 510" d="M382.089,276.925h54.577L409.385,230.77Z" fill="#262718"/>
      <path id="Path_511" data-name="Path 511" d="M436.666,276.925h54.58l-27.278-46.154Z" fill="#dedd99"/>
      <path id="Path_512" data-name="Path 512" d="M491.246,276.925h54.6l-27.3-46.155Z" fill="#15353d"/>
      <path id="Path_513" data-name="Path 513" d="M545.846,276.925H600v-.718l-26.872-45.436Z" fill="#262718"/>
      <path id="Path_514" data-name="Path 514" d="M600,276.207V230.77H573.129Z" fill="#301f25"/>
      <path id="Path_515" data-name="Path 515" d="M518.546,230.77l27.3,46.155,27.282-46.154H518.546Z" fill="#dedd99"/>
      <path id="Path_516" data-name="Path 516" d="M491.246,276.925l27.3-46.155H463.969Z" fill="#301f25"/>
      <path id="Path_517" data-name="Path 517" d="M409.385,230.77l27.281,46.155,27.3-46.154H409.385Z" fill="#15353d"/>
      <path id="Path_518" data-name="Path 518" d="M382.089,276.925l27.3-46.155H354.8Z" fill="#b39e42"/>
      <path id="Path_519" data-name="Path 519" d="M327.506,276.925l27.3-46.154H300.215l27.29,46.153Z" fill="#301f25"/>
      <path id="Path_520" data-name="Path 520" d="M300.215,230.77H245.626l27.3,46.155Z" fill="#301f25"/>
      <path id="Path_521" data-name="Path 521" d="M218.334,276.925l27.292-46.155H191.044l27.289,46.155Z" fill="#b39e42"/>
      <path id="Path_522" data-name="Path 522" d="M163.754,276.925l27.29-46.155H136.463Z" fill="#b39e42"/>
      <path id="Path_523" data-name="Path 523" d="M109.173,276.925l27.29-46.155H81.875Z" fill="#301f25"/>
      <path id="Path_524" data-name="Path 524" d="M54.584,276.925,81.875,230.77H27.293l27.29,46.155Z" fill="#262718"/>
      <path id="Path_525" data-name="Path 525" d="M0,276.925l27.29-46.155H0v46.152l0,0Z" fill="#301f25"/>
      <path id="Path_526" data-name="Path 526" d="M27.3,323.076,0,276.925l0,.005v46.146H27.294Z" fill="#262718"/>
      <path id="Path_527" data-name="Path 527" d="M27.3,323.076Z" fill="#5d5e5e"/>
      <path id="Path_528" data-name="Path 528" d="M54.585,276.925,27.3,323.076H81.877Z" fill="#15353d"/>
      <path id="Path_529" data-name="Path 529" d="M109.174,276.925l-27.3,46.151h54.587Z" fill="#b39e42"/>
      <path id="Path_530" data-name="Path 530" d="M81.877,323.076h0Z" fill="#5d5e5e"/>
      <path id="Path_531" data-name="Path 531" d="M163.755,276.925l-27.29,46.151h54.581Z" fill="#262718"/>
      <path id="Path_532" data-name="Path 532" d="M136.465,323.076Z" fill="#5d5e5e"/>
      <path id="Path_533" data-name="Path 533" d="M191.046,323.076Z" fill="#5d5e5e"/>
      <path id="Path_534" data-name="Path 534" d="M191.046,323.076h54.581l-27.292-46.151Z" fill="#dedd99"/>
      <path id="Path_535" data-name="Path 535" d="M272.925,276.925l-27.3,46.151h54.59Z" fill="#262718"/>
      <path id="Path_536" data-name="Path 536" d="M300.219,323.076H354.8l-27.3-46.149Z" fill="#301f25"/>
      <path id="Path_537" data-name="Path 537" d="M300.219,323.076l0,0v0Z" fill="#5d5e5e"/>
      <path id="Path_538" data-name="Path 538" d="M409.387,323.076l-27.3-46.151L354.8,323.076Z" fill="#dedd99"/>
      <path id="Path_539" data-name="Path 539" d="M409.387,323.076h54.582l-27.3-46.149Z" fill="#dedd99"/>
      <path id="Path_540" data-name="Path 540" d="M518.548,323.076l-27.3-46.151-27.279,46.151Z" fill="#301f25"/>
      <path id="Path_541" data-name="Path 541" d="M518.548,323.076h54.583l-27.285-46.149Z" fill="#15353d"/>
      <path id="Path_542" data-name="Path 542" d="M600,323.076V277.645l-26.869,45.431Z" fill="#262718"/>
      <path id="Path_543" data-name="Path 543" d="M573.131,323.076,600,277.645v-.72H545.848Z" fill="#b39e42"/>
      <path id="Path_544" data-name="Path 544" d="M518.548,323.076l27.3-46.149,0,0h-54.6Z" fill="#262718"/>
      <path id="Path_545" data-name="Path 545" d="M463.969,323.076l27.279-46.151h-54.58Z" fill="#15353d"/>
      <path id="Path_546" data-name="Path 546" d="M409.387,323.076l27.279-46.149,0,0H382.089Z" fill="#301f25"/>
      <path id="Path_547" data-name="Path 547" d="M354.8,323.076l27.285-46.151H327.508Z" fill="#15353d"/>
      <path id="Path_548" data-name="Path 548" d="M272.925,276.925l27.292,46.149,0,0,27.288-46.149v0H272.925Z" fill="#b39e42"/>
      <path id="Path_549" data-name="Path 549" d="M272.924,276.925H218.335l27.292,46.151,27.3-46.151Z" fill="#262718"/>
      <path id="Path_550" data-name="Path 550" d="M191.046,323.076l27.289-46.151h-54.58Z" fill="#b39e42"/>
      <path id="Path_551" data-name="Path 551" d="M136.465,323.076l27.29-46.151H109.174Z" fill="#dedd99"/>
      <path id="Path_552" data-name="Path 552" d="M81.878,323.076l27.3-46.151H54.585l27.292,46.151Z" fill="#dedd99"/>
      <path id="Path_553" data-name="Path 553" d="M27.3,323.076l27.29-46.151H0Z" fill="#262718"/>
      <path id="Path_554" data-name="Path 554" d="M26.869,600l27.283,46.15,0,0Z" fill="#5d5e5e"/>
      <path id="Path_555" data-name="Path 555" d="M136.031,600l27.3,46.15,0,0Z" fill="#5d5e5e"/>
      <path id="Path_556" data-name="Path 556" d="M463.535,600l27.291,46.15Z" fill="#5d5e5e"/>
      <path id="Path_557" data-name="Path 557" d="M600,646.148,572.705,600h0Z" fill="#5d5e5e"/>
      <path id="Path_558" data-name="Path 558" d="M518.123,600l27.292,46.15Z" fill="#5d5e5e"/>
      <path id="Path_559" data-name="Path 559" d="M299.783,600l27.292,46.148L299.783,600Z" fill="#5d5e5e"/>
      <path id="Path_560" data-name="Path 560" d="M245.2,600l27.3,46.15v0Z" fill="#5d5e5e"/>
      <path id="Path_561" data-name="Path 561" d="M408.954,600l27.291,46.15Z" fill="#5d5e5e"/>
      <path id="Path_562" data-name="Path 562" d="M572.705,600,600,646.148l0,0V600Z" fill="#262718"/>
      <path id="Path_563" data-name="Path 563" d="M545.415,646.148,572.705,600H518.123Z" fill="#b39e42"/>
      <path id="Path_564" data-name="Path 564" d="M490.826,646.148,518.121,600H463.535Z" fill="#15353d"/>
      <path id="Path_565" data-name="Path 565" d="M436.245,646.148,463.535,600H408.954Z" fill="#dedd99"/>
      <path id="Path_566" data-name="Path 566" d="M408.954,600H354.373l27.292,46.15Z" fill="#dedd99"/>
      <path id="Path_567" data-name="Path 567" d="M327.075,646.148l27.3-46.15h-54.59Z" fill="#262718"/>
      <path id="Path_568" data-name="Path 568" d="M299.781,600H245.2l27.3,46.148Z" fill="#15353d"/>
      <path id="Path_569" data-name="Path 569" d="M190.613,600l27.3,46.15L245.2,600Z" fill="#b39e42"/>
      <path id="Path_570" data-name="Path 570" d="M190.613,600H136.031l27.3,46.148Z" fill="#b39e42"/>
      <path id="Path_571" data-name="Path 571" d="M81.452,600l27.3,46.15L136.031,600Z" fill="#15353d"/>
      <path id="Path_572" data-name="Path 572" d="M81.452,600H26.869l27.285,46.148Z" fill="#262718"/>
      <path id="Path_573" data-name="Path 573" d="M0,600V645.43L26.869,600Z" fill="#262718"/>
      <path id="Path_574" data-name="Path 574" d="M26.869,600,0,645.43v.718H54.152Z" fill="#b39e42"/>
      <path id="Path_575" data-name="Path 575" d="M81.452,600l-27.3,46.148,0,0h54.6Z" fill="#15353d"/>
      <path id="Path_576" data-name="Path 576" d="M136.031,600l-27.279,46.15h54.58Z" fill="#262718"/>
      <path id="Path_577" data-name="Path 577" d="M190.613,600l-27.279,46.148,0,0h54.579Z" fill="#301f25"/>
      <path id="Path_578" data-name="Path 578" d="M245.2,600l-27.285,46.15h54.581Z" fill="#dedd99"/>
      <path id="Path_579" data-name="Path 579" d="M327.075,646.148,299.783,600l0,0-27.288,46.148v0h54.583Z" fill="#15353d"/>
      <path id="Path_580" data-name="Path 580" d="M327.076,646.148h54.589L354.373,600l-27.3,46.15Z" fill="#b39e42"/>
      <path id="Path_581" data-name="Path 581" d="M408.954,600l-27.289,46.15h54.58Z" fill="#301f25"/>
      <path id="Path_582" data-name="Path 582" d="M463.535,600l-27.29,46.15h54.581Z" fill="#15353d"/>
      <path id="Path_583" data-name="Path 583" d="M518.121,600l-27.295,46.15h54.589L518.123,600Z" fill="#301f25"/>
      <path id="Path_584" data-name="Path 584" d="M572.705,600l-27.29,46.15H600Z" fill="#b39e42"/>
      <path id="Path_585" data-name="Path 585" d="M0,276.925H0v.005l0-.005Z" fill="#5d5e5e"/>
      <path id="Path_586" data-name="Path 586" d="M0,369.225v0H0Z" fill="#5d5e5e"/>
      <path id="Path_587" data-name="Path 587" d="M0,369.229H0Z" fill="#5d5e5e"/>
      <path id="Path_588" data-name="Path 588" d="M27.294,323.076,0,369.229h54.58Z" fill="#b39e42"/>
      <path id="Path_589" data-name="Path 589" d="M81.877,323.076,54.585,369.229h54.589Z" fill="#262718"/>
      <path id="Path_590" data-name="Path 590" d="M54.584,369.229h0Z" fill="#5d5e5e"/>
      <path id="Path_591" data-name="Path 591" d="M109.174,369.229Z" fill="#5d5e5e"/>
      <path id="Path_592" data-name="Path 592" d="M136.464,323.076l-27.29,46.153h54.58Z" fill="#dedd99"/>
      <path id="Path_593" data-name="Path 593" d="M191.045,323.076l-27.29,46.153h54.579Z" fill="#301f25"/>
      <path id="Path_594" data-name="Path 594" d="M163.754,369.229h0Z" fill="#5d5e5e"/>
      <path id="Path_595" data-name="Path 595" d="M218.335,369.229h54.59l-27.3-46.153Z" fill="#15353d"/>
      <path id="Path_596" data-name="Path 596" d="M218.334,369.229h0Z" fill="#5d5e5e"/>
      <path id="Path_597" data-name="Path 597" d="M272.925,369.229h54.581l-27.289-46.153Z" fill="#dedd99"/>
      <path id="Path_598" data-name="Path 598" d="M327.506,369.229h0v0Z" fill="#5d5e5e"/>
      <path id="Path_599" data-name="Path 599" d="M327.508,369.229h54.581L354.8,323.078Z" fill="#b39e42"/>
      <path id="Path_600" data-name="Path 600" d="M382.089,369.229h54.577l-27.279-46.153Z" fill="#301f25"/>
      <path id="Path_601" data-name="Path 601" d="M436.666,369.229h54.582l-27.28-46.151Z" fill="#301f25"/>
      <path id="Path_602" data-name="Path 602" d="M491.248,369.229h54.6l-27.3-46.153Z" fill="#dedd99"/>
      <path id="Path_603" data-name="Path 603" d="M545.846,369.229H600v-.717l-26.87-45.434Z" fill="#dedd99"/>
      <path id="Path_604" data-name="Path 604" d="M600,368.512V323.076H573.131Z" fill="#b39e42"/>
      <path id="Path_605" data-name="Path 605" d="M518.548,323.076l27.3,46.153,27.284-46.151v0Z" fill="#262718"/>
      <path id="Path_606" data-name="Path 606" d="M491.248,369.229l27.3-46.153H463.969Z" fill="#262718"/>
      <path id="Path_607" data-name="Path 607" d="M409.387,323.076l27.279,46.153,27.3-46.151v0Z" fill="#b39e42"/>
      <path id="Path_608" data-name="Path 608" d="M382.089,369.229l27.3-46.153H354.8Z" fill="#b39e42"/>
      <path id="Path_609" data-name="Path 609" d="M300.219,323.076h0l27.29,46.151v0l27.3-46.151v0Z" fill="#301f25"/>
      <path id="Path_610" data-name="Path 610" d="M245.627,323.076l27.3,46.153,27.292-46.153Z" fill="#15353d"/>
      <path id="Path_611" data-name="Path 611" d="M218.335,369.229l27.292-46.153H191.045l27.289,46.153Z" fill="#301f25"/>
      <path id="Path_612" data-name="Path 612" d="M163.755,369.229l27.29-46.153H136.464Z" fill="#15353d"/>
      <path id="Path_613" data-name="Path 613" d="M109.174,369.229l27.29-46.153H81.877Z" fill="#15353d"/>
      <path id="Path_614" data-name="Path 614" d="M54.585,369.229l27.292-46.153H27.294l27.29,46.153Z" fill="#dedd99"/>
      <path id="Path_615" data-name="Path 615" d="M0,369.229l27.29-46.153H0v46.148l0,.005Z" fill="#b39e42"/>
      <path id="Path_616" data-name="Path 616" d="M27.3,415.389,0,369.229l0,.006v46.154H27.3Z" fill="#15353d"/>
      <path id="Path_617" data-name="Path 617" d="M27.3,415.389Z" fill="#5d5e5e"/>
      <path id="Path_618" data-name="Path 618" d="M54.586,369.229,27.3,415.389H81.878Z" fill="#301f25"/>
      <path id="Path_619" data-name="Path 619" d="M81.878,415.389h0v0Z" fill="#5d5e5e"/>
      <path id="Path_620" data-name="Path 620" d="M109.175,369.229l-27.3,46.16h54.586Z" fill="#301f25"/>
      <path id="Path_621" data-name="Path 621" d="M136.466,415.389h54.581l-27.291-46.16Z" fill="#15353d"/>
      <path id="Path_622" data-name="Path 622" d="M136.466,415.389Z" fill="#5d5e5e"/>
      <path id="Path_623" data-name="Path 623" d="M191.047,415.389h54.581l-27.292-46.16Z" fill="#dedd99"/>
      <path id="Path_624" data-name="Path 624" d="M191.047,415.389Z" fill="#5d5e5e"/>
      <path id="Path_625" data-name="Path 625" d="M245.628,415.389h54.589l-27.291-46.16Z" fill="#301f25"/>
      <path id="Path_626" data-name="Path 626" d="M300.219,415.389h54.587l-27.3-46.159Z" fill="#301f25"/>
      <path id="Path_627" data-name="Path 627" d="M300.217,415.389h0l0,0Z" fill="#5d5e5e"/>
      <path id="Path_628" data-name="Path 628" d="M409.387,415.389l-27.3-46.16-27.285,46.16Z" fill="#b39e42"/>
      <path id="Path_629" data-name="Path 629" d="M409.387,415.389h54.584l-27.3-46.159Z" fill="#262718"/>
      <path id="Path_630" data-name="Path 630" d="M518.548,415.389l-27.3-46.16-27.277,46.16Z" fill="#262718"/>
      <path id="Path_631" data-name="Path 631" d="M518.548,415.389h54.583L545.848,369.23Z" fill="#dedd99"/>
      <path id="Path_632" data-name="Path 632" d="M600,415.389V369.957l-26.869,45.432Z" fill="#15353d"/>
      <path id="Path_633" data-name="Path 633" d="M573.131,415.389,600,369.957v-.728H545.85Z" fill="#15353d"/>
      <path id="Path_634" data-name="Path 634" d="M518.548,415.389l27.3-46.159h-54.6Z" fill="#b39e42"/>
      <path id="Path_635" data-name="Path 635" d="M463.971,415.389l27.277-46.16H436.67Z" fill="#b39e42"/>
      <path id="Path_636" data-name="Path 636" d="M409.387,415.389l27.281-46.159H382.091Z" fill="#dedd99"/>
      <path id="Path_637" data-name="Path 637" d="M354.806,415.389l27.285-46.16H327.508Z" fill="#262718"/>
      <path id="Path_638" data-name="Path 638" d="M327.508,369.229H272.926l27.291,46.158,0,0,27.288-46.159Z" fill="#dedd99"/>
      <path id="Path_639" data-name="Path 639" d="M272.925,369.229H218.336l27.292,46.16,27.3-46.16Z" fill="#301f25"/>
      <path id="Path_640" data-name="Path 640" d="M218.335,369.229H163.756l27.291,46.16h0l27.289-46.16Z" fill="#262718"/>
      <path id="Path_641" data-name="Path 641" d="M136.466,415.389l27.29-46.16H109.175Z" fill="#262718"/>
      <path id="Path_642" data-name="Path 642" d="M81.88,415.389l27.3-46.16H54.586L81.88,415.387Z" fill="#301f25"/>
      <path id="Path_643" data-name="Path 643" d="M27.3,415.389l27.29-46.16H0Z" fill="#262718"/>
      <path id="Path_644" data-name="Path 644" d="M0,369.229H0v.006l0-.006Z" fill="#5d5e5e"/>
      <path id="Path_645" data-name="Path 645" d="M0,461.539v.006H0Z" fill="#5d5e5e"/>
      <path id="Path_646" data-name="Path 646" d="M0,461.545H0Z" fill="#5d5e5e"/>
      <path id="Path_647" data-name="Path 647" d="M27.3,415.389,0,461.545h54.58Z" fill="#262718"/>
      <path id="Path_648" data-name="Path 648" d="M81.878,415.389,54.586,461.545h54.589Z" fill="#262718"/>
      <path id="Path_649" data-name="Path 649" d="M54.585,461.545h0Z" fill="#5d5e5e"/>
      <path id="Path_650" data-name="Path 650" d="M109.175,461.545Z" fill="#5d5e5e"/>
      <path id="Path_651" data-name="Path 651" d="M109.175,461.545h54.58l-27.29-46.156Z" fill="#15353d"/>
      <path id="Path_652" data-name="Path 652" d="M163.756,461.545h54.579l-27.289-46.156Z" fill="#262718"/>
      <path id="Path_653" data-name="Path 653" d="M163.755,461.545h0Z" fill="#5d5e5e"/>
      <path id="Path_654" data-name="Path 654" d="M218.335,461.545h0Z" fill="#5d5e5e"/>
      <path id="Path_655" data-name="Path 655" d="M218.336,461.545h54.59l-27.3-46.156Z" fill="#262718"/>
      <path id="Path_656" data-name="Path 656" d="M272.926,461.545h54.58l-27.289-46.156Z" fill="#15353d"/>
      <path id="Path_657" data-name="Path 657" d="M327.506,461.545h0v0Z" fill="#5d5e5e"/>
      <path id="Path_658" data-name="Path 658" d="M327.508,461.545h54.583l-27.285-46.154Z" fill="#b39e42"/>
      <path id="Path_659" data-name="Path 659" d="M382.091,461.545h54.577l-27.281-46.156Z" fill="#262718"/>
      <path id="Path_660" data-name="Path 660" d="M436.668,461.545h54.58L463.97,415.391Z" fill="#b39e42"/>
      <path id="Path_661" data-name="Path 661" d="M491.248,461.545h54.6l-27.3-46.156Z" fill="#b39e42"/>
      <path id="Path_662" data-name="Path 662" d="M545.848,461.545H600v-.732l-26.87-45.422Z" fill="#15353d"/>
      <path id="Path_663" data-name="Path 663" d="M600,460.813V415.389H573.131Z" fill="#301f25"/>
      <path id="Path_664" data-name="Path 664" d="M518.548,415.389l27.3,46.156,27.282-46.154v0Z" fill="#15353d"/>
      <path id="Path_665" data-name="Path 665" d="M491.248,461.545l27.3-46.156H463.971Z" fill="#b39e42"/>
      <path id="Path_666" data-name="Path 666" d="M409.387,415.389l27.281,46.156,27.3-46.154v0Z" fill="#15353d"/>
      <path id="Path_667" data-name="Path 667" d="M354.806,415.389l27.285,46.156,27.3-46.156Z" fill="#301f25"/>
      <path id="Path_668" data-name="Path 668" d="M354.806,415.389H300.217l27.29,46.154v0l27.3-46.154Z" fill="#301f25"/>
      <path id="Path_669" data-name="Path 669" d="M245.628,415.389l27.3,46.156,27.291-46.156Z" fill="#b39e42"/>
      <path id="Path_670" data-name="Path 670" d="M191.047,415.389h0l27.29,46.155h0l27.292-46.156Z" fill="#b39e42"/>
      <path id="Path_671" data-name="Path 671" d="M136.466,415.389h0l27.291,46.156h0l27.29-46.156Z" fill="#262718"/>
      <path id="Path_672" data-name="Path 672" d="M109.175,461.545l27.29-46.156H81.878Z" fill="#dedd99"/>
      <path id="Path_673" data-name="Path 673" d="M54.586,461.545l27.292-46.156H27.3l27.29,46.156Z" fill="#b39e42"/>
      <path id="Path_674" data-name="Path 674" d="M0,461.545,27.3,415.389H0v46.149l0,.007Z" fill="#301f25"/>
      <path id="Path_675" data-name="Path 675" d="M27.3,507.693.006,461.545,0,461.554v46.139H27.3Z" fill="#dedd99"/>
      <path id="Path_676" data-name="Path 676" d="M27.3,507.693Z" fill="#5d5e5e"/>
      <path id="Path_677" data-name="Path 677" d="M27.3,507.693H81.881L54.587,461.545Z" fill="#301f25"/>
      <path id="Path_678" data-name="Path 678" d="M81.881,507.693Z" fill="#5d5e5e"/>
      <path id="Path_679" data-name="Path 679" d="M81.881,507.693h54.586l-27.291-46.148Z" fill="#b39e42"/>
      <path id="Path_680" data-name="Path 680" d="M136.467,507.693h54.581l-27.291-46.148Z" fill="#301f25"/>
      <path id="Path_681" data-name="Path 681" d="M136.467,507.693Z" fill="#5d5e5e"/>
      <path id="Path_682" data-name="Path 682" d="M191.048,507.693Z" fill="#5d5e5e"/>
      <path id="Path_683" data-name="Path 683" d="M191.048,507.693h54.581l-27.292-46.148Z" fill="#dedd99"/>
      <path id="Path_684" data-name="Path 684" d="M245.629,507.693h54.59l-27.292-46.148Z" fill="#b39e42"/>
      <path id="Path_685" data-name="Path 685" d="M300.221,507.693h54.585l-27.3-46.146Z" fill="#dedd99"/>
      <path id="Path_686" data-name="Path 686" d="M300.219,507.693h0l0,0Z" fill="#5d5e5e"/>
      <path id="Path_687" data-name="Path 687" d="M354.806,507.693h54.583l-27.3-46.148Z" fill="#b39e42"/>
      <path id="Path_688" data-name="Path 688" d="M409.389,507.693h54.582l-27.3-46.146Z" fill="#dedd99"/>
      <path id="Path_689" data-name="Path 689" d="M518.55,507.693l-27.3-46.148-27.279,46.148Z" fill="#262718"/>
      <path id="Path_690" data-name="Path 690" d="M518.55,507.693h54.583l-27.285-46.146Z" fill="#dedd99"/>
      <path id="Path_691" data-name="Path 691" d="M600,507.693V462.266l-26.867,45.427Z" fill="#dedd99"/>
      <path id="Path_692" data-name="Path 692" d="M573.133,507.693,600,462.266v-.721H545.85Z" fill="#301f25"/>
      <path id="Path_693" data-name="Path 693" d="M518.55,507.693l27.3-46.146,0,0h-54.6Z" fill="#301f25"/>
      <path id="Path_694" data-name="Path 694" d="M463.971,507.693l27.279-46.148H436.67Z" fill="#dedd99"/>
      <path id="Path_695" data-name="Path 695" d="M436.67,461.545H382.091l27.3,46.148,27.279-46.146Z" fill="#15353d"/>
      <path id="Path_696" data-name="Path 696" d="M327.51,461.545l27.3,46.148,27.285-46.148Z" fill="#15353d"/>
      <path id="Path_697" data-name="Path 697" d="M327.51,461.545H272.927l27.292,46.146,0,0,27.288-46.146Z" fill="#15353d"/>
      <path id="Path_698" data-name="Path 698" d="M272.926,461.545H218.337l27.292,46.148,27.3-46.148Z" fill="#15353d"/>
      <path id="Path_699" data-name="Path 699" d="M218.336,461.545H163.757l27.291,46.148h0l27.289-46.148Z" fill="#15353d"/>
      <path id="Path_700" data-name="Path 700" d="M163.756,461.545h-54.58l27.291,46.148h0l27.29-46.148Z" fill="#dedd99"/>
      <path id="Path_701" data-name="Path 701" d="M109.175,461.545H54.587l27.294,46.148h0l27.3-46.148Z" fill="#262718"/>
      <path id="Path_702" data-name="Path 702" d="M27.3,507.693l27.29-46.148H.006Z" fill="#b39e42"/>
      <path id="Path_703" data-name="Path 703" d="M0,461.545H0v.009l.006-.009Z" fill="#5d5e5e"/>
      <path id="Path_704" data-name="Path 704" d="M0,553.839v.008H.006Z" fill="#5d5e5e"/>
      <path id="Path_705" data-name="Path 705" d="M.006,553.847h54.58L27.3,507.693Z" fill="#262718"/>
      <path id="Path_706" data-name="Path 706" d="M.006,553.847Z" fill="#5d5e5e"/>
      <path id="Path_707" data-name="Path 707" d="M54.586,553.847h0Z" fill="#5d5e5e"/>
      <path id="Path_708" data-name="Path 708" d="M54.587,553.847h54.589l-27.3-46.154Z" fill="#dedd99"/>
      <path id="Path_709" data-name="Path 709" d="M109.176,553.847Z" fill="#5d5e5e"/>
      <path id="Path_710" data-name="Path 710" d="M109.176,553.847h54.58l-27.29-46.154Z" fill="#262718"/>
      <path id="Path_711" data-name="Path 711" d="M163.756,553.847h0Z" fill="#5d5e5e"/>
      <path id="Path_712" data-name="Path 712" d="M163.757,553.847h54.58l-27.29-46.154Z" fill="#262718"/>
      <path id="Path_713" data-name="Path 713" d="M218.337,553.847h54.59l-27.3-46.154Z" fill="#b39e42"/>
      <path id="Path_714" data-name="Path 714" d="M218.337,553.847Z" fill="#5d5e5e"/>
      <path id="Path_715" data-name="Path 715" d="M272.927,553.847h54.581l-27.289-46.154Z" fill="#262718"/>
      <path id="Path_716" data-name="Path 716" d="M327.508,553.847h0v0Z" fill="#5d5e5e"/>
      <path id="Path_717" data-name="Path 717" d="M327.51,553.847h54.581L354.806,507.7Z" fill="#dedd99"/>
      <path id="Path_718" data-name="Path 718" d="M382.091,553.847h54.577l-27.279-46.154Z" fill="#15353d"/>
      <path id="Path_719" data-name="Path 719" d="M436.668,553.847H491.25L463.97,507.7Z" fill="#262718"/>
      <path id="Path_720" data-name="Path 720" d="M491.25,553.847h54.6l-27.3-46.154Z" fill="#15353d"/>
      <path id="Path_721" data-name="Path 721" d="M545.848,553.847H600v-.722L573.132,507.7Z" fill="#262718"/>
      <path id="Path_722" data-name="Path 722" d="M600,553.125V507.693H573.133Z" fill="#15353d"/>
      <path id="Path_723" data-name="Path 723" d="M518.55,507.693l27.3,46.154L573.132,507.7v0Z" fill="#dedd99"/>
      <path id="Path_724" data-name="Path 724" d="M463.971,507.693l27.279,46.154,27.3-46.154Z" fill="#b39e42"/>
      <path id="Path_725" data-name="Path 725" d="M463.971,507.693H409.389l27.279,46.154,27.3-46.152Z" fill="#b39e42"/>
      <path id="Path_726" data-name="Path 726" d="M354.806,507.693l27.285,46.154,27.3-46.154Z" fill="#b39e42"/>
      <path id="Path_727" data-name="Path 727" d="M354.806,507.693H300.219l27.29,46.152v0l27.3-46.152Z" fill="#b39e42"/>
      <path id="Path_728" data-name="Path 728" d="M245.629,507.693l27.3,46.154,27.292-46.154Z" fill="#301f25"/>
      <path id="Path_729" data-name="Path 729" d="M191.048,507.693h0l27.29,46.154h0l27.292-46.154Z" fill="#262718"/>
      <path id="Path_730" data-name="Path 730" d="M136.467,507.693h0l27.291,46.154h0l27.29-46.154Z" fill="#b39e42"/>
      <path id="Path_731" data-name="Path 731" d="M81.881,507.693h0l27.3,46.154h0l27.29-46.154Z" fill="#15353d"/>
      <path id="Path_732" data-name="Path 732" d="M27.3,507.693h0l27.29,46.154h0L81.88,507.693Z" fill="#301f25"/>
      <path id="Path_733" data-name="Path 733" d="M.006,553.847,27.3,507.693H0v46.145Z" fill="#15353d"/>
      <path id="Path_734" data-name="Path 734" d="M0,553.856V600H27.3L.007,553.847Z" fill="#b39e42"/>
      <path id="Path_735" data-name="Path 735" d="M27.3,600Z" fill="#5d5e5e"/>
      <path id="Path_736" data-name="Path 736" d="M27.3,600H81.882L54.588,553.847Z" fill="#b39e42"/>
      <path id="Path_737" data-name="Path 737" d="M81.882,600Z" fill="#5d5e5e"/>
      <path id="Path_738" data-name="Path 738" d="M81.882,600h54.586l-27.291-46.153Z" fill="#dedd99"/>
      <path id="Path_739" data-name="Path 739" d="M136.468,600h54.581l-27.291-46.153Z" fill="#b39e42"/>
      <path id="Path_740" data-name="Path 740" d="M136.468,600Z" fill="#5d5e5e"/>
      <path id="Path_741" data-name="Path 741" d="M191.049,600H245.63l-27.292-46.153Z" fill="#301f25"/>
      <path id="Path_742" data-name="Path 742" d="M191.049,600Z" fill="#5d5e5e"/>
      <path id="Path_743" data-name="Path 743" d="M245.63,600h54.589l-27.291-46.153Z" fill="#dedd99"/>
      <path id="Path_744" data-name="Path 744" d="M300.221,600H354.81l-27.3-46.151Z" fill="#301f25"/>
      <path id="Path_745" data-name="Path 745" d="M300.219,600h0l0,0Z" fill="#5d5e5e"/>
      <path id="Path_746" data-name="Path 746" d="M354.81,600h54.579l-27.3-46.153Z" fill="#dedd99"/>
      <path id="Path_747" data-name="Path 747" d="M409.389,600h54.584l-27.3-46.151Z" fill="#301f25"/>
      <path id="Path_748" data-name="Path 748" d="M463.973,600H518.55l-27.3-46.153Z" fill="#dedd99"/>
      <path id="Path_749" data-name="Path 749" d="M518.55,600h54.583L545.85,553.849Z" fill="#dedd99"/>
      <path id="Path_750" data-name="Path 750" d="M600,600V554.568L573.133,600Z" fill="#b39e42"/>
      <path id="Path_751" data-name="Path 751" d="M573.133,600,600,554.568v-.721H545.852Z" fill="#dedd99"/>
      <path id="Path_752" data-name="Path 752" d="M545.852,553.847h-54.6L518.55,600l27.3-46.151Z" fill="#b39e42"/>
      <path id="Path_753" data-name="Path 753" d="M436.672,553.847,463.973,600l27.277-46.153Z" fill="#dedd99"/>
      <path id="Path_754" data-name="Path 754" d="M436.672,553.847H382.093L409.389,600l27.281-46.151Z" fill="#262718"/>
      <path id="Path_755" data-name="Path 755" d="M382.091,553.847H327.51L354.81,600l27.283-46.153Z" fill="#15353d"/>
      <path id="Path_756" data-name="Path 756" d="M327.51,553.847H272.928L300.219,600l0,0,27.288-46.151Z" fill="#b39e42"/>
      <path id="Path_757" data-name="Path 757" d="M272.927,553.847H218.338L245.63,600l27.3-46.153Z" fill="#15353d"/>
      <path id="Path_758" data-name="Path 758" d="M218.337,553.847H163.758L191.049,600h0l27.289-46.153Z" fill="#dedd99"/>
      <path id="Path_759" data-name="Path 759" d="M163.757,553.847h-54.58L136.468,600h0l27.29-46.153Z" fill="#15353d"/>
      <path id="Path_760" data-name="Path 760" d="M109.176,553.847H54.588L81.882,600h0l27.295-46.153Z" fill="#301f25"/>
      <path id="Path_761" data-name="Path 761" d="M54.587,553.847H.007L27.3,600h0l27.29-46.153Z" fill="#dedd99"/>
      <path id="Path_762" data-name="Path 762" d="M.006,553.847H0v.009l.007-.009Z" fill="#5d5e5e"/>
      <line id="Line_1" data-name="Line 1" x1="26.867" transform="translate(573.133 600)" fill="#5d5e5e"/>
      <line id="Line_2" data-name="Line 2" x2="54.583" transform="translate(518.55 600)" fill="#5d5e5e"/>
      <line id="Line_3" data-name="Line 3" x1="54.577" transform="translate(463.973 600)" fill="#5d5e5e"/>
      <line id="Line_4" data-name="Line 4" x2="54.584" transform="translate(409.389 600)" fill="#5d5e5e"/>
      <line id="Line_5" data-name="Line 5" x2="54.579" transform="translate(354.81 600)" fill="#5d5e5e"/>
      <line id="Line_6" data-name="Line 6" x1="0.002" transform="translate(300.219 600)" fill="#5d5e5e"/>
      <line id="Line_7" data-name="Line 7" x2="54.589" transform="translate(300.221 600)" fill="#5d5e5e"/>
      <line id="Line_8" data-name="Line 8" x1="54.589" transform="translate(245.63 600)" fill="#5d5e5e"/>
      <line id="Line_9" data-name="Line 9" x2="0.001" transform="translate(191.048 600)" fill="#5d5e5e"/>
      <line id="Line_10" data-name="Line 10" transform="translate(191.049 600)" fill="#5d5e5e"/>
      <line id="Line_11" data-name="Line 11" x1="54.581" transform="translate(191.049 600)" fill="#5d5e5e"/>
      <line id="Line_12" data-name="Line 12" x2="0.001" transform="translate(136.467 600)" fill="#5d5e5e"/>
      <line id="Line_13" data-name="Line 13" x1="54.58" transform="translate(136.468 600)" fill="#5d5e5e"/>
      <line id="Line_14" data-name="Line 14" transform="translate(136.468 600)" fill="#5d5e5e"/>
      <line id="Line_15" data-name="Line 15" x2="0.001" transform="translate(81.881 600)" fill="#5d5e5e"/>
      <line id="Line_16" data-name="Line 16" x1="54.585" transform="translate(81.882 600)" fill="#5d5e5e"/>
      <line id="Line_17" data-name="Line 17" transform="translate(81.882 600)" fill="#5d5e5e"/>
      <line id="Line_18" data-name="Line 18" x2="0.001" transform="translate(27.297 600)" fill="#5d5e5e"/>
      <line id="Line_19" data-name="Line 19" transform="translate(27.298 600)" fill="#5d5e5e"/>
      <line id="Line_20" data-name="Line 20" x1="54.583" transform="translate(27.298 600)" fill="#5d5e5e"/>
      <line id="Line_21" data-name="Line 21" x1="27.297" transform="translate(0 600)" fill="#5d5e5e"/>
    </g>
    <g id="Group_120" data-name="Group 120" transform="translate(-243.973 2405)">
      <circle id="Ellipse_1" data-name="Ellipse 1" cx="175" cy="175" r="175" transform="translate(190 210)" fill="#dedd99" stroke="#301f25" stroke-miterlimit="10" stroke-width="5"/>
      <circle id="Ellipse_2" data-name="Ellipse 2" cx="159.091" cy="159.091" r="159.091" transform="translate(205.909 225.909)" fill="#dedd99" stroke="#301f25" stroke-miterlimit="10" stroke-width="5"/>
      <g id="Group_115" data-name="Group 115" transform="translate(249.74 307.835)">
        <g id="Group_114" data-name="Group 114">
          <path id="Path_763" data-name="Path 763" d="M230.919,276.766a2.677,2.677,0,0,0-.659-2.049l-2.2-2.122c-.146-.22-.512-.439-.512-.659a.422.422,0,0,1,.439-.439h9.148c7.613,0,11.564,4.684,11.564,13.54,0,8.417-2.561,11.272-5.415,13.028,2.854,1.464,5.562,4.539,5.562,12.662,0,10.613-3.366,15.662-9.369,15.662H227.99a.422.422,0,0,1-.439-.437c0-.221.366-.366.512-.659l2.2-2.124a2.673,2.673,0,0,0,.659-2.049V276.766Zm5.637,19.907h1.1c3.586,0,5.123-2.854,5.123-11.638,0-7.465-1.537-9.88-5.123-9.88h-1.1Zm0,26.054h2.269c3.22,0,3.952-2.635,3.952-12.514,0-7.173-1.537-9.881-5.123-9.881h-1.1v22.4Z" transform="translate(-227.551 -271.496)" fill="#301f25"/>
          <path id="Path_764" data-name="Path 764" d="M259.94,299.011c0,18.078-3.952,22.1-8.71,22.1-4.684,0-8.635-4.025-8.635-22.1,0-14.418,3.952-18.591,8.635-18.591C255.988,280.422,259.94,284.593,259.94,299.011Zm-5.708,0c0-12.735-1.026-15.443-3-15.443-1.9,0-2.927,2.708-2.927,15.443,0,16.468,1.025,18.956,2.927,18.956C253.207,317.967,254.231,315.479,254.231,299.011Z" transform="translate(-218.662 -266.223)" fill="#301f25"/>
          <path id="Path_765" data-name="Path 765" d="M273.234,299.011c0,18.078-3.952,22.1-8.71,22.1-4.684,0-8.637-4.025-8.637-22.1,0-14.418,3.952-18.591,8.637-18.591C269.282,280.422,273.234,284.593,273.234,299.011Zm-5.71,0c0-12.735-1.025-15.443-3-15.443-1.9,0-2.929,2.708-2.929,15.443,0,16.468,1.026,18.956,2.929,18.956C266.5,317.967,267.525,315.479,267.525,299.011Z" transform="translate(-210.807 -266.223)" fill="#301f25"/>
          <path id="Path_766" data-name="Path 766" d="M276.045,302.236h.146l4.978-12.516a1.554,1.554,0,0,0-.22-1.683l-1.392-1.83c-.073-.146-.146-.22-.146-.293,0-.146.073-.22.366-.22h7.538c.22,0,.294.073.294.293,0,.146-.075.293-.366.585l-1.317,1.244a6.621,6.621,0,0,0-.878,1.61l-5.124,12.808L286.584,322a4.323,4.323,0,0,0,.8,1.464l2.049,1.976a.74.74,0,0,1,.366.584.345.345,0,0,1-.366.366h-8.123c-.293,0-.293-.146-.293-.293a1.455,1.455,0,0,1,.293-.587l.805-1.1a1.782,1.782,0,0,0,.073-1.244l-4.9-14.565-1.244,3.147v11.566a.663.663,0,0,0,.294.584l1.756,1.685a.924.924,0,0,1,.294.512c0,.22-.221.293-.439.293h-9.3c-.293,0-.437-.073-.437-.293a.634.634,0,0,1,.293-.512l2.122-1.685a.666.666,0,0,0,.294-.584V274.57a.667.667,0,0,0-.294-.585l-2.122-1.683a.634.634,0,0,1-.293-.512c0-.22.146-.293.438-.293h7.027c.293,0,.364.146.364.439v30.3Z" transform="translate(-203.52 -271.496)" fill="#301f25"/>
          <path id="Path_767" data-name="Path 767" d="M296.859,321.119a2.673,2.673,0,0,0,.659,2.049l2.2,2.124c.146.218.512.438.512.659a.421.421,0,0,1-.439.438H288.3a.422.422,0,0,1-.439-.437c0-.221.366-.441.512-.659l2.2-2.124a2.673,2.673,0,0,0,.659-2.049V276.766a2.677,2.677,0,0,0-.659-2.049l-2.2-2.122c-.146-.22-.512-.439-.512-.659a.423.423,0,0,1,.439-.439h9.149c7.611,0,11.564,4.025,11.564,13.54,0,8.125-2.854,11.418-5.415,13.028a9.081,9.081,0,0,1,4.684,8.2v15.3a1.917,1.917,0,0,0,.659,1.317l2.342,2.487c.294.294.585.587.585.805s-.364.221-.732.221h-3.807c-3.366,0-4.684-2.2-4.684-4.684V305.97c0-3.22-1.976-5.635-4.537-5.635h-1.244v20.784Zm0-24.446h1.1c3.587,0,5.051-2.854,5.051-11.638,0-7.465-1.464-9.88-5.051-9.88h-1.1Z" transform="translate(-191.916 -271.496)" fill="#301f25"/>
          <path id="Path_768" data-name="Path 768" d="M309.48,305.233c0,9.221,1.244,12.734,4.61,12.734,2.417,0,3.588-1.171,5.124-3.44.146-.22.293-.366.512-.366s.293.148.22.441c-.878,3.511-3.148,6.513-6.733,6.513-6.661,0-9.442-6.588-9.442-22.982,0-11.125,3.22-17.712,8.343-17.712,4.246,0,7.905,3.075,7.905,13.76v4.537c0,.512-.146.878-.659.878H309.48Zm5.417-8.417V289.5c0-3.879-1.025-5.929-2.781-5.929-1.9,0-2.635,2.049-2.635,5.929v7.318Z" transform="translate(-182.511 -266.222)" fill="#301f25"/>
          <path id="Path_769" data-name="Path 769" d="M326.414,319.8c-.073.659-.293,1.317-.805,1.317h-2.049c-.585,0-.805-.659-.878-1.1l-5.271-35.644a2.18,2.18,0,0,0-.585-1.317l-1.537-1.756a1.448,1.448,0,0,1-.294-.585c0-.22.148-.293.439-.293h8.417c.22,0,.438.073.438.22a.756.756,0,0,1-.293.586l-1.83,2.122a1.5,1.5,0,0,0-.293,1.171l3,20.346h.146l2.635-20.346a1.316,1.316,0,0,0-.293-1.171l-1.9-2.122c-.146-.22-.293-.366-.293-.586,0-.146.22-.22.438-.22h7.613c.22,0,.437.073.437.293a1.072,1.072,0,0,1-.364.585l-1.756,1.756a2.189,2.189,0,0,0-.585,1.317Z" transform="translate(-175.88 -266.222)" fill="#301f25"/>
          <path id="Path_770" data-name="Path 770" d="M329.848,289.207a.721.721,0,0,0-.221-.585l-2.2-2.049a1.441,1.441,0,0,1-.293-.585c0-.22.22-.293.438-.293H334.6c.22,0,.364.146.364.439v36.228c0,.294,0,.512.146.659l2.27,2.561a.93.93,0,0,1,.293.512c0,.22-.146.293-.437.293h-9.662c-.22,0-.437-.073-.437-.293a.93.93,0,0,1,.293-.512l2.269-2.561c.148-.146.148-.364.148-.659V289.207Zm5.123-13.831c0,1.9-1.169,3.879-2.635,3.879-1.537,0-2.708-1.976-2.708-3.879,0-1.976,1.171-3.879,2.708-3.879C333.8,271.5,334.971,273.4,334.971,275.376Z" transform="translate(-168.704 -271.495)" fill="#301f25"/>
          <path id="Path_771" data-name="Path 771" d="M340.9,305.233c0,9.221,1.244,12.734,4.61,12.734,2.417,0,3.587-1.171,5.124-3.44.146-.22.293-.366.512-.366s.293.148.22.441c-.878,3.511-3.148,6.513-6.733,6.513-6.661,0-9.442-6.588-9.442-22.982,0-11.125,3.22-17.712,8.343-17.712,4.246,0,7.905,3.075,7.905,13.76v4.537c0,.512-.146.878-.659.878H340.9Zm5.417-8.417V289.5c0-3.879-1.025-5.929-2.781-5.929-1.9,0-2.635,2.049-2.635,5.929v7.318Z" transform="translate(-163.947 -266.222)" fill="#301f25"/>
          <path id="Path_772" data-name="Path 772" d="M348.829,284.373a2.179,2.179,0,0,0-.586-1.317l-1.537-1.756a1.448,1.448,0,0,1-.294-.585c0-.22.148-.293.439-.293h8.27c.221,0,.439.073.439.293a1.442,1.442,0,0,1-.293.585l-1.538,1.756a2.088,2.088,0,0,0-.437,1.39l3,20.419h.146L359,285.471a2.941,2.941,0,0,0-.732-2.049l-1.537-2.122a1.448,1.448,0,0,1-.294-.585c0-.22.221-.293.439-.293h7.686c.293,0,.511.073.511.293,0,.146-.22.366-.293.585l-1.756,2.2a2.769,2.769,0,0,0-.732,1.976l2.929,19.395h.146L368,284.08a1.309,1.309,0,0,0-.221-1.1l-1.537-1.683c-.073-.22-.293-.439-.293-.585,0-.22.22-.293.511-.293h7.1c.293,0,.439.073.439.293a1.448,1.448,0,0,1-.294.585l-1.756,1.83a3.232,3.232,0,0,0-.732,1.83l-4.466,35.13c-.073.659-.439,1.026-.805,1.026h-1.465c-.511,0-.659-.512-.732-.805l-3.513-23.129h-.146l-3,22.907c-.073.512-.293,1.026-.584,1.026h-1.538a.937.937,0,0,1-.878-.8Z" transform="translate(-157.315 -266.222)" fill="#301f25"/>
          <path id="Path_773" data-name="Path 773" d="M377.942,294.913c0,.293-.146.585-.439.585-.22,0-.364-.293-.437-.659a39.173,39.173,0,0,0-2.2-7.611c-.951-2.342-1.976-3.659-3.366-3.659-1.537,0-1.828,1.756-1.828,3.952,0,3.074,1.537,7.245,4.464,11.93,2.781,4.466,4.757,9.588,4.757,14.345,0,4.539-3.218,7.32-6.294,7.32a5.242,5.242,0,0,1-4.392-2.343l-1.9,1.976a1.4,1.4,0,0,1-.733.366c-.146,0-.22-.221-.22-.512V306.551c0-.22.073-.512.294-.512.364,0,.364.293.437.659,1.171,5.929,2.856,11.27,5.563,11.27,1.61,0,2.342-1.243,2.342-3.148,0-4.537-2.342-9.367-4.684-13.173a26.3,26.3,0,0,1-4.171-13.394c0-4.757,2.927-7.832,5.562-7.832a5.537,5.537,0,0,1,4.319,2.342l2.122-1.9c.146-.146.293-.439.512-.439.146,0,.293.366.293.732v13.761Z" transform="translate(-146.25 -266.223)" fill="#301f25"/>
        </g>
      </g>
      <g id="Group_117" data-name="Group 117" transform="translate(252.715 420.445)">
        <g id="Group_116" data-name="Group 116">
          <path id="Path_774" data-name="Path 774" d="M251.98,374.155q0,7.2-3.158,10.6t-9.916,3.4a17.267,17.267,0,0,1-7.714-1.957v-2.493A16.252,16.252,0,0,0,238.976,386q10.581,0,10.58-11.21v-3.333h-.094a10.839,10.839,0,0,1-14.926,3.659,10.216,10.216,0,0,1-3.786-4.533,16.716,16.716,0,0,1-1.328-6.911,17.192,17.192,0,0,1,1.48-7.283,11.519,11.519,0,0,1,4.182-4.962,11.029,11.029,0,0,1,6.152-1.76,8.724,8.724,0,0,1,8.227,4.684h.094v-4.055h2.423v23.862Zm-2.423-13.936A8.712,8.712,0,0,0,248.509,356a7.692,7.692,0,0,0-2.959-3.04,8.785,8.785,0,0,0-11.035,2.073,15.183,15.183,0,0,0-.28,16.488,7.543,7.543,0,0,0,6.327,2.983,8.548,8.548,0,0,0,6.5-2.633,9.243,9.243,0,0,0,2.493-6.618Z" transform="translate(-229.421 -337.916)" fill="#301f25"/>
          <path id="Path_775" data-name="Path 775" d="M259.85,376.7a12.262,12.262,0,0,1-6.432-1.678,11.117,11.117,0,0,1-4.3-4.708,15.477,15.477,0,0,1-1.5-6.968,16.307,16.307,0,0,1,1.526-7.259,10.908,10.908,0,0,1,4.381-4.766,12.985,12.985,0,0,1,6.629-1.655,11.026,11.026,0,0,1,8.717,3.624q3.193,3.623,3.193,9.938a15.9,15.9,0,0,1-1.5,7.049,11,11,0,0,1-4.276,4.754A12.211,12.211,0,0,1,259.85,376.7Zm.186-24.842a8.993,8.993,0,0,0-7.259,3.134,12.607,12.607,0,0,0-2.646,8.4,11.9,11.9,0,0,0,2.633,8.087,8.988,8.988,0,0,0,7.154,3.029,8.811,8.811,0,0,0,7.13-2.983q2.515-2.983,2.517-8.343,0-5.5-2.471-8.413A8.739,8.739,0,0,0,260.036,351.854Z" transform="translate(-218.671 -337.918)" fill="#301f25"/>
          <path id="Path_776" data-name="Path 776" d="M278.073,376.7a12.261,12.261,0,0,1-6.432-1.678,11.117,11.117,0,0,1-4.3-4.708,15.477,15.477,0,0,1-1.5-6.968,16.307,16.307,0,0,1,1.526-7.259,10.908,10.908,0,0,1,4.381-4.766,12.985,12.985,0,0,1,6.629-1.655,11.025,11.025,0,0,1,8.717,3.624q3.193,3.623,3.193,9.938a15.9,15.9,0,0,1-1.5,7.049,11,11,0,0,1-4.276,4.754A12.211,12.211,0,0,1,278.073,376.7Zm.186-24.842A8.993,8.993,0,0,0,271,354.988a12.606,12.606,0,0,0-2.646,8.4,11.9,11.9,0,0,0,2.633,8.087,8.988,8.988,0,0,0,7.154,3.029,8.811,8.811,0,0,0,7.13-2.983q2.515-2.983,2.517-8.343,0-5.5-2.471-8.413A8.739,8.739,0,0,0,278.259,351.854Z" transform="translate(-207.902 -337.918)" fill="#301f25"/>
          <path id="Path_777" data-name="Path 777" d="M304.195,380.43v-4.661H304.1a9.122,9.122,0,0,1-3.821,3.915,11.192,11.192,0,0,1-5.454,1.375,9.67,9.67,0,0,1-7.807-3.543q-2.959-3.544-2.959-9.531a17.011,17.011,0,0,1,1.492-7.259,11.476,11.476,0,0,1,4.206-4.953,11.063,11.063,0,0,1,6.117-1.748q5.78,0,8.227,4.731h.094V342.28h2.423v38.148h-2.425Zm0-15.661a8.463,8.463,0,0,0-2.331-6.152,8.01,8.01,0,0,0-6.012-2.4,8.225,8.225,0,0,0-6.7,3.169,15.232,15.232,0,0,0-.291,16.5,7.37,7.37,0,0,0,6.176,2.983,8.767,8.767,0,0,0,6.688-2.611A9.434,9.434,0,0,0,304.2,369.5v-4.73Z" transform="translate(-197.134 -342.28)" fill="#301f25"/>
          <path id="Path_778" data-name="Path 778" d="M316.721,354.208a5.05,5.05,0,0,0-3.1-.816,5.249,5.249,0,0,0-4.485,2.6,11.956,11.956,0,0,0-1.76,6.817V376h-3.89V350.223h3.89v5.336h.118a8.97,8.97,0,0,1,2.7-4.265,6.116,6.116,0,0,1,4.009-1.515,6.982,6.982,0,0,1,2.517.35v4.079Z" transform="translate(-185.655 -337.849)" fill="#301f25"/>
          <path id="Path_779" data-name="Path 779" d="M335.424,364.127h-18.27q.117,4.451,2.355,6.828a8.007,8.007,0,0,0,6.128,2.377,12.684,12.684,0,0,0,8.042-2.913v3.729a14.62,14.62,0,0,1-8.949,2.517,10.758,10.758,0,0,1-8.5-3.519q-3.112-3.52-3.11-9.905a14.211,14.211,0,0,1,3.366-9.717,10.739,10.739,0,0,1,8.425-3.845,9.605,9.605,0,0,1,7.737,3.263q2.773,3.262,2.771,9.089Zm-4.009-3.427a8.518,8.518,0,0,0-1.747-5.651,6.008,6.008,0,0,0-4.825-2.017,6.964,6.964,0,0,0-4.951,2.027,9.516,9.516,0,0,0-2.692,5.64h14.215Z" transform="translate(-179.96 -337.909)" fill="#301f25"/>
          <path id="Path_780" data-name="Path 780" d="M332.44,352.125a15.709,15.709,0,0,1,8.694-2.447q8.973,0,8.971,9.531v16.849h-3.89V372h-.14a9.38,9.38,0,0,1-13.948,2.623,7,7,0,0,1-2.2-5.4q0-7.154,8.483-8.367l7.784-1.118q0-6.713-5.36-6.712a12.5,12.5,0,0,0-8.389,3.193v-4.1Zm7.436,11.7a8.853,8.853,0,0,0-4.6,1.6,4.528,4.528,0,0,0-1.293,3.554,3.984,3.984,0,0,0,1.387,3.147,5.308,5.308,0,0,0,3.624,1.212,6.717,6.717,0,0,0,5.148-2.215,7.82,7.82,0,0,0,2.051-5.524v-2.611Z" transform="translate(-170.032 -337.908)" fill="#301f25"/>
          <path id="Path_781" data-name="Path 781" d="M369.985,380.43h-3.869V376h-.094a10.413,10.413,0,0,1-16.687,1.551q-2.89-3.484-2.889-9.4,0-6.338,3.241-10.218a10.582,10.582,0,0,1,8.551-3.88,8.371,8.371,0,0,1,7.784,4.217h.094V342.28h3.869v38.15Zm-3.867-15.521a7.351,7.351,0,0,0-2.154-5.36,7.118,7.118,0,0,0-5.277-2.191,7.244,7.244,0,0,0-6.071,2.856,12.34,12.34,0,0,0-2.2,7.724,11.159,11.159,0,0,0,2.109,7.119,6.853,6.853,0,0,0,5.673,2.67,7.3,7.3,0,0,0,5.675-2.5,9.219,9.219,0,0,0,2.248-6.4v-3.917Z" transform="translate(-160.27 -342.28)" fill="#301f25"/>
          <path id="Path_782" data-name="Path 782" d="M365.549,370.815a12.207,12.207,0,0,0,7.41,2.493q5.5,0,5.5-3.705a3.33,3.33,0,0,0-1.2-2.657,17.473,17.473,0,0,0-4.72-2.353q-4.2-1.654-5.568-3.333a6.69,6.69,0,0,1,1.456-9.531,11.544,11.544,0,0,1,6.956-2.051,14.385,14.385,0,0,1,5.92,1.165V354.9a11.669,11.669,0,0,0-6.547-1.865,6.244,6.244,0,0,0-3.718,1.026,3.173,3.173,0,0,0-1.433,2.7,3.259,3.259,0,0,0,.991,2.563,18,18,0,0,0,4.462,2.307q4.405,1.678,5.909,3.392a6.147,6.147,0,0,1,1.5,4.206,6.312,6.312,0,0,1-2.83,5.442,12.34,12.34,0,0,1-7.259,1.992,14,14,0,0,1-6.83-1.561Z" transform="translate(-148.982 -337.909)" fill="#301f25"/>
        </g>
      </g>
      <g id="Group_119" data-name="Group 119" transform="translate(306.087 379.375)">
        <g id="Group_118" data-name="Group 118">
          <path id="Path_783" data-name="Path 783" d="M263.454,327.609h8.65l-.449,1.845h-8.686Z" transform="translate(-262.969 -309.878)" fill="#15353d"/>
          <path id="Path_784" data-name="Path 784" d="M282.9,323.79a2.651,2.651,0,0,1,1.293-.6.756.756,0,0,1,.573.232.8.8,0,0,1,.223.568q0,.728-1.083,1.007l-1.435,2.816a12.106,12.106,0,0,0-.81,2.35,10.711,10.711,0,0,0-.27,2.405,26.383,26.383,0,0,0,.745,4.959,22.77,22.77,0,0,0,5.333-5.089q-.019-.8-.019-1.174a14.344,14.344,0,0,1,1.212-6.469q.8-1.565,1.771-1.565a1.172,1.172,0,0,1,.961.495,2.357,2.357,0,0,1,.382,1.464,6.593,6.593,0,0,1-.3,1.809,19.857,19.857,0,0,1-1.193,3.077,30.805,30.805,0,0,0,.717,7.458,25.045,25.045,0,0,0,4.338-3.84,12.993,12.993,0,0,0,2.347-3.533,7.954,7.954,0,0,0,.8-3.012,3.823,3.823,0,0,0-.418-1.492,4.405,4.405,0,0,1-.476-1.548,1.112,1.112,0,0,1,.356-.829,1.2,1.2,0,0,1,.864-.345,1.117,1.117,0,0,1,.986.587,4.27,4.27,0,0,1,.366,2.1q0,3.84-3.338,8.055a22.765,22.765,0,0,1-8.147,6.507,41.341,41.341,0,0,1-1.1-6.041q-2.53,2.537-3.144,3.039a21.661,21.661,0,0,1-2.372,1.744,16.455,16.455,0,0,1-2.445,1.258q-.131-1.062-.6-3.43a28.685,28.685,0,0,1-.652-4.773,8.392,8.392,0,0,1,.942-3.812,9.39,9.39,0,0,1,2.824-3.29,12.85,12.85,0,0,0-4.809.783q-.969.465-.969,1.118a2.379,2.379,0,0,0,.224.783,2.25,2.25,0,0,1,.205.746.78.78,0,0,1-.245.578.848.848,0,0,1-.62.242,1.023,1.023,0,0,1-.829-.43,1.915,1.915,0,0,1-.339-1.212,2.83,2.83,0,0,1,1.346-2.423Q278.046,323.694,282.9,323.79Z" transform="translate(-256.003 -312.64)" fill="#15353d"/>
          <path id="Path_785" data-name="Path 785" d="M292.032,330.447l-.821-.633a14.51,14.51,0,0,1,3.4-2.918,5.593,5.593,0,0,1,2.617-.867,1.4,1.4,0,0,1,.912.261.867.867,0,0,1,.317.708,34.5,34.5,0,0,1-1.209,4.587q-1.971,6.617-1.971,7.98a.714.714,0,0,0,.13.437.359.359,0,0,0,.28.177q.6,0,3.058-2.312l.727.708a24.273,24.273,0,0,1-3.729,3.077,4.158,4.158,0,0,1-1.92.671,1.345,1.345,0,0,1-1.034-.41,1.6,1.6,0,0,1-.382-1.138q0-2.331,2.8-11.391a2.648,2.648,0,0,0,.13-.764c0-.248-.111-.372-.336-.372a1.647,1.647,0,0,0-.848.3A19,19,0,0,0,292.032,330.447Zm7.326-12.342a1.275,1.275,0,0,1,.951.382,1.337,1.337,0,0,1,.372.978,2.082,2.082,0,0,1-.568,1.445,1.7,1.7,0,0,1-1.277.625,1.235,1.235,0,0,1-.932-.391,1.427,1.427,0,0,1-.372-1.026,2.024,2.024,0,0,1,.541-1.425A1.692,1.692,0,0,1,299.358,318.105Z" transform="translate(-246.281 -315.494)" fill="#15353d"/>
          <path id="Path_786" data-name="Path 786" d="M302.024,321.762l2.959-1.136-1.34,5.218h3.861l-.3,1.324h-3.864l-1.626,6.249a17.664,17.664,0,0,0-.775,3.912,1.027,1.027,0,0,0,.215.727.774.774,0,0,0,.587.224,4.166,4.166,0,0,0,1.771-.69,23.215,23.215,0,0,0,2.983-2.07l.708.858a47.353,47.353,0,0,1-5.463,3.766,5.362,5.362,0,0,1-2.219.69,1.32,1.32,0,0,1-1.091-.5,2.65,2.65,0,0,1-.4-1.64,18.359,18.359,0,0,1,.708-4.1l1.9-7.42h-3.02l.336-1.324h3.023Z" transform="translate(-242.496 -314.005)" fill="#15353d"/>
          <path id="Path_787" data-name="Path 787" d="M319.724,338.819l.485.69a16.442,16.442,0,0,1-3.524,3.02,4.152,4.152,0,0,1-2.032.764,1.264,1.264,0,0,1-1.053-.522,2.665,2.665,0,0,1-.4-1.623,11.18,11.18,0,0,1,.307-2.172q.308-1.425,1.744-6.125a18.63,18.63,0,0,0,.633-2.7q0-.6-.635-.6a3.84,3.84,0,0,0-1.963.78,11.8,11.8,0,0,0-2.916,2.752,8.55,8.55,0,0,0-1.292,3.174l-1.472,6.513h-2.778q.895-3.257,1.379-5.326l2.741-11.957a15.039,15.039,0,0,1,1.966-5.1,8.971,8.971,0,0,1,3.188-2.854,8.109,8.109,0,0,1,3.887-1.068,1.894,1.894,0,0,1,1.268.4,1.26,1.26,0,0,1,.466,1,1.149,1.149,0,0,1-.457.9,1.854,1.854,0,0,1-1.243.388,8.6,8.6,0,0,1-1.157-.1,18.211,18.211,0,0,0-2.221-.235,1.7,1.7,0,0,0-1.4.694,9.748,9.748,0,0,0-1.118,3.26l-2.081,9.2a24,24,0,0,1,4.835-3.928,5.149,5.149,0,0,1,2.463-.95,1.505,1.505,0,0,1,1.141.43,1.657,1.657,0,0,1,.41,1.193,5.479,5.479,0,0,1-.15,1.268q-.246,1.1-1.142,3.99-1.215,3.99-1.43,4.959a8.217,8.217,0,0,0-.215,1.734.791.791,0,0,0,.1.447.35.35,0,0,0,.307.15q.449,0,1.678-1.063Q318.737,339.622,319.724,338.819Z" transform="translate(-238.234 -316.464)" fill="#15353d"/>
          <path id="Path_788" data-name="Path 788" d="M321.028,327.609h8.651l-.447,1.845h-8.688Z" transform="translate(-228.947 -309.878)" fill="#15353d"/>
        </g>
      </g>
    </g>
  </g>
</svg>
