<svg xmlns="http://www.w3.org/2000/svg" xmlns:xlink="http://www.w3.org/1999/xlink" width="600" height="600" viewBox="0 0 600 600">
  <defs>
    <linearGradient id="linear-gradient" x1="0.5" x2="0.5" y2="1" gradientUnits="objectBoundingBox">
      <stop offset="0" stop-color="#fff"/>
      <stop offset="0.278" stop-color="#a1a6ba"/>
      <stop offset="1" stop-color="#0c132d"/>
    </linearGradient>
    <linearGradient id="linear-gradient-2" x1="0.5" y1="1" x2="0.5" gradientUnits="objectBoundingBox">
      <stop offset="0" stop-color="#fff"/>
      <stop offset="0.602" stop-color="#a1a6ba"/>
      <stop offset="0.82" stop-color="#00aeef"/>
      <stop offset="1" stop-color="#0c132d"/>
    </linearGradient>
    <linearGradient id="linear-gradient-3" x1="0.5" x2="0.5" y2="1" gradientUnits="objectBoundingBox">
      <stop offset="0" stop-color="#fff"/>
      <stop offset="0.528" stop-color="#00aeef"/>
      <stop offset="1" stop-color="#262262"/>
    </linearGradient>
    <linearGradient id="linear-gradient-4" x1="5.375" y1="-0.015" x2="5.375" y2="1.083" gradientUnits="objectBoundingBox">
      <stop offset="0" stop-color="#fff"/>
      <stop offset="0.159" stop-color="#00aeef"/>
      <stop offset="0.352" stop-color="#0c132d"/>
      <stop offset="1" stop-color="#a1a6ba"/>
    </linearGradient>
    <linearGradient id="linear-gradient-5" x1="7.048" y1="-0.015" x2="7.048" y2="1.083" xlink:href="#linear-gradient-4"/>
    <linearGradient id="linear-gradient-6" x1="4.19" y1="-0.168" x2="4.19" y2="1.096" xlink:href="#linear-gradient-4"/>
    <linearGradient id="linear-gradient-7" x1="3.775" y1="-0.152" x2="3.775" y2="1.081" xlink:href="#linear-gradient-4"/>
    <linearGradient id="linear-gradient-8" x1="3.786" y1="-0.141" x2="3.786" y2="1.094" xlink:href="#linear-gradient-4"/>
    <linearGradient id="linear-gradient-9" x1="2.278" y1="0" x2="2.278" y2="1.066" xlink:href="#linear-gradient-4"/>
    <linearGradient id="linear-gradient-10" x1="2.457" y1="-0.015" x2="2.457" y2="1.083" xlink:href="#linear-gradient-4"/>
    <linearGradient id="linear-gradient-11" x1="1.653" y1="-0.07" x2="1.653" y2="1.088" xlink:href="#linear-gradient-4"/>
    <linearGradient id="linear-gradient-12" x1="0.883" y1="-0.153" x2="0.883" y2="1" xlink:href="#linear-gradient-4"/>
    <linearGradient id="linear-gradient-13" x1="0.01" y1="-0.015" x2="0.01" y2="1.083" xlink:href="#linear-gradient-4"/>
    <linearGradient id="linear-gradient-14" x1="-0.796" y1="-0.141" x2="-0.796" y2="1.094" xlink:href="#linear-gradient-4"/>
    <linearGradient id="linear-gradient-15" x1="-1.118" y1="-0.152" x2="-1.118" y2="1.081" xlink:href="#linear-gradient-4"/>
    <linearGradient id="linear-gradient-16" x1="-1.285" y1="-0.015" x2="-1.285" y2="1.083" xlink:href="#linear-gradient-4"/>
    <linearGradient id="linear-gradient-17" x1="-3.142" y1="-0.152" x2="-3.142" y2="1.081" xlink:href="#linear-gradient-4"/>
    <linearGradient id="linear-gradient-18" x1="-3.873" y1="-0.152" x2="-3.873" y2="1.081" xlink:href="#linear-gradient-4"/>
    <linearGradient id="linear-gradient-19" x1="-4.395" y1="-0.015" x2="-4.395" y2="1.083" xlink:href="#linear-gradient-4"/>
  </defs>
  <g id="Group_120" data-name="Group 120" transform="translate(-6891 -1875)">
    <rect id="Rectangle_31" data-name="Rectangle 31" width="600" height="600" transform="translate(6891 1875)" fill="#0c132d"/>
    <g id="Group_119" data-name="Group 119" transform="translate(6816 1800)">
      <path id="Path_254" data-name="Path 254" d="M375,200A175,175,0,1,0,550,375,174.994,174.994,0,0,0,375,200Z" fill="url(#linear-gradient)"/>
      <path id="Path_255" data-name="Path 255" d="M534.95,370.486A164.465,164.465,0,1,1,370.485,206.018,164.454,164.454,0,0,1,534.95,370.486Z" transform="translate(4.515 4.514)" stroke="#e4e3ef" stroke-miterlimit="10" stroke-width="1" fill="url(#linear-gradient-2)"/>
      <path id="Path_256" data-name="Path 256" d="M522.217,366.666A155.551,155.551,0,1,1,366.664,211.112,155.566,155.566,0,0,1,522.217,366.666Z" transform="translate(8.336 8.334)" fill="url(#linear-gradient-3)"/>
      <path id="Path_257" data-name="Path 257" d="M290.8,260.281" transform="translate(68.104 45.211)" fill="#262262"/>
      <path id="Path_258" data-name="Path 258" d="M213.229,287.632a155.493,155.493,0,0,0-1.729,23.039c0,85.908,69.344,155.554,154.875,155.554S521.25,396.578,521.25,310.671a156.687,156.687,0,0,0-1.727-23.039Z" transform="translate(8.625 65.724)" fill="#0c132d"/>
      <g id="Group_116" data-name="Group 116" transform="translate(234.132 368.374)">
        <g id="Group_113" data-name="Group 113">
          <path id="Path_259" data-name="Path 259" d="M219.5,334.713V296.544h10.342a41.156,41.156,0,0,1,8.015.513,10.008,10.008,0,0,1,6.113,4.116c1.409,2.005,2.093,4.678,2.093,8.174a15.1,15.1,0,0,1-.921,5.847,8.086,8.086,0,0,1,.595,1.647,23.5,23.5,0,0,1,.326,5.323v12.548H219.5Z" transform="translate(-219.504 -295.966)" fill="url(#linear-gradient-4)"/>
          <rect id="Rectangle_32" data-name="Rectangle 32" width="17.61" height="38.169" transform="translate(18.646 0.579)" fill="url(#linear-gradient-5)"/>
          <path id="Path_260" data-name="Path 260" d="M239.4,332.574,234.323,299.4h27.888l-4.725,33.178Z" transform="translate(-208.39 -293.827)" fill="url(#linear-gradient-6)"/>
          <path id="Path_261" data-name="Path 261" d="M257.629,333.16a16.167,16.167,0,0,1-5.721-.971,11.373,11.373,0,0,1-4.758-3.257,11.5,11.5,0,0,1-2.349-4.443,20.107,20.107,0,0,1-.542-5.225V312.65a16.148,16.148,0,0,1,1.3-6.916,10.818,10.818,0,0,1,5.038-5.1,15.761,15.761,0,0,1,13.993.35,11.226,11.226,0,0,1,4.848,5.432,17.607,17.607,0,0,1,1.158,6.372h.009v9.03h-.072a15,15,0,0,1-.332,2.321,11.77,11.77,0,0,1-2.17,4.391,11.264,11.264,0,0,1-4.582,3.572A14.6,14.6,0,0,1,257.629,333.16Z" transform="translate(-200.938 -294.002)" fill="url(#linear-gradient-7)"/>
          <path id="Path_262" data-name="Path 262" d="M254.6,332.905V299.727h13.68a10.131,10.131,0,0,1,2.21-.4l5.6-.373V317.8h-4.081c0,.27,0,15.108,0,15.108H254.6Z" transform="translate(-193.18 -294.158)" fill="url(#linear-gradient-8)"/>
          <path id="Path_263" data-name="Path 263" d="M279.132,335.543a15.775,15.775,0,0,1-7.773-1.811,10.826,10.826,0,0,1-5.143-6.113,25.061,25.061,0,0,1-.929-7.733V311.8a40.157,40.157,0,0,1,.254-5.2,11.5,11.5,0,0,1,2.191-5.273,12.008,12.008,0,0,1,4.935-3.876,16.727,16.727,0,0,1,14.189.724A11.022,11.022,0,0,1,291.841,304a22.628,22.628,0,0,1,.95,7.46V319.7a25.189,25.189,0,0,1-.882,7.77,11.361,11.361,0,0,1-4.792,5.87A14.391,14.391,0,0,1,279.132,335.543Z" transform="translate(-185.167 -296.214)" fill="url(#linear-gradient-9)"/>
          <rect id="Rectangle_33" data-name="Rectangle 33" width="17.61" height="38.169" transform="translate(99.498 0.579)" fill="url(#linear-gradient-10)"/>
          <path id="Path_264" data-name="Path 264" d="M294.22,333.871a23.53,23.53,0,0,1-4.375-.294,8.78,8.78,0,0,1-4.331-2.2,8.283,8.283,0,0,1-2.537-4.422,27.328,27.328,0,0,1-.3-5.357v-6.268h-1.488V301.239h1.488v-3.572H300.1v3.572h1.862v14.089H300.1v4.386h2.153v14.158Z" transform="translate(-173.237 -295.124)" fill="url(#linear-gradient-11)"/>
          <path id="Path_265" data-name="Path 265" d="M289.679,335.753V321.631h1.607L286.855,299.4h28.208l-2.679,22.283c-.341,2.837-.618,4.69-.873,5.833a10.9,10.9,0,0,1-2.067,4.466,9.413,9.413,0,0,1-4.489,3.069,18.714,18.714,0,0,1-5.838.705h-9.438Z" transform="translate(-168.991 -293.827)" fill="url(#linear-gradient-12)"/>
          <path id="Path_266" data-name="Path 266" d="M300.939,334.713V296.544h12.5a21.785,21.785,0,0,1,5.99.67,10.2,10.2,0,0,1,4.786,2.837,9.788,9.788,0,0,1,2.317,4.484,23.151,23.151,0,0,1,.411,5v2.41a14.516,14.516,0,0,1-1.013,6.027,8.98,8.98,0,0,1-4.66,4.5,12.039,12.039,0,0,1-2.632.81v11.433h-17.7Z" transform="translate(-158.428 -295.966)" fill="url(#linear-gradient-13)"/>
          <path id="Path_267" data-name="Path 267" d="M310.861,332.905V299.727h13.68a10.131,10.131,0,0,1,2.21-.4l5.6-.373V317.8h-4.081c0,.27,0,15.108,0,15.108h-17.4Z" transform="translate(-150.986 -294.158)" fill="url(#linear-gradient-14)"/>
          <path id="Path_268" data-name="Path 268" d="M331.133,333.161a17.9,17.9,0,0,1-5.469-.751,10.455,10.455,0,0,1-4.851-3.092,11.28,11.28,0,0,1-2.364-4.567,22.742,22.742,0,0,1-.546-5.658v-5.81a19.021,19.021,0,0,1,1.034-6.827A10.994,10.994,0,0,1,323.576,301a13.811,13.811,0,0,1,7.266-1.837,15.6,15.6,0,0,1,6,1.094,11.5,11.5,0,0,1,6.85,7.514,18.641,18.641,0,0,1,.532,5.017v5.555a27.44,27.44,0,0,1-.425,5.591,11.528,11.528,0,0,1-2.375,4.874,11.181,11.181,0,0,1-4.825,3.434A15.664,15.664,0,0,1,331.133,333.161Z" transform="translate(-145.705 -294.003)" fill="url(#linear-gradient-15)"/>
          <path id="Path_269" data-name="Path 269" d="M335.14,334.712,330.7,296.545H371.01l-4.421,38.168Z" transform="translate(-136.109 -295.966)" fill="url(#linear-gradient-16)"/>
          <path id="Path_270" data-name="Path 270" d="M357.968,333.16a11.01,11.01,0,0,1-6.255-1.911c-2.543-1.712-3.831-4.673-3.831-8.808v-1.864c0-.605.028-1.178.082-1.722h-.082v-6.771a15.583,15.583,0,0,1,1.026-6.114A10.756,10.756,0,0,1,353.476,301a14.3,14.3,0,0,1,7.448-1.839,14.084,14.084,0,0,1,8.279,2.18,10.057,10.057,0,0,1,4.286,6.326,45.226,45.226,0,0,1,.46,8.451v16.632H360.9A10.407,10.407,0,0,1,357.968,333.16Z" transform="translate(-123.22 -294.002)" fill="url(#linear-gradient-17)"/>
          <path id="Path_271" data-name="Path 271" d="M371.058,333.16a16.422,16.422,0,0,1-6.612-1.262,10.02,10.02,0,0,1-5.161-4.685,14.662,14.662,0,0,1-1.253-6.583v-6.344h.159a14.064,14.064,0,0,1-.348-3.174,13.341,13.341,0,0,1,1.381-6.561,9.916,9.916,0,0,1,5.042-4.3,15.756,15.756,0,0,1,5.971-1.088,16.542,16.542,0,0,1,5.621.885,11.052,11.052,0,0,1,4.546,2.94,9.2,9.2,0,0,1,2.245,4.107,17.071,17.071,0,0,1,.306,3.658v6.1a13.78,13.78,0,0,1,.53,3.948,14.328,14.328,0,0,1-1.29,6.561,10.042,10.042,0,0,1-4.914,4.571A15.057,15.057,0,0,1,371.058,333.16Z" transform="translate(-115.749 -294.002)" fill="url(#linear-gradient-18)"/>
          <path id="Path_272" data-name="Path 272" d="M367.551,334.713V296.544h17.4v4.63a10.068,10.068,0,0,1,5.05,1.869,8.88,8.88,0,0,1,3.587,5.184,25.872,25.872,0,0,1,.42,5.6v20.888H367.551Z" transform="translate(-108.469 -295.966)" fill="url(#linear-gradient-19)"/>
        </g>
        <g id="Group_114" data-name="Group 114" transform="translate(3.5 3.5)">
          <path id="Path_273" data-name="Path 273" d="M221.5,329.713V298.544h6.843a39.664,39.664,0,0,1,7.27.434,6.474,6.474,0,0,1,4,2.711c.98,1.393,1.456,3.407,1.456,6.16,0,2.59-.361,4.294-1.134,5.365a4.132,4.132,0,0,1-.443.515c.028.031.056.065.082.1a5.875,5.875,0,0,1,1.267,2.336,22.187,22.187,0,0,1,.228,4.5v9.047H221.5Z" transform="translate(-221.504 -297.966)" fill="#0c132d"/>
          <rect id="Rectangle_34" data-name="Rectangle 34" width="10.61" height="31.169" transform="translate(18.646 0.579)" fill="#0c132d"/>
          <path id="Path_274" data-name="Path 274" d="M240.656,327.574l-4-26.178h9.762l.137,1.159.117-1.159h9.763L252.7,327.574Z" transform="translate(-210.143 -295.827)" fill="#0c132d"/>
          <path id="Path_275" data-name="Path 275" d="M256.128,328.16a12.694,12.694,0,0,1-4.482-.746,7.935,7.935,0,0,1-3.323-2.242,8.039,8.039,0,0,1-1.643-3.1,17.148,17.148,0,0,1-.42-4.31V311.15a12.806,12.806,0,0,1,.968-5.432,7.263,7.263,0,0,1,3.433-3.456,11.031,11.031,0,0,1,4.988-1.1,11.154,11.154,0,0,1,5.675,1.34,7.793,7.793,0,0,1,3.381,3.759,15.193,15.193,0,0,1,.9,5.794v6.153a16.448,16.448,0,0,1-.311,3.63,8.326,8.326,0,0,1-1.549,3.069,7.8,7.8,0,0,1-3.173,2.473A11.4,11.4,0,0,1,256.128,328.16Z" transform="translate(-202.937 -296.002)" fill="#0c132d"/>
          <path id="Path_276" data-name="Path 276" d="M256.6,327.8V301.622h10.572l-.005.073a6.361,6.361,0,0,1,2.056-.478l1.866-.124v11.6h-1.75a4.169,4.169,0,0,0-1.911.278c-.224.13-.245.221-.261.294a23.075,23.075,0,0,0-.163,3.829v10.7H256.6Z" transform="translate(-195.181 -296.054)" fill="#0c132d"/>
          <path id="Path_277" data-name="Path 277" d="M277.632,330.543a12.352,12.352,0,0,1-6.065-1.367,7.3,7.3,0,0,1-3.526-4.151,22.168,22.168,0,0,1-.754-6.639V310.3a37.5,37.5,0,0,1,.221-4.723,8.052,8.052,0,0,1,1.545-3.678,8.555,8.555,0,0,1,3.525-2.744,13.266,13.266,0,0,1,10.99.53,7.621,7.621,0,0,1,3.474,3.985,19.81,19.81,0,0,1,.749,6.293v4.379H277.98v1.029h9.809V318.2a22.484,22.484,0,0,1-.7,6.652,7.958,7.958,0,0,1-3.386,4.056A10.96,10.96,0,0,1,277.632,330.543Z" transform="translate(-187.167 -298.214)" fill="#0c132d"/>
          <rect id="Rectangle_35" data-name="Rectangle 35" width="10.61" height="31.169" transform="translate(99.498 0.579)" fill="#0c132d"/>
          <path id="Path_278" data-name="Path 278" d="M292.72,328.871a21.119,21.119,0,0,1-3.7-.229,5.329,5.329,0,0,1-2.629-1.337,4.744,4.744,0,0,1-1.484-2.557,25.535,25.535,0,0,1-.224-4.652v-9.768h-1.488v-7.089h1.488v-3.572H295.1v3.572h1.862v7.089H295.1v10.384c0,.415.005.742.016,1,.114,0,2.138,0,2.138,0v7.158Z" transform="translate(-175.237 -297.124)" fill="#0c132d"/>
          <path id="Path_279" data-name="Path 279" d="M291.351,330.753v-7.123h1.75c.241,0,.446,0,.621-.007-.056-.29-4.429-22.227-4.429-22.227h9.91l.159,1.076.077-1.076h9.847l-2.208,18.366c-.322,2.681-.588,4.476-.814,5.486a7.457,7.457,0,0,1-1.389,3.05,5.985,5.985,0,0,1-2.856,1.93,15.809,15.809,0,0,1-4.732.525h-5.936Z" transform="translate(-170.662 -295.827)" fill="#0c132d"/>
          <path id="Path_280" data-name="Path 280" d="M302.939,329.713V298.544h9a18.445,18.445,0,0,1,5.012.532,6.77,6.77,0,0,1,3.178,1.834,6.332,6.332,0,0,1,1.491,2.9,20.235,20.235,0,0,1,.324,4.226v2.41a11.469,11.469,0,0,1-.7,4.583,5.451,5.451,0,0,1-2.891,2.74,11.082,11.082,0,0,1-4.531.8h-.182v11.142Z" transform="translate(-160.428 -297.966)" fill="#0c132d"/>
          <path id="Path_281" data-name="Path 281" d="M312.861,327.8V301.623h10.572l-.005.073a6.422,6.422,0,0,1,2.056-.479l1.865-.124v11.6H325.6a4.169,4.169,0,0,0-1.911.278c-.222.13-.243.221-.261.294a23.079,23.079,0,0,0-.163,3.829v10.7h-10.4Z" transform="translate(-152.986 -296.055)" fill="#0c132d"/>
          <path id="Path_282" data-name="Path 282" d="M329.634,328.16a14.743,14.743,0,0,1-4.41-.586,7.029,7.029,0,0,1-3.264-2.044,7.8,7.8,0,0,1-1.626-3.164,19.887,19.887,0,0,1-.432-4.774v-5.81a15.652,15.652,0,0,1,.8-5.569,7.412,7.412,0,0,1,3.187-3.721,10.4,10.4,0,0,1,5.453-1.33,12.156,12.156,0,0,1,4.662.826,8.006,8.006,0,0,1,4.823,5.233,15.7,15.7,0,0,1,.4,4.065v5.555a24.778,24.778,0,0,1-.346,4.854,8.044,8.044,0,0,1-1.669,3.4,7.734,7.734,0,0,1-3.336,2.364A12.19,12.19,0,0,1,329.634,328.16Z" transform="translate(-147.705 -296.002)" fill="#0c132d"/>
          <path id="Path_283" data-name="Path 283" d="M349.8,329.713l-.275-1.418q-.215-1.108-.42-2.273c-.1.7-.527,3.691-.527,3.691H336.573l-3.63-31.169h10.573l.124,1.578c0-.021.214-1.578.214-1.578H354.4s.219,1.8.238,1.981c.023-.161.287-1.981.287-1.981H365.4l-3.61,31.169Z" transform="translate(-137.925 -297.966)" fill="#0c132d"/>
          <path id="Path_284" data-name="Path 284" d="M356.469,328.162a7.584,7.584,0,0,1-4.3-1.314c-1.538-1.034-2.285-2.966-2.285-5.9v-1.864c0-2.184.392-3.65,1.232-4.618a4.791,4.791,0,0,1,.651-.605h-1.883v-3.271a12.291,12.291,0,0,1,.746-4.744,7.362,7.362,0,0,1,3.147-3.337,13.034,13.034,0,0,1,11.931.21,6.535,6.535,0,0,1,2.853,4.137,48.2,48.2,0,0,1,.392,7.766v13.132H358.833A6.564,6.564,0,0,1,356.469,328.162Z" transform="translate(-125.221 -296.004)" fill="#0c132d"/>
          <path id="Path_285" data-name="Path 285" d="M369.559,328.161a12.946,12.946,0,0,1-5.206-.968,6.626,6.626,0,0,1-3.435-3.043,11.385,11.385,0,0,1-.885-5.021v-2.844h3.08a7.281,7.281,0,0,1-2.431-2.613,9.341,9.341,0,0,1-.838-4.062,10.035,10.035,0,0,1,.94-4.858,6.386,6.386,0,0,1,3.3-2.762,12.326,12.326,0,0,1,4.652-.829,13.09,13.09,0,0,1,4.431.677,7.629,7.629,0,0,1,3.134,1.988,5.688,5.688,0,0,1,1.431,2.53,14.1,14.1,0,0,1,.221,2.895v3.066h-3.267a8.877,8.877,0,0,1,2.525,2.181,7.993,7.993,0,0,1,1.272,4.8,11.034,11.034,0,0,1-.908,4.972,6.5,6.5,0,0,1-3.239,2.971A11.588,11.588,0,0,1,369.559,328.161Z" transform="translate(-117.75 -296.003)" fill="#0c132d"/>
          <path id="Path_286" data-name="Path 286" d="M369.551,329.713V298.544h10.4v4.945a7.8,7.8,0,0,1,2.385-.364,6.847,6.847,0,0,1,4.111,1.255,5.412,5.412,0,0,1,2.233,3.147,23.366,23.366,0,0,1,.329,4.8v17.388H369.551Z" transform="translate(-110.469 -297.966)" fill="#0c132d"/>
        </g>
        <g id="Group_115" data-name="Group 115" transform="translate(5.25 5.25)">
          <path id="Path_287" data-name="Path 287" d="M222.5,299.545H227.6a38.865,38.865,0,0,1,6.9.394,4.75,4.75,0,0,1,2.94,2.007,9.115,9.115,0,0,1,1.136,5.152q0,3.229-.8,4.34a4.222,4.222,0,0,1-3.162,1.333,5.418,5.418,0,0,1,2.872,1.419,4.221,4.221,0,0,1,.913,1.633,25.829,25.829,0,0,1,.18,4.093v7.3h-6.681V318.02a6.352,6.352,0,0,0-.35-2.751c-.234-.353-.845-.53-1.837-.53v12.476H222.5Zm7.2,4.734v6.153a3.172,3.172,0,0,0,1.7-.332q.488-.333.487-2.161v-1.521a2.3,2.3,0,0,0-.471-1.725A2.65,2.65,0,0,0,229.7,304.279Z" transform="translate(-222.504 -298.966)" fill="#e4e3ef"/>
          <path id="Path_288" data-name="Path 288" d="M240.268,299.545v3.607h-7.11v-3.607Zm0,4.989v22.678h-7.11V304.534Z" transform="translate(-214.514 -298.966)" fill="#e4e3ef"/>
          <path id="Path_289" data-name="Path 289" d="M253.539,302.4l-3.23,22.678h-9.023L237.817,302.4h6.165l1.942,16.56q.228-1.827.779-8.9.294-3.951.67-7.66Z" transform="translate(-211.019 -296.827)" fill="#e4e3ef"/>
          <path id="Path_290" data-name="Path 290" d="M263.1,314.311h-8.937v4.905a5.431,5.431,0,0,0,.222,1.983.862.862,0,0,0,.854.444,1.037,1.037,0,0,0,1.052-.59,6.453,6.453,0,0,0,.264-2.282v-2.991H263.1v1.675a15.115,15.115,0,0,1-.264,3.23,6.571,6.571,0,0,1-1.239,2.41,6.057,6.057,0,0,1-2.469,1.923,9.567,9.567,0,0,1-3.752.641,10.892,10.892,0,0,1-3.862-.632,6,6,0,0,1-3.9-4.161,15.728,15.728,0,0,1-.359-3.853V310.4a11.267,11.267,0,0,1,.8-4.692,5.514,5.514,0,0,1,2.632-2.632,9.257,9.257,0,0,1,4.2-.914,9.4,9.4,0,0,1,4.793,1.1,6.074,6.074,0,0,1,2.65,2.923,13.683,13.683,0,0,1,.761,5.119v3Zm-6.921-3.691v-1.657a8.412,8.412,0,0,0-.187-2.273.744.744,0,0,0-.768-.513c-.478,0-.775.145-.889.436a9.067,9.067,0,0,0-.172,2.35v1.657h2.016Z" transform="translate(-203.936 -297.002)" fill="#e4e3ef"/>
          <path id="Path_291" data-name="Path 291" d="M264.506,302.571l-.273,2.982q1.5-3.205,4.357-3.391v7.982a5.793,5.793,0,0,0-2.786.513,2.147,2.147,0,0,0-1.094,1.426,25.6,25.6,0,0,0-.2,4.212v8.955h-6.9V302.572h6.9Z" transform="translate(-196.181 -297.003)" fill="#e4e3ef"/>
          <path id="Path_292" data-name="Path 292" d="M285.29,311.842H278.1v-4.809a8.606,8.606,0,0,0-.231-2.618,1,1,0,0,0-1.017-.52,1.063,1.063,0,0,0-1.129.632,9.634,9.634,0,0,0-.24,2.735v12.852a8.9,8.9,0,0,0,.24,2.632,1.024,1.024,0,0,0,1.076.616,1.012,1.012,0,0,0,1.052-.618,10.065,10.065,0,0,0,.248-2.894v-3.477h7.194v1.078a21.258,21.258,0,0,1-.607,6.092,6.229,6.229,0,0,1-2.683,3.15,9.187,9.187,0,0,1-5.119,1.351,10.611,10.611,0,0,1-5.213-1.144,5.562,5.562,0,0,1-2.718-3.171,20.8,20.8,0,0,1-.667-6.092v-8.083a35.956,35.956,0,0,1,.2-4.485,6.3,6.3,0,0,1,1.221-2.88,6.8,6.8,0,0,1,2.819-2.179,11.542,11.542,0,0,1,9.391.434,5.9,5.9,0,0,1,2.718,3.064,18.432,18.432,0,0,1,.649,5.708v2.627Z" transform="translate(-188.169 -299.214)" fill="#e4e3ef"/>
          <path id="Path_293" data-name="Path 293" d="M286.469,299.545v3.607h-7.11v-3.607Zm0,4.989v22.678h-7.11V304.534Z" transform="translate(-179.863 -298.966)" fill="#e4e3ef"/>
          <path id="Path_294" data-name="Path 294" d="M292.6,300.668v3.572h1.862v3.589H292.6v12.135a6.526,6.526,0,0,0,.231,2.5q.231.257,1.923.255v3.658h-2.786a19.908,19.908,0,0,1-3.367-.2,3.584,3.584,0,0,1-1.778-.906,3.016,3.016,0,0,1-.957-1.624,28.747,28.747,0,0,1-.187-4.3V307.829h-1.488V304.24h1.488v-3.572H292.6Z" transform="translate(-176.237 -298.124)" fill="#e4e3ef"/>
          <path id="Path_295" data-name="Path 295" d="M306.4,302.4,304.43,318.8q-.467,3.9-.784,5.315a5.686,5.686,0,0,1-1.052,2.342,4.232,4.232,0,0,1-2.042,1.358,14.426,14.426,0,0,1-4.179.436h-4.186V324.63a7.981,7.981,0,0,0,2.072-.163.684.684,0,0,0,.462-.726q0-.273-.429-2.375l-3.78-18.97h6.268l2.268,15.313,1.106-15.312Z" transform="translate(-171.498 -296.827)" fill="#e4e3ef"/>
          <path id="Path_296" data-name="Path 296" d="M303.94,299.545h7.247a17.027,17.027,0,0,1,4.522.462,5.048,5.048,0,0,1,2.375,1.333,4.581,4.581,0,0,1,1.076,2.111,18.986,18.986,0,0,1,.28,3.836v2.41a10.011,10.011,0,0,1-.548,3.862,3.744,3.744,0,0,1-2.005,1.862,9.517,9.517,0,0,1-3.822.649h-1.932v11.142h-7.194V299.545Zm7.2,4.734v7.04c.2.012.383.018.53.018a1.666,1.666,0,0,0,1.377-.487,3.587,3.587,0,0,0,.383-2.025v-2.273a2.664,2.664,0,0,0-.444-1.846A2.78,2.78,0,0,0,311.136,304.279Z" transform="translate(-161.429 -298.966)" fill="#e4e3ef"/>
          <path id="Path_297" data-name="Path 297" d="M320.766,302.571l-.273,2.982q1.5-3.205,4.357-3.391v7.982a5.793,5.793,0,0,0-2.786.513,2.147,2.147,0,0,0-1.094,1.426,25.6,25.6,0,0,0-.2,4.212v8.955h-6.9V302.572h6.9Z" transform="translate(-153.986 -297.003)" fill="#e4e3ef"/>
          <path id="Path_298" data-name="Path 298" d="M336.727,310.536v5.555a23.441,23.441,0,0,1-.308,4.485,6.289,6.289,0,0,1-1.316,2.665,5.967,5.967,0,0,1-2.588,1.829,10.342,10.342,0,0,1-3.631.59,12.97,12.97,0,0,1-3.88-.5,5.269,5.269,0,0,1-2.469-1.521,6.038,6.038,0,0,1-1.256-2.461,18.424,18.424,0,0,1-.376-4.333v-5.81a14.182,14.182,0,0,1,.684-4.939,5.691,5.691,0,0,1,2.461-2.854,8.665,8.665,0,0,1,4.546-1.076,10.357,10.357,0,0,1,3.99.693,6.251,6.251,0,0,1,3.811,4.093A14.229,14.229,0,0,1,336.727,310.536Zm-6.9-1.708a7.594,7.594,0,0,0-.187-2.2.774.774,0,0,0-.8-.453.809.809,0,0,0-.821.453,6.95,6.95,0,0,0-.2,2.2v10.238a6.631,6.631,0,0,0,.2,2.093.788.788,0,0,0,.8.487.8.8,0,0,0,.812-.444,5.793,5.793,0,0,0,.2-1.914Z" transform="translate(-148.705 -297.003)" fill="#e4e3ef"/>
          <path id="Path_299" data-name="Path 299" d="M362.589,299.545l-3.2,27.669H350.4q-1.234-6.376-2.177-14.509-.431,3.486-2.005,14.509h-8.932l-3.222-27.669h6.99l.761,9.655.735,9.333q.4-7.245,1.99-18.988h7.472q.15,1.213.784,9.126l.795,10.528q.612-10.046,2.007-19.653h6.989Z" transform="translate(-138.832 -298.966)" fill="#e4e3ef"/>
          <path id="Path_300" data-name="Path 300" d="M357.36,311.356h-6.477v-1.521a10.692,10.692,0,0,1,.607-4.058,5.636,5.636,0,0,1,2.436-2.52,11.377,11.377,0,0,1,10.033.145,4.834,4.834,0,0,1,2.137,3.041,47.6,47.6,0,0,1,.359,7.425v11.382h-6.717v-2.019a4.22,4.22,0,0,1-4.016,2.431,5.822,5.822,0,0,1-3.323-1.017q-1.512-1.019-1.512-4.452v-1.866a5.456,5.456,0,0,1,.8-3.468,11.308,11.308,0,0,1,3.981-2.153q3.4-1.334,3.64-1.794a4.767,4.767,0,0,0,.24-1.88,6.372,6.372,0,0,0-.264-2.315.909.909,0,0,0-.88-.539q-.7,0-.871.453a9.207,9.207,0,0,0-.171,2.35v2.373Zm2.188,3.11a5.12,5.12,0,0,0-1.923,2.033,8.073,8.073,0,0,0-.264,2.359,6.863,6.863,0,0,0,.231,2.273.9.9,0,0,0,.914.513.846.846,0,0,0,.845-.4,6.487,6.487,0,0,0,.2-2.11v-4.667Z" transform="translate(-126.22 -297.002)" fill="#e4e3ef"/>
          <path id="Path_301" data-name="Path 301" d="M375.455,309.819h-6.118v-1.23a6.5,6.5,0,0,0-.18-1.992c-.121-.278-.418-.418-.9-.418a1.018,1.018,0,0,0-.871.385,1.911,1.911,0,0,0-.29,1.153,5.782,5.782,0,0,0,.145,1.529,2.429,2.429,0,0,0,.871,1.067,18.948,18.948,0,0,0,2.982,1.692,10.869,10.869,0,0,1,3.948,2.769,6.408,6.408,0,0,1,.94,3.776,9.524,9.524,0,0,1-.717,4.179,4.772,4.772,0,0,1-2.4,2.17,9.806,9.806,0,0,1-4.058.761,11.158,11.158,0,0,1-4.5-.821,4.916,4.916,0,0,1-2.573-2.222,9.869,9.869,0,0,1-.7-4.238v-1.094h6.118v1.435a7.54,7.54,0,0,0,.231,2.375.9.9,0,0,0,.913.548,1.237,1.237,0,0,0,1.026-.368,2.759,2.759,0,0,0,.29-1.547,3.429,3.429,0,0,0-.376-2.033,31.976,31.976,0,0,0-4.016-2.427q-3.042-1.709-3.708-3.1a7.587,7.587,0,0,1-.667-3.308,8.571,8.571,0,0,1,.718-4.008A4.66,4.66,0,0,1,364,302.861a10.509,10.509,0,0,1,3.99-.7,11.321,11.321,0,0,1,3.836.572,5.9,5.9,0,0,1,2.427,1.512,4.041,4.041,0,0,1,1.025,1.743,12.684,12.684,0,0,1,.18,2.513v1.318Z" transform="translate(-118.75 -297.004)" fill="#e4e3ef"/>
          <path id="Path_302" data-name="Path 302" d="M377.453,299.545v6.225a6.189,6.189,0,0,1,1.923-1.232,5.919,5.919,0,0,1,2.214-.411,5.13,5.13,0,0,1,3.085.922,3.715,3.715,0,0,1,1.556,2.128,22.587,22.587,0,0,1,.282,4.4v15.638h-6.9V311.254a9.933,9.933,0,0,0-.2-2.546.943.943,0,0,0-1.734.018,7.673,7.673,0,0,0-.222,2.306v16.184h-6.9V299.547h6.9Z" transform="translate(-111.467 -298.966)" fill="#e4e3ef"/>
        </g>
      </g>
      <path id="Path_303" data-name="Path 303" d="M230.186,352.99l-2.334,3.57-3.449-2.515,2.352-3.451-.457-2.541,1.332-1.543,2.24-.408,10.917-9.791s1.367-1.39-.107-5.581a2.023,2.023,0,0,0-.086-.245c-1.612-4.38,5.957-5.255,5.957-5.255l21.779,1.5a2.856,2.856,0,0,1,1.36,2l3.521.161.119.667,27.416-.028s-.259-1.757,2.956-1.906.04.233.04.233l59.36-.124a2.3,2.3,0,0,1,1.659,1.871l106.813.457.749-.98,1.946-.173.163,1,.586-.948,1.44-.255.152.8.781-.891s2.359-.893,2.627,1.117l.247,3.965-8.145.369-.674-1.641L365.1,332.128l-1.731,2.27-61.071-.14-2.011-2.343-27.372.145-.744.506-3.308.327s-.217,1.914-2.978,2.128l-2.566.287-18.21,21.555s-2.592,4.209-9.385.317Z" transform="translate(18.302 93.923)" fill="#e4e3ef"/>
      <g id="Group_117" data-name="Group 117" transform="translate(282.924 437.419)">
        <path id="Path_304" data-name="Path 304" d="M256.735,342.615h-3.957v-2.646a4.68,4.68,0,0,0-.128-1.438.545.545,0,0,0-.558-.285.582.582,0,0,0-.62.346,5.307,5.307,0,0,0-.131,1.5v7.068a4.94,4.94,0,0,0,.131,1.447.562.562,0,0,0,.592.338.556.556,0,0,0,.577-.338,5.538,5.538,0,0,0,.137-1.593V345.1h3.957v.6a11.632,11.632,0,0,1-.334,3.35,3.419,3.419,0,0,1-1.475,1.732,5.055,5.055,0,0,1-2.814.744,5.828,5.828,0,0,1-2.866-.63,3.053,3.053,0,0,1-1.495-1.743,11.424,11.424,0,0,1-.366-3.349v-4.447a19.781,19.781,0,0,1,.112-2.468,3.443,3.443,0,0,1,.672-1.582,3.751,3.751,0,0,1,1.551-1.2,6.34,6.34,0,0,1,5.166.24,3.243,3.243,0,0,1,1.495,1.685,10.134,10.134,0,0,1,.357,3.14v1.445Z" transform="translate(-247.385 -335.668)" fill="#e4e3ef"/>
        <path id="Path_305" data-name="Path 305" d="M262.114,341.895v3.056a12.808,12.808,0,0,1-.17,2.467,3.465,3.465,0,0,1-.725,1.467,3.254,3.254,0,0,1-1.424,1,5.669,5.669,0,0,1-2,.326,7.16,7.16,0,0,1-2.133-.277,2.9,2.9,0,0,1-1.358-.838,3.322,3.322,0,0,1-.691-1.353,10.144,10.144,0,0,1-.207-2.382v-3.2a7.842,7.842,0,0,1,.376-2.718,3.118,3.118,0,0,1,1.353-1.568,4.774,4.774,0,0,1,2.5-.592,5.707,5.707,0,0,1,2.195.38,3.559,3.559,0,0,1,1.416.99,3.5,3.5,0,0,1,.681,1.262A7.768,7.768,0,0,1,262.114,341.895Zm-3.8-.94a4.146,4.146,0,0,0-.1-1.206.429.429,0,0,0-.441-.25.447.447,0,0,0-.451.25,3.807,3.807,0,0,0-.112,1.206v5.631a3.65,3.65,0,0,0,.112,1.152.511.511,0,0,0,.887.021,3.14,3.14,0,0,0,.109-1.053v-5.751Z" transform="translate(-242.866 -334.45)" fill="#e4e3ef"/>
        <path id="Path_306" data-name="Path 306" d="M262.846,337.516l-.067,1.187a3.034,3.034,0,0,1,1.053-1.059,2.74,2.74,0,0,1,1.391-.352,2.7,2.7,0,0,1,2.4,1.412,3.387,3.387,0,0,1,1.081-1.059,2.577,2.577,0,0,1,1.335-.352,2.621,2.621,0,0,1,1.6.469,2.08,2.08,0,0,1,.814,1.151,9.714,9.714,0,0,1,.178,2.215v8.862H268.95v-8.136a10.244,10.244,0,0,0-.109-1.978.476.476,0,0,0-.5-.381.5.5,0,0,0-.521.376,9.539,9.539,0,0,0-.117,1.983v8.13h-3.684v-7.922a14.566,14.566,0,0,0-.089-2.2.452.452,0,0,0-.493-.366.569.569,0,0,0-.432.192.751.751,0,0,0-.2.471c-.014.186-.019.577-.019,1.18v8.647H259.1V337.514h3.745Z" transform="translate(-238.598 -334.45)" fill="#e4e3ef"/>
        <path id="Path_307" data-name="Path 307" d="M271.327,337.516l-.066,1.187a3.033,3.033,0,0,1,1.053-1.059,2.74,2.74,0,0,1,1.391-.352,2.7,2.7,0,0,1,2.4,1.412,3.388,3.388,0,0,1,1.082-1.059,2.577,2.577,0,0,1,1.335-.352,2.621,2.621,0,0,1,1.6.469,2.079,2.079,0,0,1,.814,1.151,9.713,9.713,0,0,1,.179,2.215v8.862h-3.684v-8.136a10.244,10.244,0,0,0-.109-1.978.476.476,0,0,0-.5-.381.5.5,0,0,0-.522.376,9.545,9.545,0,0,0-.117,1.983v8.13H272.5v-7.922a14.583,14.583,0,0,0-.089-2.2.452.452,0,0,0-.494-.366.569.569,0,0,0-.432.192.751.751,0,0,0-.2.471c-.014.186-.019.577-.019,1.18v8.647h-3.684V337.514h3.745Z" transform="translate(-232.237 -334.45)" fill="#e4e3ef"/>
        <path id="Path_308" data-name="Path 308" d="M284.707,343.973h-4.916v2.7a2.975,2.975,0,0,0,.123,1.09.473.473,0,0,0,.471.247.57.57,0,0,0,.578-.326,3.536,3.536,0,0,0,.145-1.255v-1.645h3.6v.921a8.345,8.345,0,0,1-.145,1.778,3.611,3.611,0,0,1-.681,1.325,3.31,3.31,0,0,1-1.358,1.057,5.264,5.264,0,0,1-2.063.352,5.975,5.975,0,0,1-2.124-.348,3.372,3.372,0,0,1-1.433-.954,3.429,3.429,0,0,1-.709-1.335,8.628,8.628,0,0,1-.2-2.119v-3.638a6.2,6.2,0,0,1,.441-2.579,3.027,3.027,0,0,1,1.447-1.447,5.812,5.812,0,0,1,4.947.1,3.336,3.336,0,0,1,1.458,1.608,7.5,7.5,0,0,1,.418,2.814v1.656Zm-3.806-2.03v-.912a4.635,4.635,0,0,0-.1-1.249.407.407,0,0,0-.424-.282c-.262,0-.427.08-.488.24a4.972,4.972,0,0,0-.095,1.292v.912Z" transform="translate(-225.927 -334.452)" fill="#e4e3ef"/>
        <path id="Path_309" data-name="Path 309" d="M285.48,337.516l-.15,1.64a2.819,2.819,0,0,1,2.4-1.864v4.389a3.188,3.188,0,0,0-1.531.282,1.184,1.184,0,0,0-.6.784,14.093,14.093,0,0,0-.112,2.317v4.924h-3.8V337.516Z" transform="translate(-221.661 -334.45)" fill="#e4e3ef"/>
        <path id="Path_310" data-name="Path 310" d="M294.061,342.223h-3.58v-1.437a2.8,2.8,0,0,0-.122-1.02.448.448,0,0,0-.452-.268.439.439,0,0,0-.441.236,3.009,3.009,0,0,0-.112,1.053v5.882a2.276,2.276,0,0,0,.17,1,.537.537,0,0,0,.5.334.512.512,0,0,0,.521-.348,4.184,4.184,0,0,0,.137-1.316v-1.486h3.383a18.79,18.79,0,0,1-.109,2.242,3.586,3.586,0,0,1-.628,1.531,3.38,3.38,0,0,1-1.386,1.185,6,6,0,0,1-4.664-.149,3.027,3.027,0,0,1-1.33-1.542,8.006,8.006,0,0,1-.39-2.814v-3.542a6.844,6.844,0,0,1,.32-2.4,3.106,3.106,0,0,1,1.363-1.442,4.79,4.79,0,0,1,2.537-.634,4.852,4.852,0,0,1,2.538.628,3.1,3.1,0,0,1,1.4,1.589A8.259,8.259,0,0,1,294.061,342.223Z" transform="translate(-218.757 -334.449)" fill="#e4e3ef"/>
        <path id="Path_311" data-name="Path 311" d="M294.971,335.852v1.983h-3.91v-1.983Zm0,2.744v12.472h-3.91V338.6Z" transform="translate(-214.627 -335.53)" fill="#e4e3ef"/>
        <path id="Path_312" data-name="Path 312" d="M297.54,342.347h-3.561v-.837a5.89,5.89,0,0,1,.333-2.231,3.106,3.106,0,0,1,1.34-1.386,6.254,6.254,0,0,1,5.516.079,2.653,2.653,0,0,1,1.176,1.673,26.33,26.33,0,0,1,.2,4.085v6.26h-3.692v-1.111a2.319,2.319,0,0,1-2.21,1.335,3.2,3.2,0,0,1-1.827-.558q-.832-.559-.833-2.448v-1.026a3.009,3.009,0,0,1,.441-1.907,6.259,6.259,0,0,1,2.191-1.185,6.313,6.313,0,0,0,2-.985,2.612,2.612,0,0,0,.131-1.036,3.48,3.48,0,0,0-.145-1.274.5.5,0,0,0-.483-.3c-.255,0-.417.084-.479.25a5.116,5.116,0,0,0-.095,1.292v1.307Zm1.2,1.712a2.821,2.821,0,0,0-1.057,1.118,4.4,4.4,0,0,0-.147,1.3,3.735,3.735,0,0,0,.128,1.249.5.5,0,0,0,.5.283.467.467,0,0,0,.465-.222,3.569,3.569,0,0,0,.109-1.16v-2.565Z" transform="translate(-212.441 -334.451)" fill="#e4e3ef"/>
        <path id="Path_313" data-name="Path 313" d="M303.527,335.852v15.216h-3.91V335.852Z" transform="translate(-208.21 -335.53)" fill="#e4e3ef"/>
        <path id="Path_314" data-name="Path 314" d="M307.028,335.852h2.04V353.56h-2.04Z" transform="translate(-202.653 -335.53)" fill="#e4e3ef"/>
        <path id="Path_315" data-name="Path 315" d="M313.432,335.852h2.8a21.506,21.506,0,0,1,3.792.215,2.609,2.609,0,0,1,1.617,1.1,5.02,5.02,0,0,1,.625,2.833,4.416,4.416,0,0,1-.443,2.389,2.318,2.318,0,0,1-1.738.732,2.978,2.978,0,0,1,1.578.781,2.306,2.306,0,0,1,.5.9,14.051,14.051,0,0,1,.1,2.252v4.013h-3.677v-5.058a3.5,3.5,0,0,0-.191-1.512c-.128-.194-.467-.292-1.012-.292v6.862h-3.957Zm3.955,2.6v3.384a1.759,1.759,0,0,0,.936-.182c.178-.123.266-.52.266-1.19v-.838a1.273,1.273,0,0,0-.257-.948A1.467,1.467,0,0,0,317.387,338.454Z" transform="translate(-197.85 -335.53)" fill="#e4e3ef"/>
        <path id="Path_316" data-name="Path 316" d="M327.938,343.973h-4.916v2.7a3.03,3.03,0,0,0,.121,1.09.477.477,0,0,0,.471.247.574.574,0,0,0,.579-.326,3.536,3.536,0,0,0,.145-1.255v-1.645h3.6v.921a8.229,8.229,0,0,1-.145,1.778,3.633,3.633,0,0,1-.683,1.325,3.3,3.3,0,0,1-1.356,1.057,5.273,5.273,0,0,1-2.065.352,5.982,5.982,0,0,1-2.124-.348,3.365,3.365,0,0,1-1.431-.954,3.433,3.433,0,0,1-.711-1.335,8.646,8.646,0,0,1-.2-2.119v-3.638a6.2,6.2,0,0,1,.441-2.579,3.034,3.034,0,0,1,1.447-1.447,5.815,5.815,0,0,1,4.949.1,3.328,3.328,0,0,1,1.458,1.608,7.543,7.543,0,0,1,.417,2.814v1.656Zm-3.806-2.03v-.912a4.534,4.534,0,0,0-.1-1.249.407.407,0,0,0-.422-.282c-.262,0-.425.08-.488.24a4.972,4.972,0,0,0-.095,1.292v.912Z" transform="translate(-193.503 -334.452)" fill="#e4e3ef"/>
        <path id="Path_317" data-name="Path 317" d="M332.791,341.5h-3.365v-.677a3.65,3.65,0,0,0-.1-1.1q-.1-.231-.493-.231a.561.561,0,0,0-.48.212,1.04,1.04,0,0,0-.159.633,3.21,3.21,0,0,0,.08.84,1.317,1.317,0,0,0,.478.588,10.4,10.4,0,0,0,1.641.931,5.978,5.978,0,0,1,2.17,1.521,3.518,3.518,0,0,1,.518,2.079,5.211,5.211,0,0,1-.4,2.3,2.628,2.628,0,0,1-1.321,1.193,5.372,5.372,0,0,1-2.231.418,6.137,6.137,0,0,1-2.476-.451,2.7,2.7,0,0,1-1.416-1.221,5.414,5.414,0,0,1-.387-2.331v-.6h3.365v.789a4.12,4.12,0,0,0,.128,1.307.493.493,0,0,0,.5.3.678.678,0,0,0,.564-.2,1.521,1.521,0,0,0,.159-.849,1.893,1.893,0,0,0-.207-1.12,17.518,17.518,0,0,0-2.208-1.335,4.889,4.889,0,0,1-2.04-1.706,4.172,4.172,0,0,1-.366-1.818,4.7,4.7,0,0,1,.4-2.205,2.56,2.56,0,0,1,1.34-1.1,5.8,5.8,0,0,1,2.195-.385,6.222,6.222,0,0,1,2.11.315,3.253,3.253,0,0,1,1.335.831,2.243,2.243,0,0,1,.563.961,7.04,7.04,0,0,1,.1,1.381v.728Z" transform="translate(-189.359 -334.453)" fill="#e4e3ef"/>
        <path id="Path_318" data-name="Path 318" d="M334,335.852v1.983h-3.91v-1.983Zm0,2.744v12.472h-3.91V338.6Z" transform="translate(-185.354 -335.53)" fill="#e4e3ef"/>
        <path id="Path_319" data-name="Path 319" d="M341.791,335.853v15.216h-3.8v-.9a3.929,3.929,0,0,1-1.146.847,2.942,2.942,0,0,1-1.26.282,2.561,2.561,0,0,1-1.531-.465,2.1,2.1,0,0,1-.833-1.076,7.737,7.737,0,0,1-.182-1.993V341.92a7.936,7.936,0,0,1,.182-2.039,2.025,2.025,0,0,1,.84-1.057,2.686,2.686,0,0,1,1.57-.455,3.091,3.091,0,0,1,2.357,1.019v-3.537h3.8Zm-3.8,5.882a2.352,2.352,0,0,0-.116-.919.587.587,0,0,0-.922-.025,2.337,2.337,0,0,0-.117.943v6.111a2.811,2.811,0,0,0,.112,1,.431.431,0,0,0,.432.241.485.485,0,0,0,.488-.268,4.139,4.139,0,0,0,.121-1.311v-5.773Z" transform="translate(-183.143 -335.531)" fill="#e4e3ef"/>
        <path id="Path_320" data-name="Path 320" d="M347.467,343.973h-4.916v2.7a3.029,3.029,0,0,0,.121,1.09.476.476,0,0,0,.471.247.574.574,0,0,0,.579-.326,3.536,3.536,0,0,0,.145-1.255v-1.645h3.6v.921a8.227,8.227,0,0,1-.145,1.778,3.632,3.632,0,0,1-.683,1.325,3.3,3.3,0,0,1-1.356,1.057,5.273,5.273,0,0,1-2.065.352,5.982,5.982,0,0,1-2.124-.348,3.365,3.365,0,0,1-1.431-.954,3.433,3.433,0,0,1-.711-1.335,8.646,8.646,0,0,1-.2-2.119v-3.638a6.2,6.2,0,0,1,.441-2.579,3.034,3.034,0,0,1,1.447-1.447,5.815,5.815,0,0,1,4.949.1,3.328,3.328,0,0,1,1.458,1.608,7.543,7.543,0,0,1,.417,2.814v1.656Zm-3.8-2.03v-.912a4.535,4.535,0,0,0-.1-1.249.407.407,0,0,0-.422-.282c-.262,0-.425.08-.488.24a4.973,4.973,0,0,0-.094,1.292v.912Z" transform="translate(-178.857 -334.452)" fill="#e4e3ef"/>
        <path id="Path_321" data-name="Path 321" d="M348.306,337.517l-.065,1.148a2.842,2.842,0,0,1,1.01-1.031,2.708,2.708,0,0,1,1.377-.343,2.6,2.6,0,0,1,1.6.46,2.042,2.042,0,0,1,.8,1.16,10.6,10.6,0,0,1,.18,2.336v8.741h-3.8v-8.638a8.01,8.01,0,0,0-.086-1.57c-.056-.187-.212-.282-.471-.282a.472.472,0,0,0-.508.326,8.177,8.177,0,0,0-.1,1.732v8.431h-3.8V337.517h3.864Z" transform="translate(-174.592 -334.451)" fill="#e4e3ef"/>
        <path id="Path_322" data-name="Path 322" d="M354.468,336.471v1.965h1.024v1.972h-1.024v6.674a3.6,3.6,0,0,0,.126,1.37c.086.1.438.142,1.057.142v2.011h-1.533a10.968,10.968,0,0,1-1.852-.109,1.991,1.991,0,0,1-.978-.5,1.635,1.635,0,0,1-.527-.893,15.85,15.85,0,0,1-.105-2.364V340.4h-.817v-1.972h.817v-1.965h3.812Z" transform="translate(-170.544 -335.069)" fill="#e4e3ef"/>
        <path id="Path_323" data-name="Path 323" d="M357.458,335.852v1.983h-3.91v-1.983Zm0,2.744v12.472h-3.91V338.6Z" transform="translate(-167.763 -335.53)" fill="#e4e3ef"/>
        <path id="Path_324" data-name="Path 324" d="M360.026,342.347h-3.561v-.837a5.892,5.892,0,0,1,.332-2.231,3.107,3.107,0,0,1,1.341-1.386,6.254,6.254,0,0,1,5.516.079,2.653,2.653,0,0,1,1.176,1.673,26.325,26.325,0,0,1,.2,4.085v6.26h-3.692v-1.111a2.32,2.32,0,0,1-2.21,1.335,3.2,3.2,0,0,1-1.827-.558q-.832-.559-.833-2.448v-1.026a3.009,3.009,0,0,1,.441-1.907,6.258,6.258,0,0,1,2.191-1.185,6.312,6.312,0,0,0,2-.985,2.61,2.61,0,0,0,.131-1.036,3.48,3.48,0,0,0-.145-1.274.5.5,0,0,0-.483-.3c-.255,0-.417.084-.479.25a5.115,5.115,0,0,0-.095,1.292v1.307Zm1.2,1.712a2.82,2.82,0,0,0-1.057,1.118,4.405,4.405,0,0,0-.147,1.3,3.737,3.737,0,0,0,.128,1.249.5.5,0,0,0,.5.283.467.467,0,0,0,.465-.222,3.569,3.569,0,0,0,.109-1.16v-2.565Z" transform="translate(-165.576 -334.451)" fill="#e4e3ef"/>
        <path id="Path_325" data-name="Path 325" d="M366.013,335.852v15.216H362.1V335.852Z" transform="translate(-161.346 -335.53)" fill="#e4e3ef"/>
      </g>
      <g id="Group_118" data-name="Group 118" transform="translate(225.492 263.331)">
        <path id="Path_326" data-name="Path 326" d="M214.567,327.964H517.056l-4.041-17.82-4.041-.808V297.087l-4.987-1.535V284.177l-3.952-3.384-12.847,1.02v9.482l-5.6-.056V273.317l-5-2.572-24.736,1.543V281.3h-7.62V241.955l-9.433-5.766-25.335,2.7-1.419,1.02v61.7L225.825,275.739l-7,15.064,16.831,1.582V294l7.732,3.708-7.371,28.1Zm57.657-21.712s-2.809-8.645-.322-10.488l18.622,1.734v1.626l6.568,3.157-4.676,17.832-15.764,1.594A152.3,152.3,0,0,0,272.224,306.252Zm121.147.829a10.282,10.282,0,0,1,2.863,2.56L386.14,310.66a10.312,10.312,0,0,1,4.275-3.85Zm-10.318,1.729-.586,2.221-16,1.615c-.061-.191-.116-.376-.194-.576,0,0-1.935-6-.362-7.548l12.262,1.145v.808Zm-26.087-5.122c1.867.992,4.723,3.409,6.825,9.224l-17.9,1.808c1.313-4.729,3.712-9.406,8.083-11.307Zm-11.744,2.144-2.413,9.2-18.9,1.906c-.616-2.175-1.369-4.646-2.308-7.394,0,0-2.684-8.332.224-9.133l17.752,1.657v1.046Zm-35.59-6.55c2.434.879,8.255,4.387,10.9,18l-24.05,2.424c.928-7.369,3.663-17.791,11.662-20.561Zm90.715,9.949a2.582,2.582,0,0,1,.445-1.458l7.264.675ZM255.722,294.254l3.332.313c3.67,1.754,10.824,7.716,12.9,27.615l-29.829,3C242.294,318.787,243.792,299.066,255.722,294.254Z" transform="translate(-214.567 -236.189)" fill="#0c132d"/>
        <path id="Path_327" data-name="Path 327" d="M404.764,240.018l22.2-2.525v66.038L220.5,284.48l3.246-5.645,181.018,21.959Z" transform="translate(-210.117 -235.211)" fill="#e4e3ef"/>
        <path id="Path_328" data-name="Path 328" d="M350.985,258.277l20.069-1.263v32.632H350.985Z" transform="translate(-112.254 -220.57)" fill="#e4e3ef"/>
      </g>
    </g>
  </g>
</svg>
