<?xml version="1.0" encoding="utf-8"?>
<!-- Generator: Adobe Illustrator 16.0.0, SVG Export Plug-In . SVG Version: 6.00 Build 0)  -->
<!DOCTYPE svg PUBLIC "-//W3C//DTD SVG 1.1//EN" "http://www.w3.org/Graphics/SVG/1.1/DTD/svg11.dtd">
<svg version="1.1" xmlns="http://www.w3.org/2000/svg" xmlns:xlink="http://www.w3.org/1999/xlink" x="0px" y="0px" width="600px"
	 height="600px" viewBox="0 0 600 600" enable-background="new 0 0 600 600" xml:space="preserve">
<g id="base_colors">
	<g>
		<rect x="1.761" y="-221.034" fill="#4D3B15" width="82" height="82"/>
		<rect x="130.396" y="-221.034" fill="#437738" width="82" height="82"/>
		<rect x="259.01" y="-221.034" fill="#A7CD38" width="82.001" height="82"/>
		<rect x="387.624" y="-221.034" fill="#FBFADC" width="82" height="82"/>
		<rect x="516.239" y="-221.034" fill="#A51E22" width="82" height="82"/>
	</g>
</g>
<g id="background" display="none">
	<rect display="inline" fill="#FBFADC" width="600" height="600"/>
</g>
<g id="logo_-_text" display="none">
	<g display="inline">
		<circle fill="#A51E22" cx="196.611" cy="346" r="5"/>
		<circle fill="#F1F2F2" cx="178.037" cy="346" r="5"/>
		<circle fill="#437738" cx="159.463" cy="346" r="5"/>
		<circle fill="#A51E22" cx="440.537" cy="346" r="5"/>
		<circle fill="#F1F2F2" cx="421.963" cy="346" r="5"/>
		<circle fill="#437738" cx="403.39" cy="346" r="5"/>
	</g>
	<text transform="matrix(1 0 0 1 146.9126 316.1396)" display="inline" fill="#4D3B15" font-family="'HoboStd'" font-size="60">Pinocchio’s</text>
	<text transform="matrix(1 0 0 1 207.9458 358.0698)" display="inline" fill="#4D3B15" font-family="'HoboStd'" font-size="30">Pizza &amp; Subs</text>
</g>
<g id="thumbnail">
	<rect fill="#FBFADC" width="600" height="600"/>
	<g>
		<circle fill="#A51E22" cx="196.611" cy="346" r="5"/>
		<circle fill="#F1F2F2" cx="178.037" cy="346" r="5"/>
		<circle fill="#437738" cx="159.463" cy="346" r="5"/>
		<circle fill="#A51E22" cx="440.537" cy="346" r="5"/>
		<circle fill="#F1F2F2" cx="421.963" cy="346" r="5"/>
		<circle fill="#437738" cx="403.39" cy="346" r="5"/>
	</g>
	<g>
		<path fill="#4D3B15" d="M172.472,266.222c9.839,0,11.879,7.14,11.879,10.68c0,16.079-23.459,18.419-23.459,25.979
			c0,5.04,2.1,12.359,2.1,12.719c0,0.72-1.38,0.54-1.8,0.54h-7.979c-1.5,0-3.3,1.14-3.3-21.359c0-29.639,3.12-28.559,4.14-28.559
			H172.472z M174.631,278.821c0-4.14-3.6-5.52-7.2-5.52c-4.32,0-7.859,0.66-7.799,14.459c0,1.44,0.12,2.76,1.86,2.76
			C164.612,290.521,174.631,283.141,174.631,278.821z"/>
		<path fill="#4D3B15" d="M190.292,316.14c-2.94,0-3.18,1.26-3.18-19.859c0-20.519,0.96-18.539,2.94-18.539h3.3
			c2.52,0,2.58,0.18,2.58,0.9c0,2.22-0.72,4.44-0.72,10.979c0,15.12,2.34,24.419,2.34,24.959c0,1.92-1.8,1.56-3.18,1.56H190.292z
			 M187.772,269.102c0-2.58,2.22-4.14,4.62-4.14s4.62,1.56,4.62,4.14s-2.22,3.96-4.62,3.96S187.772,271.682,187.772,269.102z"/>
		<path fill="#4D3B15" d="M221.611,316.14c-0.78,0-2.1,0.18-2.1-0.96c0-0.6,3.06-8.58,3.06-20.759c0-4.26-0.36-9.6-4.44-9.6
			c-2.28,0-6.96,1.5-6.96,13.379c0,7.2,1.74,16.439,1.74,17.16c0,0.84-1.02,0.78-1.62,0.78h-5.1c-2.22,0-3.12,1.02-3.12-14.819
			c0-27.179,2.1-25.499,6.72-25.499c2.1,0,4.26-0.3,4.26,1.08c0,0.6-0.54,1.32-0.54,2.16c0,0.6,0.3,1.14,0.9,1.14
			c1.02,0,3.78-2.46,7.62-2.46c1.68,0,8.64,0.24,8.64,16.02c0,23.579-1.86,22.379-3.9,22.379H221.611z"/>
		<path fill="#4D3B15" d="M234.69,296.88c0-9.66,4.62-20.039,15.06-20.039s15.06,10.379,15.06,20.039
			c0,14.1-8.16,20.159-15.06,20.159S234.69,310.98,234.69,296.88z M257.37,295.38c0-4.74-1.68-11.459-7.62-11.459
			s-7.62,6.72-7.62,11.459c0,4.8,1.56,11.64,7.62,11.64S257.37,300.18,257.37,295.38z"/>
		<path fill="#4D3B15" d="M267.33,298.86c0-10.319,5.22-22.019,17.04-22.019c5.22,0,9,2.82,9,6.24c0,1.8-1.32,5.28-3.54,5.28
			c-1.38,0-1.14-4.44-6-4.44c-6.18,0-8.399,8.16-8.399,13.2c0,5.82,2.76,10.679,8.459,10.679c6.479,0,7.979-5.939,8.52-5.939
			c0.3,0,0.9,1.08,0.9,3.54c0,7.2-4.74,11.64-11.819,11.64C271.53,317.04,267.33,307.62,267.33,298.86z"/>
		<path fill="#4D3B15" d="M296.609,298.86c0-10.319,5.22-22.019,17.04-22.019c5.22,0,9,2.82,9,6.24c0,1.8-1.32,5.28-3.54,5.28
			c-1.38,0-1.14-4.44-6-4.44c-6.18,0-8.399,8.16-8.399,13.2c0,5.82,2.76,10.679,8.459,10.679c6.479,0,7.979-5.939,8.52-5.939
			c0.3,0,0.9,1.08,0.9,3.54c0,7.2-4.74,11.64-11.819,11.64C300.81,317.04,296.609,307.62,296.609,298.86z"/>
		<path fill="#4D3B15" d="M337.588,264.962c0.54,0,0.961,0.66,0.961,1.26c0,0.84-2.28,6.72-2.28,11.52c0,0.72,0,1.86,1.02,1.86
			c0.48,0,1.44-0.54,2.76-1.32c1.38-0.72,3.061-1.44,5.04-1.44c5.46,0,9.479,3.9,9.479,18.359c0,5.76-0.84,20.939-2.699,20.939
			h-6.24c-0.54,0-2.16,0.18-2.16-0.78c0-0.42,3-12.3,3-20.279c0-9.3-1.56-11.16-4.5-11.16c-6.119,0-6.239,9.36-6.239,13.62
			c0,12,1.32,15.899,1.32,17.639c0,0.96-1.141,0.96-1.74,0.96h-5.94c-1.74,0-1.74,2.04-1.74-24.599c0-4.8,0.12-26.579,3.42-26.579
			H337.588z"/>
		<path fill="#4D3B15" d="M363.208,316.14c-2.939,0-3.18,1.26-3.18-19.859c0-20.519,0.96-18.539,2.94-18.539h3.3
			c2.52,0,2.579,0.18,2.579,0.9c0,2.22-0.72,4.44-0.72,10.979c0,15.12,2.34,24.419,2.34,24.959c0,1.92-1.8,1.56-3.18,1.56H363.208z
			 M360.689,269.102c0-2.58,2.22-4.14,4.62-4.14c2.399,0,4.619,1.56,4.619,4.14s-2.22,3.96-4.619,3.96
			C362.909,273.062,360.689,271.682,360.689,269.102z"/>
		<path fill="#4D3B15" d="M374.488,296.88c0-9.66,4.62-20.039,15.06-20.039s15.06,10.379,15.06,20.039
			c0,14.1-8.16,20.159-15.06,20.159S374.488,310.98,374.488,296.88z M397.167,295.38c0-4.74-1.681-11.459-7.62-11.459
			s-7.62,6.72-7.62,11.459c0,4.8,1.561,11.64,7.62,11.64S397.167,300.18,397.167,295.38z"/>
		<path fill="#4D3B15" d="M415.047,266.462c0.66-0.48,1.38-1.14,2.28-1.14c3.359,0,5.939,3.66,5.939,6.78
			c0,6.899-7.319,9.779-10.8,9.779c-0.18,0-0.479-0.12-0.479-0.3c0-0.24,1.56-2.1,1.56-4.56c0-5.04-4.68-4.8-4.68-5.4
			c0-0.3,1.02-1.02,1.2-1.14L415.047,266.462z"/>
		<path fill="#4D3B15" d="M424.408,306.3c0-2.82,1.44-6.419,1.92-6.419c0.3,0,1.8,9.06,10.319,9.06c2.46,0,5.34-1.26,5.34-4.32
			c0-6.18-16.199-4.56-16.199-16.5c0-7.319,5.88-11.279,12.359-11.279c7.5,0,11.64,4.5,11.64,5.7c0,1.14-3.359,6-4.739,6
			c-1.561,0-1.92-4.62-7.44-4.62c-1.859,0-4.38,0.84-4.38,2.64c0,6.18,17.52,6.06,17.52,18.239c0,7.799-6.479,12.239-13.68,12.239
			C430.708,317.04,424.408,313.32,424.408,306.3z"/>
	</g>
	<g>
		<path fill="#4D3B15" d="M220.725,333.111c4.92,0,5.94,3.57,5.94,5.34c0,8.04-11.729,9.21-11.729,12.989
			c0,2.521,1.05,6.18,1.05,6.36c0,0.359-0.69,0.27-0.9,0.27h-3.99c-0.75,0-1.65,0.57-1.65-10.68c0-14.819,1.56-14.279,2.07-14.279
			H220.725z M221.805,339.411c0-2.07-1.8-2.76-3.6-2.76c-2.16,0-3.93,0.33-3.9,7.229c0,0.72,0.06,1.38,0.93,1.38
			C216.795,345.26,221.805,341.571,221.805,339.411z"/>
		<path fill="#4D3B15" d="M229.635,358.07c-1.47,0-1.59,0.63-1.59-9.93c0-10.26,0.48-9.27,1.47-9.27h1.65
			c1.26,0,1.29,0.09,1.29,0.45c0,1.109-0.36,2.22-0.36,5.489c0,7.56,1.17,12.21,1.17,12.479c0,0.96-0.9,0.78-1.59,0.78H229.635z
			 M228.375,334.55c0-1.289,1.11-2.069,2.31-2.069c1.2,0,2.31,0.78,2.31,2.069c0,1.29-1.11,1.98-2.31,1.98
			C229.485,336.531,228.375,335.84,228.375,334.55z"/>
		<path fill="#4D3B15" d="M236.925,358.07c-0.78,0-1.5,0.15-1.5-0.84c0-7.229,7.17-13.35,7.17-14.22c0-0.569-0.99-0.6-1.35-0.6
			c-2.55,0-3.15,0.78-3.69,0.78c-0.63,0-1.26-3.57-1.26-3.931c0-0.51,0.93-0.39,1.23-0.39h9.03c0.84,0,1.32-0.12,1.32,0.93
			c0,0.36-0.03,2.97-0.36,3.57c-0.99,1.859-6.75,7.5-6.75,10.499c0,0.601,0.36,0.66,1.23,0.66c3.51,0,3.93-0.93,4.41-0.93
			c0.54,0,1.32,3.569,1.32,4.05c0,0.45-0.9,0.42-1.17,0.42H236.925z"/>
		<path fill="#4D3B15" d="M250.935,358.07c-0.78,0-1.5,0.15-1.5-0.84c0-7.229,7.17-13.35,7.17-14.22c0-0.569-0.99-0.6-1.35-0.6
			c-2.55,0-3.15,0.78-3.69,0.78c-0.63,0-1.26-3.57-1.26-3.931c0-0.51,0.93-0.39,1.23-0.39h9.03c0.84,0,1.32-0.12,1.32,0.93
			c0,0.36-0.03,2.97-0.36,3.57c-0.99,1.859-6.75,7.5-6.75,10.499c0,0.601,0.36,0.66,1.23,0.66c3.51,0,3.93-0.93,4.41-0.93
			c0.54,0,1.32,3.569,1.32,4.05c0,0.45-0.9,0.42-1.17,0.42H250.935z"/>
		<path fill="#4D3B15" d="M270.735,345.59c0.87-0.15,1.56-0.3,1.56-1.29c0-1.53-1.59-2.34-2.91-2.34c-3.06,0-2.61,2.58-3.27,2.58
			c-0.96,0-2.01-1.17-2.01-2.46c0-2.22,2.49-3.66,5.25-3.66c0.96,0,5.069-0.03,6.6,4.17c0.63,1.74,0.69,10.62,0.69,11.67
			c0,1.319,0.24,2.1,0.24,3.119c0,0.631-2.82,0.69-5.49,0.69c-7.229,0-7.74-3.72-7.74-5.52
			C263.655,348.77,267.375,346.161,270.735,345.59z M272.595,350.84c0-1.05,0.18-2.311-1.26-2.311c-1.77,0-3.63,1.5-3.63,3.33
			c0,1.68,1.47,2.67,3.06,2.67c1.77,0,1.83-0.899,1.83-2.37V350.84z"/>
		<path fill="#4D3B15" d="M288.464,352.7c0-5.579,5.07-7.229,5.07-8.55c0-0.93-1.95-2.76-1.95-5.489c0-1.89,1.08-6,7.47-6
			c4.56,0,6.03,3.36,6.03,5.07c0,4.439-4.65,5.819-4.65,7.529c0,0.81,1.32,2.97,2.22,3.12c0.96,0,2.76-4.56,8.399-4.56
			c1.68,0,3.15,1.05,3.15,2.789c0,0.69-0.57,1.92-1.26,1.92c-0.63,0-1.2-0.869-2.31-0.869c-2.4,0-5.07,3.63-5.07,4.289
			c0,0.66,1.59,1.23,2.4,1.23c2.04,0,3.12-1.32,3.42-1.32c0.18,0,0.18,0.271,0.18,0.51c0,3.24-1.86,6.15-5.07,6.15
			c-2.73,0-3.66-2.16-4.8-2.16c-1.38,0-2.43,2.16-6.72,2.16C290.714,358.52,288.464,356.09,288.464,352.7z M293.324,351.65
			c0,1.5,1.47,2.49,2.73,2.49c1.08,0,2.97-0.75,2.97-1.59c0-0.48-2.46-4.32-3.21-4.32C294.764,348.23,293.324,350.21,293.324,351.65
			z M300.704,338.151c0-1.29-0.78-1.95-2.07-1.95s-2.19,0.72-2.19,2.04c0,0.87,0.87,2.97,1.89,2.97
			C299.114,341.21,300.704,339.321,300.704,338.151z"/>
		<path fill="#4D3B15" d="M334.004,336.71c-1.5,0-3.42,0.75-3.42,2.49c0,2.16,2.97,3,4.62,3.569c6.3,2.101,7.59,5.13,7.59,7.98
			c0,3.479-2.49,7.77-8.819,7.77c-4.26,0-8.58-2.28-8.58-7.05c0-2.55,1.53-4.05,1.83-4.05c0.51,0,0,6.09,6.45,6.09
			c2.28,0,4.26-0.99,4.26-2.851c0-2.189-2.7-3.09-4.439-3.629c-6.57-2.04-7.29-5.011-7.29-7.561c0-2.52,1.71-6.81,7.8-6.81
			c4.35,0,7.44,2.311,7.44,3.18c0,0.841-1.56,3.57-2.4,3.57C338.294,339.411,337.124,336.71,334.004,336.71z"/>
		<path fill="#4D3B15" d="M357.793,338.871c1.26,0,1.29,6.3,1.29,9.149c0,11.01-0.78,10.5-2.939,10.5c-3.15,0-0.75-1.68-2.46-1.68
			c-0.27,0-0.96,0.63-1.5,0.989c-0.54,0.33-1.23,0.69-2.22,0.69c-2.49,0-4.8-1.561-4.8-10.14c0-0.51,0.21-9.51,1.47-9.51h2.76
			c0.39,0,1.2-0.15,1.2,0.45c0,0.45-1.38,3.449-1.38,9.119c0,1.681-0.03,6.24,2.55,6.24c0.99,0,3.27-0.3,3.27-6.75
			c0-3.6-1.05-8.22-1.05-8.699c0-0.391,0.69-0.36,1.02-0.36H357.793z"/>
		<path fill="#4D3B15" d="M365.984,332.481c0.36,0,1.08,0,1.08,0.66c0,0.239-0.899,3.239-0.899,5.01c0,0.479,0.09,0.96,0.659,0.96
			c0.33,0,0.75-0.15,1.23-0.33c0.51-0.15,1.109-0.36,1.74-0.36c2.55,0,6.119,2.28,6.119,8.61c0,3.449-0.87,6.209-3.06,8.699
			c-0.87,1.02-2.46,2.34-4.74,2.34h-5.31c-1.05,0-0.93-10.05-0.93-10.739c0-1.41-0.12-14.85,1.229-14.85H365.984z M371.864,347.39
			c0-4.92-2.13-6.119-3.39-6.119c-2.13,0-2.55,1.05-2.55,5.43c0,6.479,1.529,6.359,2.31,6.359
			C371.174,353.06,371.864,349.61,371.864,347.39z"/>
		<path fill="#4D3B15" d="M377.713,353.15c0-1.41,0.72-3.21,0.96-3.21c0.15,0,0.9,4.53,5.16,4.53c1.229,0,2.67-0.63,2.67-2.16
			c0-3.09-8.1-2.28-8.1-8.25c0-3.659,2.939-5.64,6.18-5.64c3.749,0,5.819,2.25,5.819,2.851c0,0.569-1.68,2.999-2.37,2.999
			c-0.779,0-0.96-2.31-3.72-2.31c-0.93,0-2.189,0.42-2.189,1.32c0,3.09,8.76,3.029,8.76,9.119c0,3.9-3.24,6.12-6.84,6.12
			C380.864,358.52,377.713,356.66,377.713,353.15z"/>
	</g>
	<rect fill="#437738" width="100" height="600"/>
	<rect x="500" fill="#A51E22" width="100" height="600"/>
</g>
</svg>
